<?xml version="1.0" encoding="UTF-8" standalone="no"?>
<!-- Created with Inkscape (http://www.inkscape.org/) -->

<svg
   xmlns:dc="http://purl.org/dc/elements/1.1/"
   xmlns:cc="http://creativecommons.org/ns#"
   xmlns:rdf="http://www.w3.org/1999/02/22-rdf-syntax-ns#"
   xmlns:svg="http://www.w3.org/2000/svg"
   xmlns="http://www.w3.org/2000/svg"
   xmlns:sodipodi="http://sodipodi.sourceforge.net/DTD/sodipodi-0.dtd"
   xmlns:inkscape="http://www.inkscape.org/namespaces/inkscape"
   width="192"
   height="53.749313"
   id="svg5520"
   version="1.1"
   inkscape:version="0.48.4 r9939"
   sodipodi:docname="EU.svg">
  <defs
     id="defs5522">
    <clipPath
       id="clipPath3018"
       clipPathUnits="userSpaceOnUse">
      <path
         inkscape:connector-curvature="0"
         id="path3020"
         d="m 107.783,214.0826 373.126,0 0,219.466 -373.126,0 0,-219.466 z" />
    </clipPath>
    <clipPath
       id="clipPath3026"
       clipPathUnits="userSpaceOnUse">
      <path
         inkscape:connector-curvature="0"
         id="path3028"
         d="m 132.439,240.2646 299.8689,0 0,188.1731 -299.8689,0 0,-188.1731 z" />
    </clipPath>
  </defs>
  <sodipodi:namedview
     id="base"
     pagecolor="#ffffff"
     bordercolor="#666666"
     borderopacity="1.0"
     inkscape:pageopacity="0.0"
     inkscape:pageshadow="2"
     inkscape:zoom="1.979899"
     inkscape:cx="106.91252"
     inkscape:cy="12.138915"
     inkscape:document-units="px"
     inkscape:current-layer="layer1"
     showgrid="false"
     fit-margin-top="0"
     fit-margin-left="0"
     fit-margin-right="0"
     fit-margin-bottom="0"
     inkscape:window-width="1323"
     inkscape:window-height="744"
     inkscape:window-x="43"
     inkscape:window-y="24"
     inkscape:window-maximized="1" />
  <metadata
     id="metadata5525">
    <rdf:RDF>
      <cc:Work
         rdf:about="">
        <dc:format>image/svg+xml</dc:format>
        <dc:type
           rdf:resource="http://purl.org/dc/dcmitype/StillImage" />
        <dc:title></dc:title>
      </cc:Work>
    </rdf:RDF>
  </metadata>
  <g
     inkscape:label="Layer 1"
     inkscape:groupmode="layer"
     id="layer1"
     transform="translate(338.47249,-762.1722)">
    <g
       id="g3680"
       transform="matrix(0.02015119,0,0,-0.02015119,-368.46774,865.05591)"
       style="fill:#a7a5a6;fill-opacity:1"
       inkscape:export-filename="/home/filipe/Desktop/spiracol/signa.png"
       inkscape:export-xdpi="60"
       inkscape:export-ydpi="60">
      <path
         inkscape:connector-curvature="0"
         d="m 1488.51,5105.59 0,-2003.44 2949.45,0 0,2003.44 -2949.45,0 z m 2892.73,-1945.63 -2836.01,0 0,1890.71 2836.01,0 0,-1890.71"
         style="fill:#a7a5a6;fill-opacity:1;fill-rule:nonzero;stroke:none"
         id="path3682" />
      <path
         inkscape:connector-curvature="0"
         d="m 2902.8,4638.71 59.84,43.68 59.85,-43.68 -22.77,70.63 60.78,43.67 -74.93,0 -22.93,71.49 -22.92,-71.57 -74.88,0.08 60.73,-43.67 -22.77,-70.63"
         style="fill:#a7a5a6;fill-opacity:1;fill-rule:nonzero;stroke:none"
         id="path3684" />
      <path
         inkscape:connector-curvature="0"
         d="m 2593.11,4555.51 59.85,43.67 59.81,-43.67 -22.74,70.63 60.74,43.67 -74.92,0 -22.93,71.56 -22.93,-71.64 -74.88,0.08 60.74,-43.67 -22.74,-70.63"
         style="fill:#a7a5a6;fill-opacity:1;fill-rule:nonzero;stroke:none"
         id="path3686" />
      <path
         inkscape:connector-curvature="0"
         d="m 2426.36,4514.26 -22.93,-71.64 -74.88,0.08 60.74,-43.67 -22.77,-70.63 59.84,43.67 59.84,-43.67 -22.77,70.63 60.74,43.67 -74.88,0 -22.93,71.56"
         style="fill:#a7a5a6;fill-opacity:1;fill-rule:nonzero;stroke:none"
         id="path3688" />
      <path
         inkscape:connector-curvature="0"
         d="m 2343.23,4062.77 59.81,-43.67 -22.74,70.63 60.75,43.67 -74.89,0 -22.93,71.56 -22.93,-71.72 -74.92,0.16 60.78,-43.67 -22.77,-70.63 59.84,43.67"
         style="fill:#a7a5a6;fill-opacity:1;fill-rule:nonzero;stroke:none"
         id="path3690" />
      <path
         inkscape:connector-curvature="0"
         d="m 2449.29,3823.16 -22.93,71.57 -22.93,-71.64 -74.88,0.07 60.74,-43.67 -22.77,-70.62 59.84,43.75 59.84,-43.75 -22.77,70.62 60.74,43.67 -74.88,0"
         style="fill:#a7a5a6;fill-opacity:1;fill-rule:nonzero;stroke:none"
         id="path3692" />
      <path
         inkscape:connector-curvature="0"
         d="m 2676.32,3596.13 -22.93,71.49 -22.89,-71.57 -74.93,0.08 60.75,-43.67 -22.73,-70.62 59.84,43.67 59.8,-43.67 -22.73,70.62 60.74,43.67 -74.92,0"
         style="fill:#a7a5a6;fill-opacity:1;fill-rule:nonzero;stroke:none"
         id="path3694" />
      <path
         inkscape:connector-curvature="0"
         d="m 2985.61,3513.87 -22.92,71.56 -22.89,-71.64 -74.92,0.08 60.73,-43.67 -22.73,-70.63 59.85,43.67 59.8,-43.67 -22.77,70.63 60.78,43.67 -74.93,0"
         style="fill:#a7a5a6;fill-opacity:1;fill-rule:nonzero;stroke:none"
         id="path3696" />
      <path
         inkscape:connector-curvature="0"
         d="m 3294.91,3596.13 -22.89,71.49 -22.97,-71.57 -74.84,0.08 60.7,-43.67 -22.73,-70.62 59.84,43.67 59.84,-43.67 -22.81,70.62 60.79,43.67 -74.93,0"
         style="fill:#a7a5a6;fill-opacity:1;fill-rule:nonzero;stroke:none"
         id="path3698" />
      <path
         inkscape:connector-curvature="0"
         d="m 3522.02,3823.16 -22.97,71.57 -22.96,-71.64 -74.85,0.07 60.78,-43.67 -22.81,-70.62 59.84,43.75 59.84,-43.75 -22.8,70.62 60.77,43.67 -74.84,0"
         style="fill:#a7a5a6;fill-opacity:1;fill-rule:nonzero;stroke:none"
         id="path3700" />
      <path
         inkscape:connector-curvature="0"
         d="m 3679.13,4134.26 -74.92,0 -22.97,71.56 -22.89,-71.64 -74.92,0.08 60.78,-43.67 -22.73,-70.63 59.76,43.75 59.85,-43.75 -22.74,70.63 60.78,43.67"
         style="fill:#a7a5a6;fill-opacity:1;fill-rule:nonzero;stroke:none"
         id="path3702" />
      <path
         inkscape:connector-curvature="0"
         d="m 3439.21,4329.34 59.84,43.67 59.84,-43.67 -22.8,70.62 60.77,43.6 -74.84,0 -22.97,71.56 -22.96,-71.64 -74.85,0.08 60.78,-43.6 -22.81,-70.62"
         style="fill:#a7a5a6;fill-opacity:1;fill-rule:nonzero;stroke:none"
         id="path3704" />
      <path
         inkscape:connector-curvature="0"
         d="m 3272.88,4741.29 -22.89,-71.64 -74.92,0.16 60.7,-43.75 -22.73,-70.63 59.92,43.75 59.77,-43.75 -22.74,70.63 60.78,43.75 -75,0 -22.89,71.48"
         style="fill:#a7a5a6;fill-opacity:1;fill-rule:nonzero;stroke:none"
         id="path3706" />
    </g>
    <g
       transform="matrix(0.16884921,0,0,0.16884921,-517.51599,682.34966)"
       style="font-size:40px;font-style:normal;font-variant:normal;font-weight:500;font-stretch:normal;line-height:125%;letter-spacing:0px;word-spacing:0px;fill:#a7a5a6;fill-opacity:1;stroke:none;font-family:ori1Uni;-inkscape-font-specification:ori1Uni Medium"
       id="flowRoot3677">
      <path
         d="m 1466.1992,749.84329 4.9199,0 5.9512,32.07617 -4.5332,0 -1.332,-8.22851 -14.4375,0 -4.5332,8.22851 -4.5762,0 18.541,-32.07617 m 1.5684,4.27539 -9.002,15.96289 11.7735,0 -2.7715,-15.96289"
         style="font-size:44px;font-style:italic;fill:#a7a5a6;-inkscape-font-specification:ori1Uni Italic"
         id="path6025"
         inkscape:connector-curvature="0" />
      <path
         d="m 1501.5195,749.84329 20.2813,0 -0.709,3.65234 -15.9629,0 -1.8476,9.4961 15.3183,0 -0.709,3.65234 -15.3183,0 -2.2344,11.62305 16.3281,0 -0.709,3.65234 -20.6894,0 6.2519,-32.07617"
         style="font-size:44px;font-style:italic;fill:#a7a5a6;-inkscape-font-specification:ori1Uni Italic"
         id="path6027"
         inkscape:connector-curvature="0" />
      <path
         d="m 1524.873,772.3804 2.8145,-14.52344 3.9746,0 -2.8144,14.37305 c -0.1433,0.70183 -0.2507,1.30339 -0.3223,1.80469 -0.057,0.50131 -0.086,0.91667 -0.086,1.24609 -10e-5,1.21745 0.3723,2.16277 1.1171,2.83594 0.7448,0.65886 1.7976,0.98828 3.1582,0.98828 2.1198,0 3.9532,-0.71614 5.5,-2.14844 1.5469,-1.43228 2.5567,-3.35871 3.0293,-5.77929 l 2.6426,-13.32032 3.9531,0 -4.6621,24.0625 -3.9531,0 0.7949,-3.78125 c -1.1172,1.40365 -2.4492,2.49219 -3.9961,3.26563 -1.5325,0.75911 -3.1653,1.13867 -4.8984,1.13867 -2.1055,0 -3.7454,-0.57292 -4.9199,-1.71875 -1.1745,-1.16015 -1.7617,-2.77148 -1.7617,-4.83398 0,-0.42969 0.036,-0.96679 0.1074,-1.61133 0.072,-0.64453 0.179,-1.31054 0.3222,-1.99805"
         style="font-size:44px;font-style:italic;fill:#a7a5a6;-inkscape-font-specification:ori1Uni Italic"
         id="path6029"
         inkscape:connector-curvature="0" />
      <path
         d="m 1569.4746,761.50931 c -0.4011,-0.21483 -0.8594,-0.37954 -1.375,-0.49414 -0.5156,-0.11457 -1.0671,-0.17186 -1.6543,-0.17188 -2.1055,2e-5 -3.946,0.8021 -5.5215,2.40625 -1.5755,1.58986 -2.6211,3.72397 -3.1367,6.40234 l -2.4277,12.26758 -3.9531,0 4.705,-24.0625 3.9532,0 -0.752,3.73828 c 1.0456,-1.3893 2.2917,-2.45635 3.7383,-3.20117 1.4609,-0.74476 3.0149,-1.11716 4.6621,-1.11719 0.4297,3e-5 0.8522,0.0287 1.2676,0.0859 0.4153,0.043 0.8307,0.12177 1.2461,0.23633 l -0.752,3.91016"
         style="font-size:44px;font-style:italic;fill:#a7a5a6;-inkscape-font-specification:ori1Uni Italic"
         id="path6031"
         inkscape:connector-curvature="0" />
      <path
         d="m 1579.1641,782.54251 c -2.8217,0 -5.056,-0.86654 -6.7032,-2.59961 -1.6328,-1.74739 -2.4492,-4.12499 -2.4492,-7.13281 0,-1.74739 0.2793,-3.52343 0.8379,-5.32813 0.5729,-1.81899 1.3106,-3.34438 2.2129,-4.57617 1.418,-1.91925 3.0006,-3.33722 4.748,-4.25391 1.7474,-0.91664 3.724,-1.37497 5.9297,-1.375 2.7357,3e-5 4.9414,0.85224 6.6172,2.55665 1.6901,1.70444 2.5352,3.93165 2.5352,6.68164 0,1.90496 -0.2793,3.80274 -0.8379,5.69336 -0.5586,1.89063 -1.2891,3.45899 -2.1914,4.70507 -1.4037,1.91928 -2.9792,3.33724 -4.7266,4.25391 -1.7474,0.91667 -3.7383,1.375 -5.9726,1.375 m -5.0489,-9.86133 c 0,2.17709 0.4512,3.8099 1.3536,4.89844 0.9166,1.07422 2.2988,1.61133 4.1464,1.61133 2.6498,0 4.8412,-1.15299 6.5743,-3.45899 1.7473,-2.3203 2.621,-5.2565 2.621,-8.80859 0,-2.07681 -0.4655,-3.64516 -1.3964,-4.70508 -0.931,-1.05987 -2.2989,-1.58982 -4.1036,-1.58984 -1.4896,2e-5 -2.8144,0.35093 -3.9746,1.05273 -1.1601,0.68752 -2.1985,1.74025 -3.1152,3.1582 -0.6732,1.05992 -1.196,2.2702 -1.5684,3.63086 -0.358,1.36069 -0.5371,2.76434 -0.5371,4.21094"
         style="font-size:44px;font-style:italic;fill:#a7a5a6;-inkscape-font-specification:ori1Uni Italic"
         id="path6033"
         inkscape:connector-curvature="0" />
      <path
         d="m 1616.7188,767.09524 c -1e-4,-2.10545 -0.4584,-3.71677 -1.375,-4.83398 -0.9167,-1.11717 -2.2344,-1.67576 -3.9532,-1.67578 -1.1745,2e-5 -2.2988,0.3008 -3.373,0.90234 -1.0599,0.60158 -2.0052,1.47528 -2.836,2.6211 -0.8164,1.13152 -1.4681,2.49936 -1.955,4.10351 -0.487,1.60418 -0.7305,3.19402 -0.7305,4.76953 0,2.00522 0.4583,3.55209 1.375,4.64063 0.9167,1.07422 2.22,1.61133 3.9102,1.61133 1.246,0 2.399,-0.29362 3.4589,-0.88086 1.0742,-0.58724 1.9909,-1.43945 2.75,-2.55664 0.8164,-1.17448 1.4753,-2.55664 1.9766,-4.14649 0.5013,-1.58983 0.7519,-3.10806 0.752,-4.55469 m -12.2461,-5.58593 c 1.0598,-1.3893 2.3059,-2.44204 3.7382,-3.15821 1.4466,-0.71612 3.0508,-1.07419 4.8125,-1.07422 2.4636,3e-5 4.3757,0.80927 5.7364,2.42774 1.3606,1.60419 2.041,3.86004 2.041,6.76758 0,2.37761 -0.4226,4.64779 -1.2676,6.81054 -0.8451,2.14845 -2.0625,4.07488 -3.6523,5.7793 -1.06,1.13151 -2.2559,1.99805 -3.5879,2.59961 -1.3321,0.58724 -2.7357,0.88086 -4.211,0.88086 -1.7044,0 -3.1367,-0.35091 -4.2968,-1.05273 -1.1602,-0.71615 -2.0267,-1.77604 -2.5997,-3.17969 l -2.4707,12.76172 -3.9531,0 6.4668,-33.21485 3.9531,0 -0.7089,3.65235"
         style="font-size:44px;font-style:italic;fill:#a7a5a6;-inkscape-font-specification:ori1Uni Italic"
         id="path6035"
         inkscape:connector-curvature="0" />
      <path
         d="m 1646.4531,768.19095 -2.6855,13.72851 -3.9531,0 0.7304,-3.65234 c -1.1602,1.43229 -2.485,2.50651 -3.9746,3.22266 -1.4753,0.70182 -3.1224,1.05273 -4.9414,1.05273 -2.0482,0 -3.7311,-0.62305 -5.0488,-1.86914 -1.3034,-1.26041 -1.9551,-2.87174 -1.9551,-4.83399 0,-2.80728 1.1172,-5.02733 3.3516,-6.66015 2.2487,-1.6328 5.3424,-2.4492 9.2812,-2.44922 l 5.5,0 0.2149,-1.05273 c 0.029,-0.11457 0.05,-0.23632 0.064,-0.36524 0.014,-0.14321 0.022,-0.35805 0.022,-0.64453 0,-1.27472 -0.5228,-2.263 -1.5684,-2.96484 -1.0312,-0.71613 -2.485,-1.0742 -4.3613,-1.07422 -1.2891,2e-5 -2.6139,0.16473 -3.9746,0.49414 -1.3464,0.32945 -2.7357,0.82359 -4.168,1.48242 l 0.6875,-3.65234 c 1.4896,-0.55857 2.9434,-0.97394 4.3614,-1.2461 1.4322,-0.28643 2.8144,-0.42966 4.1464,-0.42969 2.836,3e-5 4.9916,0.61591 6.4668,1.84766 1.4896,1.23179 2.2344,3.02216 2.2344,5.37109 0,0.47268 -0.036,1.03127 -0.1074,1.67579 -0.072,0.63022 -0.1791,1.3034 -0.3223,2.01953 m -4.2754,1.63281 -3.9531,0 c -3.237,10e-6 -5.6361,0.43686 -7.1973,1.31055 -1.5468,0.85938 -2.3203,2.19857 -2.3203,4.01757 0,1.26043 0.3939,2.24871 1.1817,2.96485 0.802,0.71615 1.9049,1.07422 3.3086,1.07422 2.1484,0 4.0247,-0.76628 5.6289,-2.29883 1.6041,-1.54687 2.664,-3.60937 3.1797,-6.1875 l 0.1718,-0.88086"
         style="font-size:44px;font-style:italic;fill:#a7a5a6;-inkscape-font-specification:ori1Uni Italic"
         id="path6037"
         inkscape:connector-curvature="0" />
      <path
         d="m 1671.8691,748.48978 3.9532,0 -0.9668,5.00585 -3.9532,0 0.9668,-5.00585 m -1.8046,9.36718 3.9531,0 -4.7051,24.0625 -3.9531,0 4.7051,-24.0625"
         style="font-size:44px;font-style:italic;fill:#a7a5a6;-inkscape-font-specification:ori1Uni Italic"
         id="path6039"
         inkscape:connector-curvature="0" />
      <path
         d="m 1700.5293,767.39603 -2.8145,14.52343 -3.9746,0 2.8145,-14.37304 c 0.1289,-0.67317 0.2291,-1.26757 0.3008,-1.78321 0.072,-0.51561 0.1074,-0.92381 0.1074,-1.22461 0,-1.2031 -0.3796,-2.14125 -1.1387,-2.81445 -0.7591,-0.67316 -1.819,-1.00974 -3.1797,-1.00977 -2.1198,3e-5 -3.9459,0.70901 -5.4785,2.12696 -1.5325,1.40366 -2.5351,3.31577 -3.0078,5.73633 l -2.6426,13.34179 -3.9531,0 4.6621,-24.0625 3.9531,0 -0.7949,3.78125 c 1.1029,-1.3893 2.4277,-2.46352 3.9746,-3.22265 1.5469,-0.75909 3.1725,-1.13865 4.877,-1.13868 2.1197,3e-5 3.7597,0.57295 4.9199,1.71875 1.1745,1.14586 1.7617,2.75719 1.7617,4.83399 0,0.51564 -0.036,1.06707 -0.1074,1.6543 -0.057,0.58725 -0.1504,1.22462 -0.2793,1.91211"
         style="font-size:44px;font-style:italic;fill:#a7a5a6;-inkscape-font-specification:ori1Uni Italic"
         id="path6041"
         inkscape:connector-curvature="0" />
      <path
         d="m 1707.1035,757.85696 4.1895,0 3.5234,20.45313 11.5156,-20.45313 4.1895,0 -13.6856,24.0625 -5.3281,0 -4.4043,-24.0625"
         style="font-size:44px;font-style:italic;fill:#a7a5a6;-inkscape-font-specification:ori1Uni Italic"
         id="path6043"
         inkscape:connector-curvature="0" />
      <path
         d="m 1751.1465,767.73978 c 0.043,-0.22916 0.072,-0.46548 0.086,-0.70899 0.029,-0.24347 0.043,-0.48696 0.043,-0.73047 0,-1.74738 -0.5157,-3.12954 -1.5469,-4.14648 -1.0169,-1.01691 -2.4063,-1.52537 -4.168,-1.52539 -1.9622,2e-5 -3.6953,0.62307 -5.1992,1.86914 -1.5039,1.23179 -2.6426,2.98634 -3.416,5.26367 l 14.2012,-0.0215 m 3.4375,3.09375 -18.3906,0 c -0.086,0.54428 -0.1433,0.97396 -0.1719,1.28906 -0.029,0.31511 -0.043,0.58725 -0.043,0.8164 0,1.9909 0.6087,3.53061 1.8262,4.61914 1.2317,1.08855 2.9648,1.63282 5.1992,1.63282 1.7187,0 3.3444,-0.19336 4.877,-0.58008 1.5325,-0.38672 2.9576,-0.95247 4.2754,-1.69727 l -0.752,3.91016 c -1.418,0.57292 -2.8861,1.0026 -4.4043,1.28906 -1.5039,0.28646 -3.0365,0.42969 -4.5977,0.42969 -3.3372,0 -5.9082,-0.79492 -7.7128,-2.38477 -1.7904,-1.60416 -2.6856,-3.87434 -2.6856,-6.81054 0,-2.5065 0.444,-4.83397 1.332,-6.98242 0.9024,-2.16275 2.2201,-4.08918 3.9532,-5.7793 1.1171,-1.05987 2.442,-1.87628 3.9746,-2.44922 1.5468,-0.57289 3.1868,-0.85935 4.9199,-0.85938 2.7213,3e-5 4.8841,0.81644 6.4883,2.44922 1.6184,1.63284 2.4277,3.82424 2.4277,6.57422 0,0.65887 -0.043,1.36786 -0.1289,2.12696 -0.086,0.7448 -0.2149,1.54688 -0.3867,2.40625"
         style="font-size:44px;font-style:italic;fill:#a7a5a6;-inkscape-font-specification:ori1Uni Italic"
         id="path6045"
         inkscape:connector-curvature="0" />
      <path
         d="m 1779.0547,758.56595 -0.752,3.73828 c -1.0456,-0.5729 -2.1484,-1.00258 -3.3086,-1.28906 -1.1601,-0.28644 -2.3561,-0.42967 -3.5878,-0.42969 -2.0769,2e-5 -3.7169,0.35809 -4.92,1.07422 -1.1888,0.70184 -1.7832,1.66147 -1.7832,2.8789 0,1.41799 1.3893,2.50653 4.168,3.26563 0.2148,0.0573 0.3724,0.10027 0.4727,0.1289 l 1.2675,0.38672 c 2.6354,0.73049 4.39,1.49676 5.2637,2.29883 0.888,0.8021 1.332,1.8978 1.332,3.28711 0,2.54949 -1.0169,4.62631 -3.0507,6.23047 -2.0196,1.60417 -4.6693,2.40625 -7.9493,2.40625 -1.2747,0 -2.6139,-0.12175 -4.0175,-0.36523 -1.4037,-0.24349 -2.9506,-0.62305 -4.6407,-1.13868 l 0.7735,-4.08203 c 1.4466,0.7448 2.8717,1.31055 4.2754,1.69727 1.4036,0.38672 2.7499,0.58008 4.039,0.58008 1.9336,0 3.502,-0.41537 4.7051,-1.2461 1.2174,-0.83072 1.8262,-1.88346 1.8262,-3.1582 0,-1.37499 -1.5899,-2.48502 -4.7696,-3.33008 l -0.4082,-0.10742 -1.3535,-0.34375 c -2.0052,-0.52994 -3.4733,-1.2246 -4.4043,-2.08399 -0.931,-0.87368 -1.3965,-1.9837 -1.3965,-3.33007 0,-2.56379 0.9597,-4.59764 2.8789,-6.10157 1.9336,-1.50388 4.5547,-2.25583 7.8633,-2.25586 1.3034,3e-5 2.571,0.10745 3.8028,0.32227 1.246,0.21487 2.4706,0.53713 3.6738,0.9668"
         style="font-size:44px;font-style:italic;fill:#a7a5a6;-inkscape-font-specification:ori1Uni Italic"
         id="path6047"
         inkscape:connector-curvature="0" />
      <path
         d="m 1798.6055,757.85696 -0.6016,3.07227 -7.8848,0 -2.5566,13.0625 c -0.086,0.48699 -0.1504,0.89519 -0.1934,1.22461 -0.043,0.32943 -0.064,0.58724 -0.064,0.77344 0,0.91667 0.2721,1.58268 0.8164,1.99804 0.5586,0.41537 1.4466,0.62305 2.6641,0.62305 l 3.9961,0 -0.6661,3.30859 -3.7812,0 c -2.349,0 -4.1035,-0.45833 -5.2637,-1.375 -1.1458,-0.91666 -1.7187,-2.30598 -1.7187,-4.16797 0,-0.32942 0.021,-0.68749 0.064,-1.07421 0.043,-0.40104 0.1074,-0.83789 0.1934,-1.31055 l 2.5566,-13.0625 -3.3515,0 0.623,-3.07227 3.2871,0 1.332,-6.83203 3.9532,0 -1.3106,6.83203 7.9063,0"
         style="font-size:44px;font-style:italic;fill:#a7a5a6;-inkscape-font-specification:ori1Uni Italic"
         id="path6049"
         inkscape:connector-curvature="0" />
      <path
         d="m 1818.4355,767.73978 c 0.043,-0.22916 0.072,-0.46548 0.086,-0.70899 0.029,-0.24347 0.043,-0.48696 0.043,-0.73047 -10e-5,-1.74738 -0.5157,-3.12954 -1.5469,-4.14648 -1.017,-1.01691 -2.4063,-1.52537 -4.168,-1.52539 -1.9622,2e-5 -3.6953,0.62307 -5.1992,1.86914 -1.5039,1.23179 -2.6426,2.98634 -3.416,5.26367 l 14.2011,-0.0215 m 3.4375,3.09375 -18.3906,0 c -0.086,0.54428 -0.1432,0.97396 -0.1719,1.28906 -0.029,0.31511 -0.043,0.58725 -0.043,0.8164 0,1.9909 0.6087,3.53061 1.8262,4.61914 1.2317,1.08855 2.9648,1.63282 5.1992,1.63282 1.7187,0 3.3444,-0.19336 4.8769,-0.58008 1.5326,-0.38672 2.9577,-0.95247 4.2754,-1.69727 l -0.7519,3.91016 c -1.418,0.57292 -2.8861,1.0026 -4.4043,1.28906 -1.504,0.28646 -3.0365,0.42969 -4.5977,0.42969 -3.3372,0 -5.9082,-0.79492 -7.7129,-2.38477 -1.7904,-1.60416 -2.6855,-3.87434 -2.6855,-6.81054 0,-2.5065 0.444,-4.83397 1.332,-6.98242 0.9023,-2.16275 2.22,-4.08918 3.9531,-5.7793 1.1172,-1.05987 2.4421,-1.87628 3.9746,-2.44922 1.5469,-0.57289 3.1869,-0.85935 4.92,-0.85938 2.7213,3e-5 4.884,0.81644 6.4882,2.44922 1.6185,1.63284 2.4277,3.82424 2.4278,6.57422 -10e-5,0.65887 -0.043,1.36786 -0.1289,2.12696 -0.086,0.7448 -0.2149,1.54688 -0.3868,2.40625"
         style="font-size:44px;font-style:italic;fill:#a7a5a6;-inkscape-font-specification:ori1Uni Italic"
         id="path6051"
         inkscape:connector-curvature="0" />
      <path
         d="m 1862.8652,767.39603 -2.8144,14.52343 -3.9746,0 2.8144,-14.37304 c 0.1289,-0.67317 0.2292,-1.26757 0.3008,-1.78321 0.072,-0.51561 0.1074,-0.92381 0.1074,-1.22461 0,-1.2031 -0.3795,-2.14125 -1.1386,-2.81445 -0.7592,-0.67316 -1.8191,-1.00974 -3.1797,-1.00977 -2.1198,3e-5 -3.946,0.70901 -5.4785,2.12696 -1.5326,1.40366 -2.5352,3.31577 -3.0079,5.73633 l -2.6425,13.34179 -3.9532,0 4.6621,-24.0625 3.9532,0 -0.7949,3.78125 c 1.1028,-1.3893 2.4277,-2.46352 3.9746,-3.22265 1.5468,-0.75909 3.1725,-1.13865 4.8769,-1.13868 2.1198,3e-5 3.7598,0.57295 4.9199,1.71875 1.1745,1.14586 1.7617,2.75719 1.7618,4.83399 -10e-5,0.51564 -0.036,1.06707 -0.1075,1.6543 -0.057,0.58725 -0.1504,1.22462 -0.2793,1.91211"
         style="font-size:44px;font-style:italic;fill:#a7a5a6;-inkscape-font-specification:ori1Uni Italic"
         id="path6053"
         inkscape:connector-curvature="0" />
      <path
         d="m 1889.9141,768.19095 -2.6856,13.72851 -3.9531,0 0.7305,-3.65234 c -1.1602,1.43229 -2.4851,2.50651 -3.9746,3.22266 -1.4753,0.70182 -3.1225,1.05273 -4.9415,1.05273 -2.0481,0 -3.7311,-0.62305 -5.0488,-1.86914 -1.3034,-1.26041 -1.9551,-2.87174 -1.9551,-4.83399 0,-2.80728 1.1172,-5.02733 3.3516,-6.66015 2.2487,-1.6328 5.3424,-2.4492 9.2813,-2.44922 l 5.5,0 0.2148,-1.05273 c 0.029,-0.11457 0.05,-0.23632 0.064,-0.36524 0.014,-0.14321 0.022,-0.35805 0.022,-0.64453 0,-1.27472 -0.5228,-2.263 -1.5683,-2.96484 -1.0313,-0.71613 -2.4851,-1.0742 -4.3614,-1.07422 -1.289,2e-5 -2.6139,0.16473 -3.9746,0.49414 -1.3463,0.32945 -2.7357,0.82359 -4.1679,1.48242 l 0.6875,-3.65234 c 1.4895,-0.55857 2.9433,-0.97394 4.3613,-1.2461 1.4323,-0.28643 2.8144,-0.42966 4.1465,-0.42969 2.8359,3e-5 4.9915,0.61591 6.4668,1.84766 1.4895,1.23179 2.2343,3.02216 2.2344,5.37109 -10e-5,0.47268 -0.036,1.03127 -0.1075,1.67579 -0.072,0.63022 -0.179,1.3034 -0.3222,2.01953 m -4.2754,1.63281 -3.9532,0 c -3.2369,10e-6 -5.636,0.43686 -7.1972,1.31055 -1.5469,0.85938 -2.3203,2.19857 -2.3203,4.01757 0,1.26043 0.3938,2.24871 1.1816,2.96485 0.8021,0.71615 1.9049,1.07422 3.3086,1.07422 2.1484,0 4.0247,-0.76628 5.6289,-2.29883 1.6042,-1.54687 2.6641,-3.60937 3.1797,-6.1875 l 0.1719,-0.88086"
         style="font-size:44px;font-style:italic;fill:#a7a5a6;-inkscape-font-specification:ori1Uni Italic"
         id="path6055"
         inkscape:connector-curvature="0" />
      <path
         d="m 1915.2656,758.56595 -0.7519,3.73828 c -1.0456,-0.5729 -2.1485,-1.00258 -3.3086,-1.28906 -1.1602,-0.28644 -2.3562,-0.42967 -3.5879,-0.42969 -2.0768,2e-5 -3.7168,0.35809 -4.9199,1.07422 -1.1888,0.70184 -1.7832,1.66147 -1.7832,2.8789 0,1.41799 1.3893,2.50653 4.1679,3.26563 0.2149,0.0573 0.3724,0.10027 0.4727,0.1289 l 1.2676,0.38672 c 2.6354,0.73049 4.3899,1.49676 5.2636,2.29883 0.888,0.8021 1.332,1.8978 1.3321,3.28711 -10e-5,2.54949 -1.017,4.62631 -3.0508,6.23047 -2.0196,1.60417 -4.6693,2.40625 -7.9492,2.40625 -1.2748,0 -2.614,-0.12175 -4.0176,-0.36523 -1.4037,-0.24349 -2.9505,-0.62305 -4.6406,-1.13868 l 0.7734,-4.08203 c 1.4466,0.7448 2.8717,1.31055 4.2754,1.69727 1.4036,0.38672 2.75,0.58008 4.0391,0.58008 1.9335,0 3.5019,-0.41537 4.705,-1.2461 1.2175,-0.83072 1.8262,-1.88346 1.8262,-3.1582 0,-1.37499 -1.5899,-2.48502 -4.7695,-3.33008 l -0.4082,-0.10742 -1.3535,-0.34375 c -2.0053,-0.52994 -3.4734,-1.2246 -4.4043,-2.08399 -0.931,-0.87368 -1.3965,-1.9837 -1.3965,-3.33007 0,-2.56379 0.9596,-4.59764 2.8789,-6.10157 1.9336,-1.50388 4.5547,-2.25583 7.8633,-2.25586 1.3033,3e-5 2.5709,0.10745 3.8027,0.32227 1.2461,0.21487 2.4707,0.53713 3.6738,0.9668"
         style="font-size:44px;font-style:italic;fill:#a7a5a6;-inkscape-font-specification:ori1Uni Italic"
         id="path6057"
         inkscape:connector-curvature="0" />
      <path
         d="m 1935.332,757.85696 18.7774,0 -0.709,3.60938 -18.1113,17.29492 14.9531,0 -0.6231,3.1582 -19.5293,0 0.709,-3.60937 18.1114,-17.29492 -14.2012,0 0.623,-3.15821"
         style="font-size:44px;font-style:italic;fill:#a7a5a6;-inkscape-font-specification:ori1Uni Italic"
         id="path6059"
         inkscape:connector-curvature="0" />
      <path
         d="m 1964.5078,782.54251 c -2.8216,0 -5.056,-0.86654 -6.7031,-2.59961 -1.6328,-1.74739 -2.4492,-4.12499 -2.4492,-7.13281 0,-1.74739 0.2793,-3.52343 0.8379,-5.32813 0.5729,-1.81899 1.3105,-3.34438 2.2129,-4.57617 1.4179,-1.91925 3.0006,-3.33722 4.748,-4.25391 1.7474,-0.91664 3.7239,-1.37497 5.9297,-1.375 2.7356,3e-5 4.9414,0.85224 6.6172,2.55665 1.6901,1.70444 2.5351,3.93165 2.5351,6.68164 0,1.90496 -0.2793,3.80274 -0.8379,5.69336 -0.5586,1.89063 -1.289,3.45899 -2.1914,4.70507 -1.4036,1.91928 -2.9792,3.33724 -4.7265,4.25391 -1.7474,0.91667 -3.7383,1.375 -5.9727,1.375 m -5.0488,-9.86133 c 0,2.17709 0.4511,3.8099 1.3535,4.89844 0.9167,1.07422 2.2988,1.61133 4.1465,1.61133 2.6497,0 4.8411,-1.15299 6.5742,-3.45899 1.7474,-2.3203 2.6211,-5.2565 2.6211,-8.80859 0,-2.07681 -0.4655,-3.64516 -1.3965,-4.70508 -0.931,-1.05987 -2.2988,-1.58982 -4.1035,-1.58984 -1.4896,2e-5 -2.8145,0.35093 -3.9746,1.05273 -1.1602,0.68752 -2.1986,1.74025 -3.1152,3.1582 -0.6732,1.05992 -1.196,2.2702 -1.5684,3.63086 -0.3581,1.36069 -0.5371,2.76434 -0.5371,4.21094"
         style="font-size:44px;font-style:italic;fill:#a7a5a6;-inkscape-font-specification:ori1Uni Italic"
         id="path6061"
         inkscape:connector-curvature="0" />
      <path
         d="m 2004.748,767.39603 -2.8144,14.52343 -3.9746,0 2.8144,-14.37304 c 0.1289,-0.67317 0.2292,-1.26757 0.3008,-1.78321 0.072,-0.51561 0.1074,-0.92381 0.1074,-1.22461 0,-1.2031 -0.3795,-2.14125 -1.1386,-2.81445 -0.7592,-0.67316 -1.8191,-1.00974 -3.1797,-1.00977 -2.1198,3e-5 -3.946,0.70901 -5.4785,2.12696 -1.5326,1.40366 -2.5352,3.31577 -3.0078,5.73633 l -2.6426,13.34179 -3.9531,0 4.6621,-24.0625 3.9531,0 -0.7949,3.78125 c 1.1028,-1.3893 2.4277,-2.46352 3.9746,-3.22265 1.5468,-0.75909 3.1725,-1.13865 4.8769,-1.13868 2.1198,3e-5 3.7598,0.57295 4.9199,1.71875 1.1745,1.14586 1.7617,2.75719 1.7618,4.83399 -10e-5,0.51564 -0.036,1.06707 -0.1075,1.6543 -0.057,0.58725 -0.1504,1.22462 -0.2793,1.91211"
         style="font-size:44px;font-style:italic;fill:#a7a5a6;-inkscape-font-specification:ori1Uni Italic"
         id="path6063"
         inkscape:connector-curvature="0" />
      <path
         d="m 2031.7969,768.19095 -2.6856,13.72851 -3.9531,0 0.7305,-3.65234 c -1.1602,1.43229 -2.4851,2.50651 -3.9746,3.22266 -1.4753,0.70182 -3.1224,1.05273 -4.9414,1.05273 -2.0482,0 -3.7312,-0.62305 -5.0489,-1.86914 -1.3034,-1.26041 -1.9551,-2.87174 -1.955,-4.83399 -1e-4,-2.80728 1.1171,-5.02733 3.3515,-6.66015 2.2487,-1.6328 5.3424,-2.4492 9.2813,-2.44922 l 5.5,0 0.2148,-1.05273 c 0.029,-0.11457 0.05,-0.23632 0.065,-0.36524 0.014,-0.14321 0.021,-0.35805 0.021,-0.64453 0,-1.27472 -0.5228,-2.263 -1.5683,-2.96484 -1.0313,-0.71613 -2.4851,-1.0742 -4.3613,-1.07422 -1.2891,2e-5 -2.614,0.16473 -3.9747,0.49414 -1.3463,0.32945 -2.7356,0.82359 -4.1679,1.48242 l 0.6875,-3.65234 c 1.4896,-0.55857 2.9433,-0.97394 4.3613,-1.2461 1.4323,-0.28643 2.8144,-0.42966 4.1465,-0.42969 2.8359,3e-5 4.9915,0.61591 6.4668,1.84766 1.4895,1.23179 2.2343,3.02216 2.2344,5.37109 -10e-5,0.47268 -0.036,1.03127 -0.1075,1.67579 -0.072,0.63022 -0.179,1.3034 -0.3222,2.01953 m -4.2754,1.63281 -3.9531,0 c -3.237,10e-6 -5.6361,0.43686 -7.1973,1.31055 -1.5469,0.85938 -2.3203,2.19857 -2.3203,4.01757 0,1.26043 0.3939,2.24871 1.1816,2.96485 0.8021,0.71615 1.905,1.07422 3.3086,1.07422 2.1484,0 4.0247,-0.76628 5.6289,-2.29883 1.6042,-1.54687 2.6641,-3.60937 3.1797,-6.1875 l 0.1719,-0.88086"
         style="font-size:44px;font-style:italic;fill:#a7a5a6;-inkscape-font-specification:ori1Uni Italic"
         id="path6065"
         inkscape:connector-curvature="0" />
      <path
         d="m 2057.1484,758.56595 -0.7519,3.73828 c -1.0456,-0.5729 -2.1485,-1.00258 -3.3086,-1.28906 -1.1602,-0.28644 -2.3561,-0.42967 -3.5879,-0.42969 -2.0768,2e-5 -3.7168,0.35809 -4.9199,1.07422 -1.1888,0.70184 -1.7832,1.66147 -1.7832,2.8789 0,1.41799 1.3893,2.50653 4.1679,3.26563 0.2149,0.0573 0.3724,0.10027 0.4727,0.1289 l 1.2676,0.38672 c 2.6354,0.73049 4.3899,1.49676 5.2637,2.29883 0.888,0.8021 1.332,1.8978 1.332,3.28711 0,2.54949 -1.017,4.62631 -3.0508,6.23047 -2.0195,1.60417 -4.6693,2.40625 -7.9492,2.40625 -1.2748,0 -2.614,-0.12175 -4.0176,-0.36523 -1.4036,-0.24349 -2.9505,-0.62305 -4.6406,-1.13868 l 0.7734,-4.08203 c 1.4466,0.7448 2.8718,1.31055 4.2754,1.69727 1.4036,0.38672 2.75,0.58008 4.0391,0.58008 1.9336,0 3.5019,-0.41537 4.705,-1.2461 1.2175,-0.83072 1.8262,-1.88346 1.8262,-3.1582 0,-1.37499 -1.5898,-2.48502 -4.7695,-3.33008 l -0.4082,-0.10742 -1.3535,-0.34375 c -2.0052,-0.52994 -3.4733,-1.2246 -4.4043,-2.08399 -0.931,-0.87368 -1.3965,-1.9837 -1.3965,-3.33007 0,-2.56379 0.9596,-4.59764 2.8789,-6.10157 1.9336,-1.50388 4.5547,-2.25583 7.8633,-2.25586 1.3033,3e-5 2.5709,0.10745 3.8027,0.32227 1.2461,0.21487 2.4707,0.53713 3.6738,0.9668"
         style="font-size:44px;font-style:italic;fill:#a7a5a6;-inkscape-font-specification:ori1Uni Italic"
         id="path6067"
         inkscape:connector-curvature="0" />
      <path
         d="m 2091.7168,761.50931 c -0.4011,-0.21483 -0.8594,-0.37954 -1.375,-0.49414 -0.5156,-0.11457 -1.0671,-0.17186 -1.6543,-0.17188 -2.1055,2e-5 -3.946,0.8021 -5.5215,2.40625 -1.5755,1.58986 -2.6211,3.72397 -3.1367,6.40234 l -2.4277,12.26758 -3.9532,0 4.7051,-24.0625 3.9531,0 -0.7519,3.73828 c 1.0455,-1.3893 2.2916,-2.45635 3.7383,-3.20117 1.4609,-0.74476 3.0149,-1.11716 4.6621,-1.11719 0.4296,3e-5 0.8522,0.0287 1.2676,0.0859 0.4153,0.043 0.8307,0.12177 1.2461,0.23633 l -0.752,3.91016"
         style="font-size:44px;font-style:italic;fill:#a7a5a6;-inkscape-font-specification:ori1Uni Italic"
         id="path6069"
         inkscape:connector-curvature="0" />
      <path
         d="m 2093.1777,772.3804 2.8145,-14.52344 3.9746,0 -2.8145,14.37305 c -0.1432,0.70183 -0.2506,1.30339 -0.3222,1.80469 -0.057,0.50131 -0.086,0.91667 -0.086,1.24609 0,1.21745 0.3724,2.16277 1.1172,2.83594 0.7448,0.65886 1.7975,0.98828 3.1582,0.98828 2.1198,0 3.9531,-0.71614 5.5,-2.14844 1.5469,-1.43228 2.5567,-3.35871 3.0293,-5.77929 l 2.6426,-13.32032 3.9531,0 -4.6621,24.0625 -3.9531,0 0.7949,-3.78125 c -1.1172,1.40365 -2.4492,2.49219 -3.9961,3.26563 -1.5325,0.75911 -3.1654,1.13867 -4.8984,1.13867 -2.1055,0 -3.7455,-0.57292 -4.9199,-1.71875 -1.1745,-1.16015 -1.7618,-2.77148 -1.7618,-4.83398 0,-0.42969 0.036,-0.96679 0.1075,-1.61133 0.072,-0.64453 0.179,-1.31054 0.3222,-1.99805"
         style="font-size:44px;font-style:italic;fill:#a7a5a6;-inkscape-font-specification:ori1Uni Italic"
         id="path6071"
         inkscape:connector-curvature="0" />
      <path
         d="m 2137.7793,761.50931 c -0.4011,-0.21483 -0.8594,-0.37954 -1.375,-0.49414 -0.5156,-0.11457 -1.0671,-0.17186 -1.6543,-0.17188 -2.1055,2e-5 -3.946,0.8021 -5.5215,2.40625 -1.5755,1.58986 -2.6211,3.72397 -3.1367,6.40234 l -2.4277,12.26758 -3.9532,0 4.7051,-24.0625 3.9531,0 -0.7519,3.73828 c 1.0455,-1.3893 2.2916,-2.45635 3.7383,-3.20117 1.4609,-0.74476 3.0149,-1.11716 4.6621,-1.11719 0.4296,3e-5 0.8522,0.0287 1.2676,0.0859 0.4153,0.043 0.8307,0.12177 1.2461,0.23633 l -0.752,3.91016"
         style="font-size:44px;font-style:italic;fill:#a7a5a6;-inkscape-font-specification:ori1Uni Italic"
         id="path6073"
         inkscape:connector-curvature="0" />
      <path
         d="m 2159.9297,768.19095 -2.6856,13.72851 -3.9531,0 0.7305,-3.65234 c -1.1602,1.43229 -2.4851,2.50651 -3.9746,3.22266 -1.4753,0.70182 -3.1224,1.05273 -4.9414,1.05273 -2.0482,0 -3.7312,-0.62305 -5.0489,-1.86914 -1.3033,-1.26041 -1.955,-2.87174 -1.955,-4.83399 0,-2.80728 1.1171,-5.02733 3.3515,-6.66015 2.2487,-1.6328 5.3425,-2.4492 9.2813,-2.44922 l 5.5,0 0.2148,-1.05273 c 0.029,-0.11457 0.05,-0.23632 0.064,-0.36524 0.014,-0.14321 0.021,-0.35805 0.021,-0.64453 -1e-4,-1.27472 -0.5228,-2.263 -1.5684,-2.96484 -1.0313,-0.71613 -2.485,-1.0742 -4.3613,-1.07422 -1.2891,2e-5 -2.614,0.16473 -3.9746,0.49414 -1.3464,0.32945 -2.7357,0.82359 -4.168,1.48242 l 0.6875,-3.65234 c 1.4896,-0.55857 2.9433,-0.97394 4.3613,-1.2461 1.4323,-0.28643 2.8145,-0.42966 4.1465,-0.42969 2.8359,3e-5 4.9915,0.61591 6.4668,1.84766 1.4896,1.23179 2.2344,3.02216 2.2344,5.37109 0,0.47268 -0.036,1.03127 -0.1074,1.67579 -0.072,0.63022 -0.1791,1.3034 -0.3223,2.01953 m -4.2754,1.63281 -3.9531,0 c -3.237,10e-6 -5.6361,0.43686 -7.1973,1.31055 -1.5469,0.85938 -2.3203,2.19857 -2.3203,4.01757 0,1.26043 0.3939,2.24871 1.1816,2.96485 0.8021,0.71615 1.905,1.07422 3.3086,1.07422 2.1485,0 4.0248,-0.76628 5.6289,-2.29883 1.6042,-1.54687 2.6641,-3.60937 3.1797,-6.1875 l 0.1719,-0.88086"
         style="font-size:44px;font-style:italic;fill:#a7a5a6;-inkscape-font-specification:ori1Uni Italic"
         id="path6075"
         inkscape:connector-curvature="0" />
      <path
         d="m 2171.3379,748.48978 3.9531,0 -0.9668,5.00585 -3.9531,0 0.9668,-5.00585 m -1.8047,9.36718 3.9531,0 -4.705,24.0625 -3.9532,0 4.7051,-24.0625"
         style="font-size:44px;font-style:italic;fill:#a7a5a6;-inkscape-font-specification:ori1Uni Italic"
         id="path6077"
         inkscape:connector-curvature="0" />
      <path
         d="m 2197.4844,758.56595 -0.752,3.73828 c -1.0456,-0.5729 -2.1484,-1.00258 -3.3086,-1.28906 -1.1601,-0.28644 -2.3561,-0.42967 -3.5879,-0.42969 -2.0768,2e-5 -3.7168,0.35809 -4.9199,1.07422 -1.1888,0.70184 -1.7832,1.66147 -1.7832,2.8789 0,1.41799 1.3893,2.50653 4.168,3.26563 0.2148,0.0573 0.3724,0.10027 0.4726,0.1289 l 1.2676,0.38672 c 2.6354,0.73049 4.39,1.49676 5.2637,2.29883 0.888,0.8021 1.332,1.8978 1.332,3.28711 0,2.54949 -1.0169,4.62631 -3.0508,6.23047 -2.0195,1.60417 -4.6692,2.40625 -7.9492,2.40625 -1.2747,0 -2.6139,-0.12175 -4.0176,-0.36523 -1.4036,-0.24349 -2.9505,-0.62305 -4.6406,-1.13868 l 0.7735,-4.08203 c 1.4466,0.7448 2.8717,1.31055 4.2753,1.69727 1.4037,0.38672 2.75,0.58008 4.0391,0.58008 1.9336,0 3.5019,-0.41537 4.7051,-1.2461 1.2174,-0.83072 1.8261,-1.88346 1.8262,-3.1582 -10e-5,-1.37499 -1.5899,-2.48502 -4.7696,-3.33008 l -0.4082,-0.10742 -1.3535,-0.34375 c -2.0052,-0.52994 -3.4733,-1.2246 -4.4043,-2.08399 -0.931,-0.87368 -1.3965,-1.9837 -1.3965,-3.33007 0,-2.56379 0.9597,-4.59764 2.8789,-6.10157 1.9336,-1.50388 4.5547,-2.25583 7.8633,-2.25586 1.3034,3e-5 2.571,0.10745 3.8027,0.32227 1.2461,0.21487 2.4707,0.53713 3.6739,0.9668"
         style="font-size:44px;font-style:italic;fill:#a7a5a6;-inkscape-font-specification:ori1Uni Italic"
         id="path6079"
         inkscape:connector-curvature="0" />
    </g>
    <g
       transform="matrix(0.16884921,0,0,0.16884921,-523.22497,715.21331)"
       style="font-size:40px;font-style:normal;font-variant:normal;font-weight:500;font-stretch:normal;line-height:125%;letter-spacing:0px;word-spacing:0px;fill:#a7a5a6;fill-opacity:1;stroke:none;font-family:ori1Uni;-inkscape-font-specification:ori1Uni Medium"
       id="flowRoot3765">
      <path
         d="m 1505.9482,408.20705 -17.2573,0 0,10.45898 16.5352,0 0,4.38281 -16.5352,0 0,17.85498 -4.9306,0 0,-37.07959 22.1879,0 0,4.38282"
         style="font-size:56px;font-weight:normal;fill:#a7a5a6;font-family:Tahoma;-inkscape-font-specification:Tahoma"
         id="path5940"
         inkscape:connector-curvature="0" />
      <path
         d="m 1531.6475,440.90382 -4.6817,0 0,-3.08789 c -1.4443,1.26172 -2.814,2.22461 -4.1089,2.88867 -1.2949,0.64746 -2.7392,0.97119 -4.333,0.9712 -1.2119,-10e-6 -2.3574,-0.19922 -3.4365,-0.59766 -1.0625,-0.39844 -1.9922,-1.0293 -2.7891,-1.89258 -0.7968,-0.86328 -1.4194,-1.95068 -1.8676,-3.26221 -0.4317,-1.31151 -0.6475,-2.90526 -0.6475,-4.78125 l 0,-18.0542 4.6816,0 0,15.8379 c 0,1.47755 0.05,2.70606 0.1495,3.68554 0.1162,0.9629 0.3652,1.80958 0.747,2.54004 0.3819,0.71387 0.8965,1.23682 1.544,1.56885 0.664,0.33203 1.6103,0.49805 2.8388,0.49805 1.1455,0 2.3657,-0.32373 3.6607,-0.9712 1.2949,-0.64745 2.4819,-1.44433 3.561,-2.39062 l 0,-20.76856 4.6817,0 0,27.81592"
         style="font-size:51px;font-weight:normal;fill:#a7a5a6;font-family:Tahoma;-inkscape-font-specification:Tahoma"
         id="path5942"
         inkscape:connector-curvature="0" />
      <path
         d="m 1560.335,440.90382 -4.6817,0 0,-15.83789 c 0,-1.2783 -0.066,-2.46531 -0.1992,-3.56103 -0.1162,-1.11229 -0.3487,-2.00047 -0.6973,-2.66455 -0.3818,-0.69725 -0.9131,-1.21189 -1.5937,-1.54395 -0.6807,-0.34861 -1.6104,-0.52292 -2.7891,-0.52295 -1.1621,3e-5 -2.3657,0.31546 -3.6108,0.94629 -1.2285,0.61428 -2.4322,1.41946 -3.6109,2.41553 l 0,20.76855 -4.6816,0 0,-27.81592 4.6816,0 0,3.0879 c 1.3946,-1.2451 2.7725,-2.19968 4.1338,-2.86377 1.3613,-0.66404 2.7974,-0.99607 4.3081,-0.9961 2.7393,3e-5 4.8809,0.90482 6.4248,2.71436 1.544,1.79299 2.3159,4.39943 2.316,7.81933 l 0,18.0542"
         style="font-size:51px;font-weight:normal;fill:#a7a5a6;font-family:Tahoma;-inkscape-font-specification:Tahoma"
         id="path5944"
         inkscape:connector-curvature="0" />
      <path
         d="m 1588.375,440.90382 -4.6816,0 0,-2.83886 c -0.7305,0.61426 -1.3614,1.1206 -1.8926,1.51904 -0.5313,0.39844 -1.1538,0.76367 -1.8677,1.0957 -0.6641,0.31543 -1.353,0.55615 -2.0669,0.72217 -0.7139,0.18262 -1.5439,0.27392 -2.4902,0.27393 -1.5108,-10e-6 -2.9136,-0.31543 -4.2085,-0.94629 -1.2783,-0.63086 -2.3657,-1.55225 -3.2622,-2.76416 -0.9131,-1.22852 -1.6187,-2.73926 -2.1167,-4.53223 -0.4981,-1.80956 -0.7471,-3.88475 -0.7471,-6.22559 0,-2.44041 0.3154,-4.54881 0.9463,-6.32519 0.6308,-1.79295 1.5024,-3.35349 2.6147,-4.68164 1.0127,-1.21189 2.2329,-2.15818 3.6607,-2.83887 1.4443,-0.69724 2.9551,-1.04587 4.5322,-1.0459 1.3945,3e-5 2.6064,0.15775 3.6358,0.47315 1.0292,0.29885 2.1166,0.772 3.2622,1.41943 l 0,-12.05273 4.6816,0 0,38.74804 m -4.6816,-6.77343 0,-16.03711 c -1.1622,-0.56443 -2.2081,-0.95457 -3.1377,-1.17041 -0.9131,-0.2158 -1.9092,-0.32371 -2.9883,-0.32373 -2.4073,2e-5 -4.2915,0.9048 -5.6528,2.71435 -1.3614,1.79299 -2.042,4.39113 -2.042,7.79443 0,3.27052 0.5229,5.77736 1.5688,7.52051 1.0459,1.72657 2.7227,2.58985 5.0303,2.58985 1.2285,0 2.4653,-0.27393 3.7104,-0.82178 1.2451,-0.56445 2.4155,-1.31982 3.5113,-2.26611"
         style="font-size:51px;font-weight:normal;fill:#a7a5a6;font-family:Tahoma;-inkscape-font-specification:Tahoma"
         id="path5946"
         inkscape:connector-curvature="0" />
      <path
         d="m 1618.0337,427.00832 c 0,4.68164 -1.1289,8.30078 -3.3867,10.85742 -2.2579,2.54004 -5.2627,3.81005 -9.0147,3.81006 -3.8681,-10e-6 -6.9145,-1.31153 -9.1391,-3.93457 -2.208,-2.63965 -3.312,-6.21728 -3.312,-10.73291 0,-4.64842 1.1372,-8.25926 3.4116,-10.83252 2.291,-2.57322 5.3042,-3.85984 9.0395,-3.85987 3.752,3e-5 6.7568,1.28665 9.0147,3.85987 2.2578,2.55666 3.3867,6.16749 3.3867,10.83252 m -4.8311,0 c 0,-3.60253 -0.6557,-6.27538 -1.9672,-8.01856 -1.3116,-1.75974 -3.1793,-2.63962 -5.6031,-2.63965 -2.4404,3e-5 -4.3247,0.87991 -5.6528,2.63965 -1.3115,1.74318 -1.9673,4.41603 -1.9673,8.01856 0,3.48633 0.6558,6.13428 1.9673,7.94384 1.3281,1.79298 3.2124,2.68946 5.6528,2.68946 2.4072,0 4.2666,-0.87988 5.5781,-2.63965 1.3282,-1.77636 1.9922,-4.44091 1.9922,-7.99365"
         style="font-size:51px;font-weight:normal;fill:#a7a5a6;font-family:Tahoma;-inkscape-font-specification:Tahoma"
         id="path5948"
         inkscape:connector-curvature="0" />
      <path
         d="m 1639.1509,440.90382 0,-37.07959 23.1841,0 0,4.38282 -18.2535,0 0,10.16015 17.0083,0 0,4.38281 -17.0083,0 0,13.771 18.2535,0 0,4.38281 -23.1841,0"
         style="font-size:51px;font-weight:normal;fill:#a7a5a6;font-family:Tahoma;-inkscape-font-specification:Tahoma"
         id="path5950"
         inkscape:connector-curvature="0" />
      <path
         d="m 1689.0303,440.90382 -4.6817,0 0,-3.08789 c -1.4443,1.26172 -2.8139,2.22461 -4.1089,2.88867 -1.2949,0.64746 -2.7392,0.97119 -4.333,0.9712 -1.2119,-10e-6 -2.3574,-0.19922 -3.4365,-0.59766 -1.0625,-0.39844 -1.9922,-1.0293 -2.789,-1.89258 -0.7969,-0.86328 -1.4195,-1.95068 -1.8677,-3.26221 -0.4317,-1.31151 -0.6475,-2.90526 -0.6475,-4.78125 l 0,-18.0542 4.6817,0 0,15.8379 c -10e-5,1.47755 0.05,2.70606 0.1494,3.68554 0.1162,0.9629 0.3652,1.80958 0.747,2.54004 0.3819,0.71387 0.8965,1.23682 1.544,1.56885 0.664,0.33203 1.6103,0.49805 2.8389,0.49805 1.1454,0 2.3657,-0.32373 3.6606,-0.9712 1.2949,-0.64745 2.4819,-1.44433 3.561,-2.39062 l 0,-20.76856 4.6817,0 0,27.81592"
         style="font-size:51px;font-weight:normal;fill:#a7a5a6;font-family:Tahoma;-inkscape-font-specification:Tahoma"
         id="path5952"
         inkscape:connector-curvature="0" />
      <path
         d="m 1710.5957,418.11818 -0.249,0 c -0.3487,-0.0996 -0.7222,-0.15769 -1.1206,-0.17432 -0.3819,-0.0332 -0.8467,-0.0498 -1.3946,-0.0498 -1.2617,2e-5 -2.5151,0.27395 -3.7602,0.82177 -1.2451,0.54788 -2.4238,1.36135 -3.5361,2.44043 l 0,19.74756 -4.6817,0 0,-27.81592 4.6817,0 0,4.13379 c 1.7099,-1.51071 3.1957,-2.57321 4.4575,-3.1875 1.2783,-0.63083 2.5151,-0.94626 3.7104,-0.94629 0.4815,3e-5 0.8384,0.0166 1.0708,0.0498 0.249,0.0166 0.523,0.0498 0.8218,0.0996 l 0,4.88086"
         style="font-size:51px;font-weight:normal;fill:#a7a5a6;font-family:Tahoma;-inkscape-font-specification:Tahoma"
         id="path5954"
         inkscape:connector-curvature="0" />
      <path
         d="m 1736.9673,427.00832 c 0,4.68164 -1.1289,8.30078 -3.3867,10.85742 -2.2579,2.54004 -5.2627,3.81005 -9.0147,3.81006 -3.8682,-10e-6 -6.9145,-1.31153 -9.1391,-3.93457 -2.2081,-2.63965 -3.3121,-6.21728 -3.3121,-10.73291 0,-4.64842 1.1373,-8.25926 3.4117,-10.83252 2.291,-2.57322 5.3042,-3.85984 9.0395,-3.85987 3.752,3e-5 6.7568,1.28665 9.0147,3.85987 2.2578,2.55666 3.3867,6.16749 3.3867,10.83252 m -4.8311,0 c 0,-3.60253 -0.6558,-6.27538 -1.9673,-8.01856 -1.3115,-1.75974 -3.1792,-2.63962 -5.603,-2.63965 -2.4404,3e-5 -4.3247,0.87991 -5.6528,2.63965 -1.3115,1.74318 -1.9673,4.41603 -1.9673,8.01856 0,3.48633 0.6558,6.13428 1.9673,7.94384 1.3281,1.79298 3.2124,2.68946 5.6528,2.68946 2.4072,0 4.2666,-0.87988 5.5781,-2.63965 1.3281,-1.77636 1.9922,-4.44091 1.9922,-7.99365"
         style="font-size:51px;font-weight:normal;fill:#a7a5a6;font-family:Tahoma;-inkscape-font-specification:Tahoma"
         id="path5956"
         inkscape:connector-curvature="0" />
      <path
         d="m 1765.1069,426.26124 c 0,4.63185 -1.1123,8.32569 -3.3369,11.08155 -2.208,2.73926 -5.0054,4.10888 -8.3921,4.10888 -1.3779,0 -2.5981,-0.15771 -3.6606,-0.47314 -1.0625,-0.31543 -2.1499,-0.80518 -3.2622,-1.46924 l 0,11.6543 -4.6817,0 0,-38.07569 4.6817,0 0,2.91358 c 1.1621,-1.04587 2.4487,-1.91745 3.8598,-2.61475 1.4278,-0.71384 2.98,-1.07077 4.6568,-1.0708 3.1875,3e-5 5.6694,1.26175 7.4458,3.78516 1.7929,2.52346 2.6894,5.91017 2.6894,10.16015 m -4.831,0.52295 c 0,-3.17088 -0.5064,-5.62791 -1.5191,-7.37109 -1.0127,-1.75974 -2.6562,-2.63962 -4.9306,-2.63965 -1.3282,3e-5 -2.6148,0.29885 -3.8599,0.89649 -1.2285,0.58107 -2.3989,1.33644 -3.5112,2.26611 l 0,15.76318 c 1.2285,0.59766 2.2744,1.0044 3.1377,1.22022 0.8798,0.21582 1.8842,0.32373 3.0132,0.32373 2.4238,0 4.308,-0.88818 5.6528,-2.66455 1.3447,-1.77636 2.0171,-4.3745 2.0171,-7.79444"
         style="font-size:51px;font-weight:normal;fill:#a7a5a6;font-family:Tahoma;-inkscape-font-specification:Tahoma"
         id="path5958"
         inkscape:connector-curvature="0" />
      <path
         d="m 1782.0405,441.55128 c -4.4326,0 -7.8774,-1.24511 -10.3344,-3.73535 -2.4405,-2.50683 -3.6607,-6.05956 -3.6607,-10.6582 0,-4.53221 1.187,-8.13474 3.561,-10.80762 2.3741,-2.68942 5.4786,-4.03415 9.3135,-4.03418 1.7266,3e-5 3.2539,0.24905 4.5821,0.74707 1.3281,0.49808 2.4902,1.27835 3.4863,2.34082 0.9961,1.06253 1.7597,2.36575 2.291,3.90967 0.5312,1.52736 0.7968,3.40334 0.7969,5.62793 l 0,2.54004 -19.2744,0 c 0,3.23731 0.8134,5.71094 2.4404,7.4209 1.6269,1.70996 3.8764,2.56494 6.7485,2.56494 1.0293,0 2.0337,-0.11621 3.0132,-0.34863 0.9961,-0.23242 1.8926,-0.53125 2.6895,-0.89649 0.8466,-0.38183 1.5605,-0.74706 2.1416,-1.0957 0.581,-0.36523 1.0624,-0.70556 1.4443,-1.021 l 0.2739,0 0,5.10498 c -0.5479,0.21583 -1.2285,0.48975 -2.042,0.82178 -0.8135,0.31543 -1.5439,0.56445 -2.1914,0.74707 -0.9131,0.24902 -1.7432,0.43994 -2.4902,0.57276 -0.7305,0.13281 -1.6602,0.19921 -2.7891,0.19921 m 5.4785,-17.65576 c -0.033,-1.2617 -0.1826,-2.3491 -0.4482,-3.2622 -0.2656,-0.91307 -0.6475,-1.68504 -1.1455,-2.31592 -0.5479,-0.69725 -1.2534,-1.22849 -2.1167,-1.59375 -0.8467,-0.36521 -1.9009,-0.54783 -3.1626,-0.54785 -1.2451,2e-5 -2.3076,0.19094 -3.1875,0.57275 -0.8633,0.36526 -1.6519,0.90481 -2.3657,1.61865 -0.6973,0.73049 -1.2285,1.54397 -1.5938,2.44043 -0.3652,0.8799 -0.5976,1.9092 -0.6972,3.08789 l 14.7172,0"
         style="font-size:51px;font-weight:normal;fill:#a7a5a6;font-family:Tahoma;-inkscape-font-specification:Tahoma"
         id="path5960"
         inkscape:connector-curvature="0" />
      <path
         d="m 1818.5225,440.90382 -4.6817,0 0,-3.08789 c -1.4443,1.26172 -2.814,2.22461 -4.1089,2.88867 -1.2949,0.64746 -2.7392,0.97119 -4.333,0.9712 -1.2119,-10e-6 -2.3574,-0.19922 -3.4365,-0.59766 -1.0625,-0.39844 -1.9922,-1.0293 -2.7891,-1.89258 -0.7968,-0.86328 -1.4194,-1.95068 -1.8676,-3.26221 -0.4317,-1.31151 -0.6475,-2.90526 -0.6475,-4.78125 l 0,-18.0542 4.6816,0 0,15.8379 c 0,1.47755 0.05,2.70606 0.1495,3.68554 0.1162,0.9629 0.3652,1.80958 0.747,2.54004 0.3819,0.71387 0.8965,1.23682 1.544,1.56885 0.664,0.33203 1.6103,0.49805 2.8388,0.49805 1.1455,0 2.3657,-0.32373 3.6607,-0.9712 1.2949,-0.64745 2.4819,-1.44433 3.561,-2.39062 l 0,-20.76856 4.6817,0 0,27.81592"
         style="font-size:51px;font-weight:normal;fill:#a7a5a6;font-family:Tahoma;-inkscape-font-specification:Tahoma"
         id="path5962"
         inkscape:connector-curvature="0" />
      <path
         d="m 1837.6475,440.90382 12.5009,-37.07959 6.0762,0 12.501,37.07959 -5.2046,0 -3.3618,-10.35937 -14.1695,0 -3.3618,10.35937 -4.9804,0 m 21.1421,-14.56787 -5.7276,-17.48144 -5.7026,17.48144 11.4302,0"
         style="font-size:51px;font-weight:normal;fill:#a7a5a6;font-family:Tahoma;-inkscape-font-specification:Tahoma"
         id="path5964"
         inkscape:connector-curvature="0" />
      <path
         d="m 1888.5977,433.35841 0,-15.26513 c -1.1622,-0.56443 -2.2413,-0.96287 -3.2373,-1.19532 -0.9796,-0.249 -1.959,-0.37351 -2.9385,-0.37353 -2.3741,2e-5 -4.2417,0.8716 -5.6031,2.61474 -1.3613,1.74319 -2.042,4.24172 -2.0419,7.49561 -10e-5,3.0879 0.5146,5.43702 1.5439,7.04736 1.0459,1.61036 2.7309,2.41554 5.0552,2.41553 1.2119,1e-5 2.457,-0.24072 3.7353,-0.72217 1.2949,-0.48144 2.457,-1.1538 3.4864,-2.01709 m -15.7383,12.00293 c 0.3154,0.13281 0.7802,0.30713 1.3945,0.52295 0.6143,0.23242 1.3115,0.44824 2.0918,0.64746 0.8633,0.21582 1.6601,0.39013 2.3906,0.52295 0.7305,0.13281 1.5274,0.19921 2.3907,0.19922 1.4443,-10e-6 2.6645,-0.19092 3.6606,-0.57275 1.0127,-0.38184 1.8012,-0.91309 2.3657,-1.59375 0.5313,-0.68067 0.9048,-1.46924 1.1206,-2.36573 0.2158,-0.89648 0.3237,-1.91748 0.3238,-3.06298 l 0,-2.44043 c -1.2618,1.0957 -2.4986,1.90918 -3.7105,2.44043 -1.2119,0.51464 -2.731,0.77197 -4.5571,0.77197 -3.1709,0 -5.6944,-1.17871 -7.5703,-3.53613 -1.876,-2.35742 -2.814,-5.74414 -2.814,-10.16016 0,-2.3076 0.3237,-4.34959 0.9712,-6.12598 0.6475,-1.79294 1.519,-3.31199 2.6147,-4.55713 1.0459,-1.19528 2.2827,-2.11667 3.7105,-2.76416 1.4277,-0.64743 2.9052,-0.97116 4.4326,-0.97119 1.4443,3e-5 2.6894,0.17435 3.7354,0.52295 1.0624,0.33206 2.1249,0.81351 3.1875,1.44434 l 0.2739,-1.19532 4.4077,0 0,24.65333 c 0,4.71484 -1.0293,8.17626 -3.0879,10.38427 -2.0586,2.208 -5.2046,3.312 -9.438,3.31201 -1.3613,-10e-6 -2.7559,-0.10792 -4.1836,-0.32373 -1.4111,-0.21583 -2.7309,-0.50635 -3.9594,-0.87158 l 0,-4.88086 0.249,0"
         style="font-size:51px;font-weight:normal;fill:#a7a5a6;font-family:Tahoma;-inkscape-font-specification:Tahoma"
         id="path5966"
         inkscape:connector-curvature="0" />
      <path
         d="m 1914.7949,418.11818 -0.249,0 c -0.3487,-0.0996 -0.7222,-0.15769 -1.1206,-0.17432 -0.3819,-0.0332 -0.8467,-0.0498 -1.3945,-0.0498 -1.2618,2e-5 -2.5152,0.27395 -3.7603,0.82177 -1.2451,0.54788 -2.4238,1.36135 -3.5361,2.44043 l 0,19.74756 -4.6817,0 0,-27.81592 4.6817,0 0,4.13379 c 1.7099,-1.51071 3.1958,-2.57321 4.4575,-3.1875 1.2783,-0.63083 2.5151,-0.94626 3.7104,-0.94629 0.4815,3e-5 0.8384,0.0166 1.0708,0.0498 0.2491,0.0166 0.523,0.0498 0.8218,0.0996 l 0,4.88086"
         style="font-size:51px;font-weight:normal;fill:#a7a5a6;font-family:Tahoma;-inkscape-font-specification:Tahoma"
         id="path5968"
         inkscape:connector-curvature="0" />
      <path
         d="m 1923.2617,440.90382 -4.6816,0 0,-27.81592 4.6816,0 0,27.81592 m 5.3291,-41.73633 -6.7983,9.31348 -3.7105,0 4.4576,-9.31348 6.0512,0"
         style="font-size:51px;font-weight:normal;fill:#a7a5a6;font-family:Tahoma;-inkscape-font-specification:Tahoma"
         id="path5970"
         inkscape:connector-curvature="0" />
      <path
         d="m 1941.1914,441.52638 c -1.9092,0 -3.6606,-0.29053 -5.2544,-0.87158 -1.5937,-0.59766 -2.9634,-1.49414 -4.1089,-2.68945 -1.1455,-1.19531 -2.0337,-2.69775 -2.6645,-4.50733 -0.6309,-1.82616 -0.9463,-3.96776 -0.9463,-6.4248 0,-2.44042 0.3237,-4.54881 0.9712,-6.3252 0.664,-1.77634 1.5439,-3.27048 2.6396,-4.48242 1.0957,-1.21189 2.457,-2.14157 4.084,-2.78906 1.6436,-0.66404 3.4033,-0.99607 5.2793,-0.9961 1.5273,3e-5 2.9966,0.21585 4.4077,0.64746 1.4277,0.43167 2.6978,0.92972 3.8101,1.49415 l 0,5.25439 -0.2739,0 c -0.3321,-0.28221 -0.7637,-0.60594 -1.295,-0.97119 -0.5146,-0.36521 -1.1455,-0.73875 -1.8925,-1.12061 -0.6475,-0.332 -1.4112,-0.62253 -2.2911,-0.87158 -0.8799,-0.249 -1.7265,-0.37351 -2.54,-0.37353 -2.4238,2e-5 -4.3745,0.92141 -5.8521,2.76416 -1.4609,1.82619 -2.1914,4.41603 -2.1914,7.76953 0,3.28712 0.7056,5.85206 2.1167,7.69482 1.4278,1.82618 3.4033,2.73926 5.9268,2.73926 1.5273,0 2.98,-0.31543 4.3579,-0.94629 1.3779,-0.63085 2.5981,-1.44433 3.6607,-2.44043 l 0.2739,0 0,5.2544 c -0.4649,0.21582 -1.0459,0.48144 -1.7432,0.79687 -0.6973,0.29883 -1.3281,0.52295 -1.8926,0.67236 -0.7969,0.23243 -1.5107,0.40674 -2.1416,0.52295 -0.6308,0.13281 -1.4443,0.19922 -2.4404,0.19922"
         style="font-size:51px;font-weight:normal;fill:#a7a5a6;font-family:Tahoma;-inkscape-font-specification:Tahoma"
         id="path5972"
         inkscape:connector-curvature="0" />
      <path
         d="m 1976.5278,427.00832 c 0,4.68164 -1.1289,8.30078 -3.3867,10.85742 -2.2578,2.54004 -5.2627,3.81005 -9.0146,3.81006 -3.8682,-10e-6 -6.9146,-1.31153 -9.1392,-3.93457 -2.208,-2.63965 -3.312,-6.21728 -3.312,-10.73291 0,-4.64842 1.1372,-8.25926 3.4116,-10.83252 2.291,-2.57322 5.3042,-3.85984 9.0396,-3.85987 3.7519,3e-5 6.7568,1.28665 9.0146,3.85987 2.2578,2.55666 3.3867,6.16749 3.3867,10.83252 m -4.831,0 c 0,-3.60253 -0.6558,-6.27538 -1.9673,-8.01856 -1.3115,-1.75974 -3.1792,-2.63962 -5.603,-2.63965 -2.4405,3e-5 -4.3248,0.87991 -5.6529,2.63965 -1.3115,1.74318 -1.9673,4.41603 -1.9673,8.01856 0,3.48633 0.6558,6.13428 1.9673,7.94384 1.3281,1.79298 3.2124,2.68946 5.6529,2.68946 2.4072,0 4.2665,-0.87988 5.5781,-2.63965 1.3281,-1.77636 1.9922,-4.44091 1.9922,-7.99365"
         style="font-size:51px;font-weight:normal;fill:#a7a5a6;font-family:Tahoma;-inkscape-font-specification:Tahoma"
         id="path5974"
         inkscape:connector-curvature="0" />
      <path
         d="m 1986.1152,440.90382 -4.6816,0 0,-38.74804 4.6816,0 0,38.74804"
         style="font-size:51px;font-weight:normal;fill:#a7a5a6;font-family:Tahoma;-inkscape-font-specification:Tahoma"
         id="path5976"
         inkscape:connector-curvature="0" />
      <path
         d="m 2008.5273,434.05568 0,-7.71973 c -1.1123,0.0996 -2.5234,0.24074 -4.2334,0.42334 -1.6933,0.16603 -3.063,0.40675 -4.1088,0.72217 -1.2452,0.38185 -2.2745,0.9712 -3.0879,1.76807 -0.8135,0.78028 -1.2203,1.87598 -1.2202,3.28711 -10e-5,1.59375 0.4482,2.79736 1.3447,3.61084 0.8965,0.81348 2.208,1.22021 3.9346,1.22021 1.4775,0 2.8139,-0.31543 4.0092,-0.94629 1.1953,-0.64745 2.3159,-1.43603 3.3618,-2.36572 m 0,3.88476 c -0.3818,0.28223 -0.8965,0.68067 -1.5439,1.19532 -0.6309,0.49804 -1.2451,0.89648 -1.8428,1.19531 -0.8301,0.43164 -1.6352,0.76367 -2.4155,0.99609 -0.7637,0.23242 -1.8428,0.34863 -3.2373,0.34864 -1.1455,-10e-6 -2.2329,-0.21583 -3.2622,-0.64747 -1.0293,-0.43164 -1.9341,-1.03759 -2.7144,-1.81787 -0.747,-0.76367 -1.3447,-1.70165 -1.7929,-2.81396 -0.4483,-1.1289 -0.6724,-2.31591 -0.6724,-3.56104 0,-1.92577 0.4067,-3.56102 1.2202,-4.90576 0.8135,-1.36131 2.1001,-2.44041 3.8599,-3.2373 1.5605,-0.71385 3.4033,-1.2036 5.5283,-1.46924 2.125,-0.28221 4.416,-0.48973 6.873,-0.62256 l 0,-0.89648 c 0,-1.09569 -0.166,-1.97557 -0.498,-2.63965 -0.3321,-0.68064 -0.7969,-1.20359 -1.3945,-1.56885 -0.5977,-0.38181 -1.3282,-0.63084 -2.1914,-0.74707 -0.8633,-0.13279 -1.7515,-0.1992 -2.6646,-0.19922 -1.0791,2e-5 -2.3491,0.16604 -3.81,0.49805 -1.461,0.31545 -2.9219,0.78029 -4.3829,1.39453 l -0.2739,0 0,-4.75635 c 0.8633,-0.24899 2.1001,-0.52292 3.7105,-0.82178 1.6103,-0.2988 3.2041,-0.44821 4.7812,-0.44824 1.9092,3e-5 3.5195,0.14944 4.8311,0.44824 1.3115,0.29886 2.4902,0.83841 3.5361,1.61866 1.0127,0.76369 1.768,1.75149 2.2661,2.96338 0.498,1.21193 0.7471,2.68947 0.7471,4.43261 l 0,19.02539 -4.6568,0 0,-2.96338"
         style="font-size:51px;font-weight:normal;fill:#a7a5a6;font-family:Tahoma;-inkscape-font-specification:Tahoma"
         id="path5978"
         inkscape:connector-curvature="0" />
      <path
         d="m 1504.8027,504.65382 -4.6816,0 0,-2.83886 c -0.7305,0.61426 -1.3614,1.1206 -1.8926,1.51904 -0.5313,0.39844 -1.1538,0.76367 -1.8677,1.0957 -0.664,0.31543 -1.353,0.55615 -2.0669,0.72217 -0.7138,0.18262 -1.5439,0.27392 -2.4902,0.27393 -1.5107,-10e-6 -2.9136,-0.31543 -4.2085,-0.94629 -1.2783,-0.63086 -2.3657,-1.55225 -3.2622,-2.76416 -0.9131,-1.22852 -1.6186,-2.73926 -2.1167,-4.53223 -0.498,-1.80956 -0.7471,-3.88475 -0.7471,-6.22559 0,-2.44041 0.3155,-4.54881 0.9463,-6.32519 0.6309,-1.79295 1.5025,-3.35349 2.6148,-4.68164 1.0127,-1.21189 2.2329,-2.15818 3.6606,-2.83887 1.4443,-0.69724 2.9551,-1.04587 4.5322,-1.0459 1.3946,3e-5 2.6065,0.15775 3.6358,0.47315 1.0293,0.29885 2.1167,0.772 3.2622,1.41943 l 0,-12.05273 4.6816,0 0,38.74804 m -4.6816,-6.77343 0,-16.03711 c -1.1621,-0.56443 -2.208,-0.95457 -3.1377,-1.17041 -0.9131,-0.2158 -1.9092,-0.32371 -2.9883,-0.32373 -2.4072,2e-5 -4.2915,0.9048 -5.6528,2.71435 -1.3613,1.79299 -2.042,4.39113 -2.042,7.79443 0,3.27052 0.5229,5.77736 1.5688,7.52051 1.0459,1.72657 2.7227,2.58985 5.0303,2.58985 1.2285,0 2.4653,-0.27393 3.7105,-0.82178 1.2451,-0.56445 2.4155,-1.31982 3.5112,-2.26611"
         style="font-size:51px;font-weight:normal;fill:#a7a5a6;font-family:Tahoma;-inkscape-font-specification:Tahoma"
         id="path5980"
         inkscape:connector-curvature="0" />
      <path
         d="m 1523.6538,505.30128 c -4.4326,0 -7.8774,-1.24511 -10.3345,-3.73535 -2.4404,-2.50683 -3.6606,-6.05956 -3.6606,-10.6582 0,-4.53221 1.187,-8.13474 3.561,-10.80762 2.374,-2.68942 5.4785,-4.03415 9.3135,-4.03418 1.7265,3e-5 3.2539,0.24905 4.582,0.74707 1.3281,0.49808 2.4902,1.27835 3.4864,2.34082 0.996,1.06253 1.7597,2.36575 2.291,3.90967 0.5312,1.52736 0.7968,3.40334 0.7969,5.62793 l 0,2.54004 -19.2745,0 c 0,3.23731 0.8135,5.71094 2.4405,7.4209 1.6269,1.70996 3.8764,2.56494 6.7485,2.56494 1.0293,0 2.0337,-0.11621 3.0132,-0.34863 0.9961,-0.23242 1.8925,-0.53125 2.6894,-0.89649 0.8467,-0.38183 1.5606,-0.74706 2.1416,-1.0957 0.5811,-0.36523 1.0625,-0.70556 1.4444,-1.021 l 0.2739,0 0,5.10498 c -0.5479,0.21583 -1.2285,0.48975 -2.042,0.82178 -0.8135,0.31543 -1.544,0.56445 -2.1914,0.74707 -0.9131,0.24902 -1.7432,0.43994 -2.4902,0.57276 -0.7305,0.13281 -1.6602,0.19921 -2.7891,0.19921 m 5.4785,-17.65576 c -0.033,-1.2617 -0.1826,-2.3491 -0.4482,-3.2622 -0.2657,-0.91307 -0.6475,-1.68504 -1.1455,-2.31592 -0.5479,-0.69725 -1.2535,-1.22849 -2.1167,-1.59375 -0.8467,-0.36521 -1.9009,-0.54783 -3.1626,-0.54785 -1.2452,2e-5 -2.3077,0.19094 -3.1875,0.57275 -0.8633,0.36526 -1.6519,0.90481 -2.3657,1.61865 -0.6973,0.73049 -1.2286,1.54397 -1.5938,2.44043 -0.3652,0.8799 -0.5977,1.9092 -0.6973,3.08789 l 14.7173,0"
         style="font-size:51px;font-weight:normal;fill:#a7a5a6;font-family:Tahoma;-inkscape-font-specification:Tahoma"
         id="path5982"
         inkscape:connector-curvature="0" />
      <path
         d="m 1584.0171,486.15138 c 0,3.38674 -0.689,6.44142 -2.0669,9.16406 -1.3614,2.72267 -3.1958,4.84766 -5.5034,6.375 -1.876,1.17872 -3.7852,1.96729 -5.7276,2.36573 -1.9258,0.39843 -4.3911,0.59765 -7.396,0.59765 l -8.5415,0 0,-37.07959 8.4419,0 c 3.4863,4e-5 6.2173,0.26566 8.1929,0.79688 1.9922,0.51468 3.6855,1.22855 5.0801,2.1416 2.3906,1.57718 4.2417,3.67728 5.5532,6.30029 1.3115,2.60647 1.9673,5.71926 1.9673,9.33838 m -5.1299,-0.0747 c 0,-2.85544 -0.4732,-5.28757 -1.4194,-7.29638 -0.9463,-2.02537 -2.3492,-3.60251 -4.2085,-4.73145 -1.3116,-0.79684 -2.7144,-1.36959 -4.2085,-1.71826 -1.4942,-0.3486 -3.3535,-0.52292 -5.5781,-0.52295 l -3.7603,0 0,28.61279 3.7603,0 c 2.1913,10e-6 4.1088,-0.17431 5.7524,-0.52294 1.6435,-0.34863 3.146,-0.99609 4.5073,-1.94239 1.71,-1.1621 2.9966,-2.70604 3.8599,-4.63183 0.8632,-1.94237 1.2949,-4.3579 1.2949,-7.24659"
         style="font-size:51px;font-weight:normal;fill:#a7a5a6;font-family:Tahoma;-inkscape-font-specification:Tahoma"
         id="path5984"
         inkscape:connector-curvature="0" />
      <path
         d="m 1601.0503,505.30128 c -4.4326,0 -7.8775,-1.24511 -10.3345,-3.73535 -2.4404,-2.50683 -3.6606,-6.05956 -3.6606,-10.6582 0,-4.53221 1.187,-8.13474 3.561,-10.80762 2.374,-2.68942 5.4785,-4.03415 9.3135,-4.03418 1.7265,3e-5 3.2539,0.24905 4.582,0.74707 1.3281,0.49808 2.4902,1.27835 3.4863,2.34082 0.9961,1.06253 1.7598,2.36575 2.2911,3.90967 0.5312,1.52736 0.7968,3.40334 0.7968,5.62793 l 0,2.54004 -19.2744,0 c 0,3.23731 0.8135,5.71094 2.4405,7.4209 1.6269,1.70996 3.8764,2.56494 6.7485,2.56494 1.0293,0 2.0337,-0.11621 3.0132,-0.34863 0.996,-0.23242 1.8925,-0.53125 2.6894,-0.89649 0.8467,-0.38183 1.5605,-0.74706 2.1416,-1.0957 0.5811,-0.36523 1.0625,-0.70556 1.4444,-1.021 l 0.2739,0 0,5.10498 c -0.5479,0.21583 -1.2286,0.48975 -2.042,0.82178 -0.8135,0.31543 -1.544,0.56445 -2.1914,0.74707 -0.9131,0.24902 -1.7432,0.43994 -2.4902,0.57276 -0.7305,0.13281 -1.6602,0.19921 -2.7891,0.19921 m 5.4785,-17.65576 c -0.033,-1.2617 -0.1826,-2.3491 -0.4482,-3.2622 -0.2657,-0.91307 -0.6475,-1.68504 -1.1455,-2.31592 -0.5479,-0.69725 -1.2535,-1.22849 -2.1167,-1.59375 -0.8467,-0.36521 -1.9009,-0.54783 -3.1626,-0.54785 -1.2452,2e-5 -2.3077,0.19094 -3.1875,0.57275 -0.8633,0.36526 -1.6519,0.90481 -2.3658,1.61865 -0.6972,0.73049 -1.2285,1.54397 -1.5937,2.44043 -0.3653,0.8799 -0.5977,1.9092 -0.6973,3.08789 l 14.7173,0"
         style="font-size:51px;font-weight:normal;fill:#a7a5a6;font-family:Tahoma;-inkscape-font-specification:Tahoma"
         id="path5986"
         inkscape:connector-curvature="0" />
      <path
         d="m 1623.3877,505.32619 c -1.8594,0 -3.6026,-0.24903 -5.2295,-0.74707 -1.6104,-0.49805 -2.9468,-1.0293 -4.0093,-1.59375 l 0,-5.2544 0.249,0 c 0.3985,0.31544 0.8633,0.66407 1.3946,1.0459 0.5478,0.38184 1.27,0.78028 2.1665,1.19531 0.7969,0.36524 1.6684,0.68897 2.6147,0.97119 0.9629,0.28223 1.959,0.42335 2.9883,0.42334 0.7471,10e-6 1.5439,-0.083 2.3906,-0.24902 0.8467,-0.18261 1.4776,-0.40673 1.8926,-0.67236 0.5811,-0.38183 0.9961,-0.78857 1.2451,-1.22022 0.2656,-0.43163 0.3985,-1.07909 0.3985,-1.94238 0,-1.1123 -0.3072,-1.95068 -0.9214,-2.51514 -0.5977,-0.56444 -1.6685,-1.03758 -3.2124,-1.41943 -0.5977,-0.1494 -1.378,-0.32372 -2.3408,-0.52295 -0.9629,-0.19921 -1.8511,-0.41503 -2.6646,-0.64746 -2.125,-0.61425 -3.6689,-1.56053 -4.6318,-2.83887 -0.9629,-1.2949 -1.4444,-2.85545 -1.4444,-4.68164 0,-2.50681 0.9463,-4.5488 2.8389,-6.12598 1.8926,-1.57712 4.4077,-2.36569 7.5454,-2.36572 1.5439,3e-5 3.0962,0.19095 4.6568,0.57276 1.5605,0.38186 2.872,0.8633 3.9345,1.44433 l 0,5.00537 -0.249,0 c -1.1953,-0.94626 -2.5318,-1.69333 -4.0093,-2.24121 -1.4609,-0.54783 -2.9385,-0.82175 -4.4326,-0.82178 -1.544,3e-5 -2.8472,0.32376 -3.9097,0.9712 -1.0625,0.64748 -1.5937,1.62697 -1.5937,2.93847 0,1.16213 0.3154,2.03371 0.9463,2.61475 0.6308,0.56447 1.6435,1.02931 3.0381,1.39453 0.6972,0.18263 1.4692,0.36525 2.3159,0.54785 0.8632,0.16603 1.768,0.36525 2.7143,0.59766 2.0586,0.51466 3.6026,1.36964 4.6319,2.56494 1.0458,1.19532 1.5688,2.82227 1.5688,4.88086 0,1.19532 -0.2407,2.33252 -0.7221,3.41162 -0.4649,1.0625 -1.1539,1.97559 -2.0669,2.73926 -0.9962,0.83008 -2.1251,1.46093 -3.3868,1.89258 -1.2451,0.43164 -2.8139,0.64746 -4.7065,0.64746"
         style="font-size:51px;font-weight:normal;fill:#a7a5a6;font-family:Tahoma;-inkscape-font-specification:Tahoma"
         id="path5988"
         inkscape:connector-curvature="0" />
      <path
         d="m 1650.7554,505.30128 c -4.4327,0 -7.8775,-1.24511 -10.3345,-3.73535 -2.4404,-2.50683 -3.6606,-6.05956 -3.6606,-10.6582 0,-4.53221 1.187,-8.13474 3.561,-10.80762 2.374,-2.68942 5.4785,-4.03415 9.3135,-4.03418 1.7265,3e-5 3.2539,0.24905 4.582,0.74707 1.3281,0.49808 2.4902,1.27835 3.4863,2.34082 0.9961,1.06253 1.7598,2.36575 2.291,3.90967 0.5313,1.52736 0.7969,3.40334 0.7969,5.62793 l 0,2.54004 -19.2744,0 c 0,3.23731 0.8135,5.71094 2.4404,7.4209 1.627,1.70996 3.8765,2.56494 6.7486,2.56494 1.0292,0 2.0336,-0.11621 3.0132,-0.34863 0.996,-0.23242 1.8925,-0.53125 2.6894,-0.89649 0.8467,-0.38183 1.5605,-0.74706 2.1416,-1.0957 0.581,-0.36523 1.0625,-0.70556 1.4443,-1.021 l 0.274,0 0,5.10498 c -0.5479,0.21583 -1.2286,0.48975 -2.042,0.82178 -0.8135,0.31543 -1.544,0.56445 -2.1914,0.74707 -0.9131,0.24902 -1.7432,0.43994 -2.4903,0.57276 -0.7305,0.13281 -1.6601,0.19921 -2.789,0.19921 m 5.4785,-17.65576 c -0.033,-1.2617 -0.1827,-2.3491 -0.4483,-3.2622 -0.2656,-0.91307 -0.6474,-1.68504 -1.1455,-2.31592 -0.5478,-0.69725 -1.2534,-1.22849 -2.1167,-1.59375 -0.8467,-0.36521 -1.9009,-0.54783 -3.1626,-0.54785 -1.2451,2e-5 -2.3076,0.19094 -3.1875,0.57275 -0.8633,0.36526 -1.6518,0.90481 -2.3657,1.61865 -0.6973,0.73049 -1.2285,1.54397 -1.5937,2.44043 -0.3653,0.8799 -0.5977,1.9092 -0.6973,3.08789 l 14.7173,0"
         style="font-size:51px;font-weight:normal;fill:#a7a5a6;font-family:Tahoma;-inkscape-font-specification:Tahoma"
         id="path5990"
         inkscape:connector-curvature="0" />
      <path
         d="m 1687.4365,504.65382 -4.6816,0 0,-15.83789 c 0,-1.2783 -0.066,-2.46531 -0.1992,-3.56103 -0.1163,-1.11229 -0.3487,-2.00047 -0.6973,-2.66455 -0.3819,-0.69725 -0.9131,-1.21189 -1.5938,-1.54395 -0.6806,-0.34861 -1.6103,-0.52292 -2.789,-0.52295 -1.1621,3e-5 -2.3657,0.31546 -3.6109,0.94629 -1.2285,0.61428 -2.4321,1.41946 -3.6108,2.41553 l 0,20.76855 -4.6816,0 0,-27.81592 4.6816,0 0,3.0879 c 1.3945,-1.2451 2.7725,-2.19968 4.1338,-2.86377 1.3613,-0.66404 2.7973,-0.99607 4.3081,-0.9961 2.7392,3e-5 4.8808,0.90482 6.4248,2.71436 1.5439,1.79299 2.3159,4.39943 2.3159,7.81933 l 0,18.0542"
         style="font-size:51px;font-weight:normal;fill:#a7a5a6;font-family:Tahoma;-inkscape-font-specification:Tahoma"
         id="path5992"
         inkscape:connector-curvature="0" />
      <path
         d="m 1715.5264,476.8379 -10.4839,27.81592 -4.2085,0 -10.4092,-27.81592 5.0552,0 7.6201,21.46583 7.5454,-21.46583 4.8809,0"
         style="font-size:51px;font-weight:normal;fill:#a7a5a6;font-family:Tahoma;-inkscape-font-specification:Tahoma"
         id="path5994"
         inkscape:connector-curvature="0" />
      <path
         d="m 1741.5493,490.75832 c 0,4.68164 -1.1289,8.30078 -3.3867,10.85742 -2.2578,2.54004 -5.2627,3.81005 -9.0147,3.81006 -3.8681,-10e-6 -6.9145,-1.31153 -9.1391,-3.93457 -2.208,-2.63965 -3.312,-6.21728 -3.312,-10.73291 0,-4.64842 1.1372,-8.25926 3.4116,-10.83252 2.291,-2.57322 5.3042,-3.85984 9.0395,-3.85987 3.752,3e-5 6.7569,1.28665 9.0147,3.85987 2.2578,2.55666 3.3867,6.16749 3.3867,10.83252 m -4.831,0 c -10e-5,-3.60253 -0.6558,-6.27538 -1.9673,-8.01856 -1.3116,-1.75974 -3.1792,-2.63962 -5.6031,-2.63965 -2.4404,3e-5 -4.3247,0.87991 -5.6528,2.63965 -1.3115,1.74318 -1.9673,4.41603 -1.9673,8.01856 0,3.48633 0.6558,6.13428 1.9673,7.94384 1.3281,1.79298 3.2124,2.68946 5.6528,2.68946 2.4073,0 4.2666,-0.87988 5.5782,-2.63965 1.3281,-1.77636 1.9921,-4.44091 1.9922,-7.99365"
         style="font-size:51px;font-weight:normal;fill:#a7a5a6;font-family:Tahoma;-inkscape-font-specification:Tahoma"
         id="path5996"
         inkscape:connector-curvature="0" />
      <path
         d="m 1751.1367,504.65382 -4.6816,0 0,-38.74804 4.6816,0 0,38.74804"
         style="font-size:51px;font-weight:normal;fill:#a7a5a6;font-family:Tahoma;-inkscape-font-specification:Tahoma"
         id="path5998"
         inkscape:connector-curvature="0" />
      <path
         d="m 1779.874,476.8379 -10.4839,27.81592 -4.2085,0 -10.4091,-27.81592 5.0551,0 7.6202,21.46583 7.5454,-21.46583 4.8808,0"
         style="font-size:51px;font-weight:normal;fill:#a7a5a6;font-family:Tahoma;-inkscape-font-specification:Tahoma"
         id="path6000"
         inkscape:connector-curvature="0" />
      <path
         d="m 1788.1914,504.65382 -4.6816,0 0,-27.81592 4.6816,0 0,27.81592 m 0.3237,-32.47265 -5.3291,0 0,-4.85596 5.3291,0 0,4.85596"
         style="font-size:51px;font-weight:normal;fill:#a7a5a6;font-family:Tahoma;-inkscape-font-specification:Tahoma"
         id="path6002"
         inkscape:connector-curvature="0" />
      <path
         d="m 1826.6406,504.65382 0,-16.08691 c 0,-1.2783 -0.05,-2.45701 -0.1494,-3.53613 -0.1,-1.09569 -0.3072,-1.95067 -0.6225,-2.56495 -0.3321,-0.66404 -0.8053,-1.15378 -1.4195,-1.46923 -0.6143,-0.31541 -1.4443,-0.47312 -2.4902,-0.47315 -0.9629,3e-5 -2.0005,0.29885 -3.1128,0.89649 -1.0957,0.58107 -2.2329,1.42775 -3.4116,2.54004 0.016,0.28224 0.033,0.62257 0.05,1.02099 0.033,0.38186 0.05,0.8384 0.05,1.36963 l 0,18.30322 -4.6817,0 0,-16.08691 c 0,-1.2783 -0.05,-2.45701 -0.1494,-3.53613 -0.1,-1.09569 -0.3071,-1.95067 -0.6225,-2.56495 -0.3321,-0.66404 -0.8052,-1.15378 -1.4195,-1.46923 -0.6142,-0.31541 -1.4443,-0.47312 -2.4902,-0.47315 -1.0127,3e-5 -2.0752,0.31546 -3.1875,0.94629 -1.1123,0.63088 -2.1914,1.43606 -3.2373,2.41553 l 0,20.76855 -4.6816,0 0,-27.81592 4.6816,0 0,3.0879 c 1.2285,-1.22849 2.4404,-2.17478 3.6357,-2.83887 1.2119,-0.68064 2.5401,-1.02097 3.9844,-1.021 1.6435,3e-5 3.0962,0.37357 4.3579,1.12061 1.2783,0.74709 2.2495,1.97561 2.9136,3.68554 1.4111,-1.57712 2.789,-2.77243 4.1338,-3.58593 1.3447,-0.81345 2.8056,-1.22019 4.3828,-1.22022 1.1953,3e-5 2.2827,0.19095 3.2622,0.57276 0.9795,0.36526 1.8344,0.96291 2.5649,1.79296 0.7471,0.84671 1.3198,1.90091 1.7183,3.1626 0.415,1.26174 0.6225,2.84719 0.6226,4.75635 l 0,18.30322 -4.6817,0"
         style="font-size:51px;font-weight:normal;fill:#a7a5a6;font-family:Tahoma;-inkscape-font-specification:Tahoma"
         id="path6004"
         inkscape:connector-curvature="0" />
      <path
         d="m 1849.9741,505.30128 c -4.4326,0 -7.8774,-1.24511 -10.3345,-3.73535 -2.4404,-2.50683 -3.6606,-6.05956 -3.6606,-10.6582 0,-4.53221 1.187,-8.13474 3.561,-10.80762 2.3741,-2.68942 5.4785,-4.03415 9.3135,-4.03418 1.7266,3e-5 3.2539,0.24905 4.582,0.74707 1.3282,0.49808 2.4903,1.27835 3.4864,2.34082 0.996,1.06253 1.7597,2.36575 2.291,3.90967 0.5312,1.52736 0.7968,3.40334 0.7969,5.62793 l 0,2.54004 -19.2744,0 c -10e-5,3.23731 0.8134,5.71094 2.4404,7.4209 1.6269,1.70996 3.8764,2.56494 6.7485,2.56494 1.0293,0 2.0337,-0.11621 3.0132,-0.34863 0.9961,-0.23242 1.8926,-0.53125 2.6895,-0.89649 0.8466,-0.38183 1.5605,-0.74706 2.1416,-1.0957 0.581,-0.36523 1.0624,-0.70556 1.4443,-1.021 l 0.2739,0 0,5.10498 c -0.5479,0.21583 -1.2285,0.48975 -2.042,0.82178 -0.8135,0.31543 -1.5439,0.56445 -2.1914,0.74707 -0.9131,0.24902 -1.7432,0.43994 -2.4902,0.57276 -0.7305,0.13281 -1.6602,0.19921 -2.7891,0.19921 m 5.4785,-17.65576 c -0.033,-1.2617 -0.1826,-2.3491 -0.4482,-3.2622 -0.2657,-0.91307 -0.6475,-1.68504 -1.1455,-2.31592 -0.5479,-0.69725 -1.2534,-1.22849 -2.1167,-1.59375 -0.8467,-0.36521 -1.9009,-0.54783 -3.1626,-0.54785 -1.2451,2e-5 -2.3076,0.19094 -3.1875,0.57275 -0.8633,0.36526 -1.6519,0.90481 -2.3657,1.61865 -0.6973,0.73049 -1.2286,1.54397 -1.5938,2.44043 -0.3652,0.8799 -0.5976,1.9092 -0.6972,3.08789 l 14.7172,0"
         style="font-size:51px;font-weight:normal;fill:#a7a5a6;font-family:Tahoma;-inkscape-font-specification:Tahoma"
         id="path6006"
         inkscape:connector-curvature="0" />
      <path
         d="m 1886.6553,504.65382 -4.6817,0 0,-15.83789 c 0,-1.2783 -0.066,-2.46531 -0.1992,-3.56103 -0.1162,-1.11229 -0.3486,-2.00047 -0.6973,-2.66455 -0.3818,-0.69725 -0.9131,-1.21189 -1.5937,-1.54395 -0.6807,-0.34861 -1.6104,-0.52292 -2.7891,-0.52295 -1.1621,3e-5 -2.3657,0.31546 -3.6108,0.94629 -1.2285,0.61428 -2.4321,1.41946 -3.6108,2.41553 l 0,20.76855 -4.6817,0 0,-27.81592 4.6817,0 0,3.0879 c 1.3945,-1.2451 2.7724,-2.19968 4.1337,-2.86377 1.3614,-0.66404 2.7974,-0.99607 4.3082,-0.9961 2.7392,3e-5 4.8808,0.90482 6.4248,2.71436 1.5439,1.79299 2.3158,4.39943 2.3159,7.81933 l 0,18.0542"
         style="font-size:51px;font-weight:normal;fill:#a7a5a6;font-family:Tahoma;-inkscape-font-specification:Tahoma"
         id="path6008"
         inkscape:connector-curvature="0" />
      <path
         d="m 1901.6963,505.20167 c -2.5567,0 -4.5488,-0.72216 -5.9766,-2.1665 -1.4277,-1.46093 -2.1416,-3.76025 -2.1416,-6.89795 l 0,-15.41455 -3.1626,0 0,-3.88477 3.1626,0 0,-7.99365 4.6817,0 0,7.99365 8.6162,0 0,3.88477 -8.6162,0 0,13.22315 c 0,1.41114 0.025,2.49854 0.075,3.2622 0.05,0.76368 0.2407,1.47755 0.5727,2.1416 0.2822,0.58106 0.7388,1.021 1.3697,1.31983 0.6308,0.28223 1.4858,0.42334 2.5649,0.42334 0.7637,0 1.5024,-0.10791 2.2163,-0.32373 0.7139,-0.23242 1.2285,-0.42334 1.544,-0.57276 l 0.2739,0 0,4.2085 c -0.8799,0.24902 -1.7764,0.43994 -2.6895,0.57275 -0.8965,0.14942 -1.7266,0.22412 -2.4902,0.22412"
         style="font-size:51px;font-weight:normal;fill:#a7a5a6;font-family:Tahoma;-inkscape-font-specification:Tahoma"
         id="path6010"
         inkscape:connector-curvature="0" />
      <path
         d="m 1933.1978,490.75832 c -10e-5,4.68164 -1.129,8.30078 -3.3868,10.85742 -2.2578,2.54004 -5.2627,3.81005 -9.0146,3.81006 -3.8682,-10e-6 -6.9146,-1.31153 -9.1392,-3.93457 -2.208,-2.63965 -3.312,-6.21728 -3.312,-10.73291 0,-4.64842 1.1372,-8.25926 3.4116,-10.83252 2.291,-2.57322 5.3042,-3.85984 9.0396,-3.85987 3.7519,3e-5 6.7568,1.28665 9.0146,3.85987 2.2578,2.55666 3.3867,6.16749 3.3868,10.83252 m -4.8311,0 c 0,-3.60253 -0.6558,-6.27538 -1.9673,-8.01856 -1.3115,-1.75974 -3.1792,-2.63962 -5.603,-2.63965 -2.4405,3e-5 -4.3247,0.87991 -5.6528,2.63965 -1.3116,1.74318 -1.9673,4.41603 -1.9673,8.01856 0,3.48633 0.6557,6.13428 1.9673,7.94384 1.3281,1.79298 3.2123,2.68946 5.6528,2.68946 2.4072,0 4.2666,-0.87988 5.5781,-2.63965 1.3281,-1.77636 1.9922,-4.44091 1.9922,-7.99365"
         style="font-size:51px;font-weight:normal;fill:#a7a5a6;font-family:Tahoma;-inkscape-font-specification:Tahoma"
         id="path6012"
         inkscape:connector-curvature="0" />
      <path
         d="m 1983.0273,504.65382 -6.3999,0 -11.7539,-14.74218 -5.6279,0 0,14.74218 -4.9307,0 0,-37.07959 9.5625,0 c 2.125,4e-5 3.9014,0.11625 5.3291,0.34864 1.4444,0.23245 2.814,0.772 4.1089,1.61865 1.2949,0.83011 2.3159,1.90091 3.063,3.2124 0.7637,1.31155 1.1455,2.93851 1.1455,4.88086 0,2.72268 -0.689,4.99709 -2.0669,6.82324 -1.3779,1.82619 -3.2539,3.17922 -5.6279,4.05908 l 13.1982,16.13672 m -10.6582,-26.6455 c 0,-1.07908 -0.1909,-2.03367 -0.5727,-2.86377 -0.3819,-0.84665 -0.9712,-1.53562 -1.7681,-2.0669 -0.6973,-0.46481 -1.5107,-0.78854 -2.4404,-0.97119 -0.9297,-0.19919 -2.0835,-0.2988 -3.4614,-0.29883 l -4.8809,0 0,13.99512 4.333,0 c 1.4111,2e-5 2.6811,-0.12449 3.8101,-0.37354 1.1289,-0.249 2.0917,-0.76365 2.8886,-1.54394 0.7139,-0.69725 1.2368,-1.52732 1.5689,-2.49024 0.3486,-0.96286 0.5229,-2.09177 0.5229,-3.38671"
         style="font-size:51px;font-weight:normal;fill:#a7a5a6;font-family:Tahoma;-inkscape-font-specification:Tahoma"
         id="path6014"
         inkscape:connector-curvature="0" />
      <path
         d="m 2007.0332,504.65382 -4.6816,0 0,-3.08789 c -1.4444,1.26172 -2.814,2.22461 -4.1089,2.88867 -1.295,0.64746 -2.7393,0.97119 -4.333,0.9712 -1.212,-10e-6 -2.3575,-0.19922 -3.4366,-0.59766 -1.0625,-0.39844 -1.9921,-1.0293 -2.789,-1.89258 -0.7969,-0.86328 -1.4195,-1.95068 -1.8677,-3.26221 -0.4316,-1.31151 -0.6475,-2.90526 -0.6475,-4.78125 l 0,-18.0542 4.6817,0 0,15.8379 c 0,1.47755 0.05,2.70606 0.1494,3.68554 0.1162,0.9629 0.3652,1.80958 0.7471,2.54004 0.3818,0.71387 0.8964,1.23682 1.5439,1.56885 0.6641,0.33203 1.6104,0.49805 2.8389,0.49805 1.1455,0 2.3657,-0.32373 3.6606,-0.9712 1.2949,-0.64745 2.4819,-1.44433 3.5611,-2.39062 l 0,-20.76856 4.6816,0 0,27.81592"
         style="font-size:51px;font-weight:normal;fill:#a7a5a6;font-family:Tahoma;-inkscape-font-specification:Tahoma"
         id="path6016"
         inkscape:connector-curvature="0" />
      <path
         d="m 2028.6484,481.86818 -0.249,0 c -0.3486,-0.0996 -0.7222,-0.15769 -1.1206,-0.17432 -0.3818,-0.0332 -0.8467,-0.0498 -1.3945,-0.0498 -1.2618,2e-5 -2.5152,0.27395 -3.7603,0.82177 -1.2451,0.54788 -2.4238,1.36135 -3.5361,2.44043 l 0,19.74756 -4.6816,0 0,-27.81592 4.6816,0 0,4.13379 c 1.7099,-1.51071 3.1958,-2.57321 4.4575,-3.1875 1.2783,-0.63083 2.5151,-0.94626 3.7105,-0.94629 0.4814,3e-5 0.8383,0.0166 1.0708,0.0498 0.249,0.0166 0.5229,0.0498 0.8217,0.0996 l 0,4.88086"
         style="font-size:51px;font-weight:normal;fill:#a7a5a6;font-family:Tahoma;-inkscape-font-specification:Tahoma"
         id="path6018"
         inkscape:connector-curvature="0" />
      <path
         d="m 2047.0264,497.80568 0,-7.71973 c -1.1124,0.0996 -2.5235,0.24074 -4.2334,0.42334 -1.6934,0.16603 -3.063,0.40675 -4.1089,0.72217 -1.2451,0.38185 -2.2744,0.9712 -3.0879,1.76807 -0.8135,0.78028 -1.2202,1.87598 -1.2202,3.28711 0,1.59375 0.4482,2.79736 1.3447,3.61084 0.8965,0.81348 2.208,1.22021 3.9346,1.22021 1.4775,0 2.8139,-0.31543 4.0093,-0.94629 1.1952,-0.64745 2.3159,-1.43603 3.3618,-2.36572 m 0,3.88476 c -0.3819,0.28223 -0.8965,0.68067 -1.544,1.19532 -0.6309,0.49804 -1.2451,0.89648 -1.8428,1.19531 -0.83,0.43164 -1.6352,0.76367 -2.4155,0.99609 -0.7637,0.23242 -1.8428,0.34863 -3.2373,0.34864 -1.1455,-10e-6 -2.2329,-0.21583 -3.2622,-0.64747 -1.0293,-0.43164 -1.9341,-1.03759 -2.7143,-1.81787 -0.7471,-0.76367 -1.3448,-1.70165 -1.793,-2.81396 -0.4483,-1.1289 -0.6724,-2.31591 -0.6724,-3.56104 0,-1.92577 0.4068,-3.56102 1.2202,-4.90576 0.8135,-1.36131 2.1001,-2.44041 3.8599,-3.2373 1.5605,-0.71385 3.4033,-1.2036 5.5283,-1.46924 2.125,-0.28221 4.416,-0.48973 6.8731,-0.62256 l 0,-0.89648 c -10e-5,-1.09569 -0.1661,-1.97557 -0.4981,-2.63965 -0.332,-0.68064 -0.7969,-1.20359 -1.3945,-1.56885 -0.5977,-0.38181 -1.3282,-0.63084 -2.1914,-0.74707 -0.8633,-0.13279 -1.7515,-0.1992 -2.6646,-0.19922 -1.0791,2e-5 -2.3491,0.16604 -3.81,0.49805 -1.461,0.31545 -2.9219,0.78029 -4.3828,1.39453 l -0.274,0 0,-4.75635 c 0.8633,-0.24899 2.1001,-0.52292 3.7105,-0.82178 1.6103,-0.2988 3.2041,-0.44821 4.7812,-0.44824 1.9092,3e-5 3.5195,0.14944 4.8311,0.44824 1.3115,0.29886 2.4902,0.83841 3.5361,1.61866 1.0127,0.76369 1.7681,1.75149 2.2661,2.96338 0.4981,1.21193 0.7471,2.68947 0.7471,4.43261 l 0,19.02539 -4.6567,0 0,-2.96338"
         style="font-size:51px;font-weight:normal;fill:#a7a5a6;font-family:Tahoma;-inkscape-font-specification:Tahoma"
         id="path6020"
         inkscape:connector-curvature="0" />
      <path
         d="m 2063.1133,504.65382 -4.6817,0 0,-38.74804 4.6817,0 0,38.74804"
         style="font-size:51px;font-weight:normal;fill:#a7a5a6;font-family:Tahoma;-inkscape-font-specification:Tahoma"
         id="path6022"
         inkscape:connector-curvature="0" />
    </g>
    <g
       transform="matrix(0.16884921,0,0,0.16884921,-541.61988,742.32738)"
       style="font-size:40px;font-style:normal;font-variant:normal;font-weight:500;font-stretch:normal;line-height:125%;letter-spacing:0px;word-spacing:0px;fill:#a7a5a6;fill-opacity:1;stroke:none;font-family:ori1Uni;-inkscape-font-specification:ori1Uni Medium"
       id="flowRoot3685">
      <path
         d="m 1590.4121,139.67699 5.3525,0 0,23.91504 c 0,4.21876 0.7647,7.25978 2.294,9.12305 1.5293,1.84571 4.0078,2.76856 7.4355,2.76855 3.4102,1e-5 5.8799,-0.92284 7.4092,-2.76855 1.5293,-1.86327 2.2939,-4.90429 2.294,-9.12305 l 0,-23.91504 5.3525,0 0,24.57422 c 0,5.13282 -1.2744,9.0088 -3.8232,11.62793 -2.5313,2.61914 -6.2755,3.92871 -11.2325,3.92871 -4.9746,0 -8.7363,-1.30957 -11.2851,-3.92871 -2.5313,-2.61913 -3.7969,-6.49511 -3.7969,-11.62793 l 0,-24.57422"
         style="font-size:54px;fill:#a7a5a6"
         id="path5913"
         inkscape:connector-curvature="0" />
      <path
         d="m 1630.5693,139.67699 7.1719,0 17.4551,32.93262 0,-32.93262 5.168,0 0,39.36621 -7.1719,0 -17.4551,-32.93261 0,32.93261 -5.168,0 0,-39.36621"
         style="font-size:54px;fill:#a7a5a6"
         id="path5915"
         inkscape:connector-curvature="0" />
      <path
         d="m 1670.9639,139.67699 5.3261,0 0,39.36621 -5.3261,0 0,-39.36621"
         style="font-size:54px;fill:#a7a5a6"
         id="path5917"
         inkscape:connector-curvature="0" />
      <path
         d="m 1700.0469,144.92406 -7.2246,19.59082 14.4756,0 -7.251,-19.59082 m -3.0059,-5.24707 6.0381,0 15.0029,39.36621 -5.5371,0 -3.5859,-10.09863 -17.7451,0 -3.586,10.09863 -5.6162,0 15.0293,-39.36621 m 2.9004,-5.72168 -1.5029,-0.87011 c -0.4395,-0.24605 -0.7998,-0.41304 -1.0811,-0.50098 -0.2637,-0.10542 -0.501,-0.15816 -0.7119,-0.1582 -0.6328,4e-5 -1.125,0.21977 -1.4766,0.65918 -0.3515,0.4395 -0.5273,1.05473 -0.5273,1.8457 l 0,0.1582 -3.2959,0 c 0,-1.77534 0.4482,-3.18159 1.3447,-4.21875 0.9141,-1.03706 2.127,-1.55561 3.6387,-1.55566 0.6328,5e-5 1.2129,0.0704 1.7402,0.21094 0.5449,0.14067 1.2393,0.44829 2.083,0.92285 l 1.503,0.79101 c 0.4042,0.22857 0.7558,0.39556 1.0547,0.50098 0.2988,0.10552 0.58,0.15825 0.8437,0.1582 0.5625,5e-5 1.0195,-0.21968 1.3711,-0.65918 0.3515,-0.45698 0.5273,-1.04585 0.5273,-1.7666 l 0,-0.1582 3.2959,0 c -0.035,1.75786 -0.5097,3.16411 -1.4238,4.21875 -0.8965,1.03715 -2.083,1.55571 -3.5596,1.55566 -0.5976,5e-5 -1.1601,-0.0703 -1.6875,-0.21093 -0.5097,-0.14059 -1.2217,-0.4482 -2.1357,-0.92286"
         style="font-size:54px;fill:#a7a5a6"
         id="path5919"
         inkscape:connector-curvature="0" />
      <path
         d="m 1738.833,143.2893 c -3.8672,3e-5 -6.9434,1.44144 -9.2285,4.32422 -2.2676,2.88284 -3.4014,6.81155 -3.4014,11.78613 0,4.95705 1.1338,8.87696 3.4014,11.75977 2.2851,2.88281 5.3613,4.32422 9.2285,4.32421 3.8672,1e-5 6.9258,-1.4414 9.1758,-4.32421 2.2675,-2.88281 3.4013,-6.80272 3.4014,-11.75977 -10e-5,-4.97458 -1.1339,-8.90329 -3.4014,-11.78613 -2.25,-2.88278 -5.3086,-4.32419 -9.1758,-4.32422 m 0,-4.32422 c 5.5195,4e-5 9.9316,1.85453 13.2363,5.56348 3.3047,3.69143 4.957,8.64846 4.9571,14.87109 -10e-5,6.20509 -1.6524,11.16212 -4.9571,14.87109 -3.3047,3.69141 -7.7168,5.53711 -13.2363,5.53711 -5.5371,0 -9.9668,-1.8457 -13.2891,-5.53711 -3.3046,-3.69139 -4.957,-8.64842 -4.957,-14.87109 0,-6.22263 1.6524,-11.17966 4.957,-14.87109 3.3223,-3.70895 7.752,-5.56344 13.2891,-5.56348"
         style="font-size:54px;fill:#a7a5a6"
         id="path5921"
         inkscape:connector-curvature="0" />
      <path
         d="m 1782.5498,139.67699 24.8906,0 0,4.48243 -19.5644,0 0,11.65429 18.747,0 0,4.48242 -18.747,0 0,14.26465 20.039,0 0,4.48242 -25.3652,0 0,-39.36621"
         style="font-size:54px;fill:#a7a5a6"
         id="path5923"
         inkscape:connector-curvature="0" />
      <path
         d="m 1816.1152,139.67699 5.3526,0 0,23.91504 c 0,4.21876 0.7646,7.25978 2.2939,9.12305 1.5293,1.84571 4.0078,2.76856 7.4356,2.76855 3.4101,1e-5 5.8798,-0.92284 7.4091,-2.76855 1.5293,-1.86327 2.294,-4.90429 2.294,-9.12305 l 0,-23.91504 5.3525,0 0,24.57422 c 0,5.13282 -1.2744,9.0088 -3.8232,11.62793 -2.5313,2.61914 -6.2754,3.92871 -11.2324,3.92871 -4.9747,0 -8.7364,-1.30957 -11.2852,-3.92871 -2.5312,-2.61913 -3.7969,-6.49511 -3.7969,-11.62793 l 0,-24.57422"
         style="font-size:54px;fill:#a7a5a6"
         id="path5925"
         inkscape:connector-curvature="0" />
      <path
         d="m 1874.9404,160.58617 c 1.1426,0.38674 2.25,1.21291 3.3223,2.47852 1.0898,1.26564 2.1797,3.00587 3.2695,5.2207 l 5.4053,10.75781 -5.7217,0 -5.0361,-10.09863 c -1.3008,-2.6367 -2.5664,-4.38573 -3.7969,-5.24707 -1.2129,-0.86131 -2.874,-1.29197 -4.9834,-1.29199 l -5.8008,0 0,16.63769 -5.3261,0 0,-39.36621 12.0234,0 c 4.5,4e-5 7.8574,0.94047 10.0723,2.82129 2.2148,1.8809 3.3222,4.71976 3.3222,8.5166 0,2.47855 -0.5801,4.53518 -1.7402,6.16993 -1.1426,1.63478 -2.8125,2.76857 -5.0098,3.40136 m -13.3418,-16.53222 0,13.97461 6.6973,0 c 2.5664,2e-5 4.5,-0.58885 5.8008,-1.76661 1.3183,-1.19528 1.9775,-2.94431 1.9775,-5.24707 0,-2.3027 -0.6592,-4.03414 -1.9775,-5.19433 -1.3008,-1.1777 -3.2344,-1.76657 -5.8008,-1.7666 l -6.6973,0"
         style="font-size:54px;fill:#a7a5a6"
         id="path5927"
         inkscape:connector-curvature="0" />
      <path
         d="m 1909.7979,143.2893 c -3.8673,3e-5 -6.9434,1.44144 -9.2286,4.32422 -2.2676,2.88284 -3.4013,6.81155 -3.4013,11.78613 0,4.95705 1.1337,8.87696 3.4013,11.75977 2.2852,2.88281 5.3613,4.32422 9.2286,4.32421 3.8671,1e-5 6.9257,-1.4414 9.1757,-4.32421 2.2676,-2.88281 3.4014,-6.80272 3.4014,-11.75977 0,-4.97458 -1.1338,-8.90329 -3.4014,-11.78613 -2.25,-2.88278 -5.3086,-4.32419 -9.1757,-4.32422 m 0,-4.32422 c 5.5195,4e-5 9.9316,1.85453 13.2363,5.56348 3.3046,3.69143 4.957,8.64846 4.957,14.87109 0,6.20509 -1.6524,11.16212 -4.957,14.87109 -3.3047,3.69141 -7.7168,5.53711 -13.2363,5.53711 -5.5372,0 -9.9669,-1.8457 -13.2891,-5.53711 -3.3047,-3.69139 -4.957,-8.64842 -4.957,-14.87109 0,-6.22263 1.6523,-11.17966 4.957,-14.87109 3.3222,-3.70895 7.7519,-5.56344 13.2891,-5.56348"
         style="font-size:54px;fill:#a7a5a6"
         id="path5929"
         inkscape:connector-curvature="0" />
      <path
         d="m 1941.6494,144.05395 0,14.79199 6.6973,0 c 2.4785,2e-5 4.3945,-0.64158 5.748,-1.92481 1.3535,-1.28318 2.0303,-3.1113 2.0303,-5.48437 0,-2.35544 -0.6768,-4.17477 -2.0303,-5.45801 -1.3535,-1.28317 -3.2695,-1.92477 -5.748,-1.9248 l -6.6973,0 m -5.3262,-4.37696 12.0235,0 c 4.4121,4e-5 7.7431,1.002 9.9931,3.00586 2.2676,1.98637 3.4014,4.90433 3.4014,8.75391 0,3.88479 -1.1338,6.82033 -3.4014,8.80664 -2.25,1.98634 -5.581,2.97951 -9.9931,2.97949 l -6.6973,0 0,15.82031 -5.3262,0 0,-39.36621"
         style="font-size:54px;fill:#a7a5a6"
         id="path5931"
         inkscape:connector-curvature="0" />
      <path
         d="m 1968.9131,139.67699 24.8906,0 0,4.48243 -19.5644,0 0,11.65429 18.747,0 0,4.48242 -18.747,0 0,14.26465 20.039,0 0,4.48242 -25.3652,0 0,-39.36621"
         style="font-size:54px;fill:#a7a5a6"
         id="path5933"
         inkscape:connector-curvature="0" />
      <path
         d="m 2003.085,139.67699 5.3261,0 0,39.36621 -5.3261,0 0,-39.36621"
         style="font-size:54px;fill:#a7a5a6"
         id="path5935"
         inkscape:connector-curvature="0" />
      <path
         d="m 2032.168,144.92406 -7.2246,19.59082 14.4755,0 -7.2509,-19.59082 m -3.0059,-5.24707 6.0381,0 15.0029,39.36621 -5.5371,0 -3.5859,-10.09863 -17.7451,0 -3.586,10.09863 -5.6162,0 15.0293,-39.36621"
         style="font-size:54px;fill:#a7a5a6"
         id="path5937"
         inkscape:connector-curvature="0" />
    </g>
  </g>
</svg>
