<?xml version="1.0" encoding="UTF-8" standalone="no"?>
<!-- Created with Inkscape (http://www.inkscape.org/) -->

<svg
   xmlns:dc="http://purl.org/dc/elements/1.1/"
   xmlns:cc="http://creativecommons.org/ns#"
   xmlns:rdf="http://www.w3.org/1999/02/22-rdf-syntax-ns#"
   xmlns:svg="http://www.w3.org/2000/svg"
   xmlns="http://www.w3.org/2000/svg"
   xmlns:sodipodi="http://sodipodi.sourceforge.net/DTD/sodipodi-0.dtd"
   xmlns:inkscape="http://www.inkscape.org/namespaces/inkscape"
   width="220.00002"
   height="35.152725"
   id="svg5520"
   version="1.1"
   inkscape:version="0.48.4 r9939"
   sodipodi:docname="EU.svg">
  <defs
     id="defs5522">
    <clipPath
       id="clipPath3018"
       clipPathUnits="userSpaceOnUse">
      <path
         inkscape:connector-curvature="0"
         id="path3020"
         d="m 107.783,214.0826 373.126,0 0,219.466 -373.126,0 0,-219.466 z" />
    </clipPath>
    <clipPath
       id="clipPath3026"
       clipPathUnits="userSpaceOnUse">
      <path
         inkscape:connector-curvature="0"
         id="path3028"
         d="m 132.439,240.2646 299.8689,0 0,188.1731 -299.8689,0 0,-188.1731 z" />
    </clipPath>
  </defs>
  <sodipodi:namedview
     id="base"
     pagecolor="#ffffff"
     bordercolor="#666666"
     borderopacity="1.0"
     inkscape:pageopacity="0.0"
     inkscape:pageshadow="2"
     inkscape:zoom="0.35"
     inkscape:cx="236.57994"
     inkscape:cy="315.53521"
     inkscape:document-units="px"
     inkscape:current-layer="layer1"
     showgrid="false"
     fit-margin-top="0"
     fit-margin-left="0"
     fit-margin-right="0"
     fit-margin-bottom="0"
     inkscape:window-width="1323"
     inkscape:window-height="744"
     inkscape:window-x="43"
     inkscape:window-y="24"
     inkscape:window-maximized="1" />
  <metadata
     id="metadata5525">
    <rdf:RDF>
      <cc:Work
         rdf:about="">
        <dc:format>image/svg+xml</dc:format>
        <dc:type
           rdf:resource="http://purl.org/dc/dcmitype/StillImage" />
        <dc:title></dc:title>
      </cc:Work>
    </rdf:RDF>
  </metadata>
  <g
     inkscape:label="Layer 1"
     inkscape:groupmode="layer"
     id="layer1"
     transform="translate(375.63213,-690.17662)">
    <g
       id="g12"
       transform="matrix(0.02479374,0,0,-0.02479374,-375.63221,749.57971)"
       style="fill:#a7a5a6;fill-opacity:1"
       inkscape:export-filename="/home/filipe/Desktop/spiracol/signa.png"
       inkscape:export-xdpi="60"
       inkscape:export-ydpi="60">
      <path
         inkscape:connector-curvature="0"
         d="m 4863.1286,2388.134 0,-1410.04973 39.3874,0 0,1410.04973 -39.3874,0 z"
         style="fill:#a7a5a6;fill-opacity:1;fill-rule:nonzero;stroke:none"
         id="path14" />
      <path
         inkscape:connector-curvature="0"
         d="m 5542.0015,1731.325 -13.54,90.7432 c -2.81,17.1991 -4.5,32.1291 -5.92,45.3791 l -0.55,0 c -2.54,-12.122 -5.36,-25.36 -10.43,-40.5711 l -30.16,-95.5512 -36.36,0 -29.02,88.7742 c -5.36,16.066 -9.31,31.8481 -12.12,47.3481 l -0.56,0 c -1.14,-16.899 -3.11,-31.8401 -5.36,-48.4691 l -10.71,-87.6532 -37.2,0 29.31,190.2314 42.84,0 31.85,-97.7892 c 3.66,-11.27 7.32,-25.078 10.7,-40.0201 l 0.28,0 c 3.11,14.6491 6.21,25.9301 10.72,39.4501 l 32.68,98.3592 42.56,0 29.59,-190.2314 -38.6,0"
         style="fill:#a7a5a6;fill-opacity:1;fill-rule:nonzero;stroke:none"
         id="path16" />
      <path
         inkscape:connector-curvature="0"
         d="m 5603.4415,1731.325 36.6406,0 0,190.2304 -36.6406,0 0,-190.2304 z"
         style="fill:#a7a5a6;fill-opacity:1;fill-rule:nonzero;stroke:none"
         id="path18" />
      <path
         inkscape:connector-curvature="0"
         d="m 5784.1715,1731.325 -55.8,96.1022 c -8.18,14.3791 -14.95,28.4691 -20.58,40.8711 1.13,-16.351 1.69,-46.2301 1.69,-69.0511 l 0,-67.9222 -35.51,0 0,190.2314 47.63,0 52.99,-90.7382 c 8.74,-14.672 16.34,-30.45 23.38,-44.8211 -1.4,19.1681 -1.97,52.9812 -1.97,76.3792 l 0,59.1801 35.52,0 0,-190.2314 -47.35,0"
         style="fill:#a7a5a6;fill-opacity:1;fill-rule:nonzero;stroke:none"
         id="path20" />
      <path
         inkscape:connector-curvature="0"
         d="m 5865.8315,1731.325 36.6406,0 0,190.2304 -36.6406,0 0,-190.2304 z"
         style="fill:#a7a5a6;fill-opacity:1;fill-rule:nonzero;stroke:none"
         id="path22" />
      <path
         inkscape:connector-curvature="0"
         d="m 5974.8015,1728.216 c -16.91,0 -31.28,1.699 -43.96,5.082 l 3.94,35.2381 c 12.4,-5.078 26.21,-8.187 41.43,-8.187 17.19,0 31.84,7.047 31.84,24.808 0,36.3481 -80.04,19.7191 -80.04,82.2902 0,33.8201 25.93,57.2181 71.88,57.2181 10.42,0 23.67,-1.418 34.37,-3.668 l -3.38,-32.129 c -10.43,3.379 -21.41,5.348 -32.69,5.348 -21.42,0 -31.28,-9.301 -31.28,-22.8201 0,-34.0981 81.45,-21.418 81.45,-81.7312 0,-35.238 -29.59,-61.4491 -73.56,-61.4491"
         style="fill:#a7a5a6;fill-opacity:1;fill-rule:nonzero;stroke:none"
         id="path24" />
      <path
         inkscape:connector-curvature="0"
         d="m 6139.2015,1890.2674 0,-158.9424 -36.64,0 0,158.9424 -49.31,0 0,31.289 135.27,0 0,-31.289 -49.32,0"
         style="fill:#a7a5a6;fill-opacity:1;fill-rule:nonzero;stroke:none"
         id="path26" />
      <path
         inkscape:connector-curvature="0"
         d="m 6243.2515,1933.1264 -5.92,19.7231 58.34,21.129 8.17,-25.922 -60.59,-14.9301 z m -37.77,-201.8014 0,190.2314 103.44,0 0,-30.719 -66.8,0 0,-46.7811 63.41,0 0,-29.8791 -63.41,0 0,-51.5591 66.8,0 0,-31.2931 -103.44,0"
         style="fill:#a7a5a6;fill-opacity:1;fill-rule:nonzero;stroke:none"
         id="path28" />
      <path
         inkscape:connector-curvature="0"
         d="m 6389.8315,1892.8064 c -5.36,0 -10.71,-0.27 -14.38,-0.84 l 0,-54.9612 c 2.54,-0.269 7.61,-0.558 13.25,-0.558 21.98,0 35.51,11.2811 35.51,29.0311 0,18.3201 -11.27,27.3281 -34.38,27.3281 z m 40.02,-161.4814 -51.3,78.6332 -3.1,0 0,-78.6332 -36.64,0 0,190.2314 c 14.95,0.84 32.7,1.141 54.68,1.141 41.99,0 69.04,-14.661 69.04,-53.5591 0,-28.18 -20.28,-48.4811 -46.77,-52.9921 5.07,-7.039 10.7,-14.078 15.21,-20.8481 l 44.25,-63.9731 -45.37,0"
         style="fill:#a7a5a6;fill-opacity:1;fill-rule:nonzero;stroke:none"
         id="path30" />
      <path
         inkscape:connector-curvature="0"
         d="m 6491.8915,1731.325 36.6406,0 0,190.2304 -36.6406,0 0,-190.2304 z"
         style="fill:#a7a5a6;fill-opacity:1;fill-rule:nonzero;stroke:none"
         id="path32" />
      <path
         inkscape:connector-curvature="0"
         d="m 6642.7515,1891.6894 c -26.21,0 -50.45,-20.8521 -50.45,-63.6922 0,-40.3001 15.78,-66.5191 49.88,-66.5191 24.81,0 51.29,19.16 51.29,64.8281 0,42.2621 -18.03,65.3832 -50.72,65.3832 z m -3.11,-163.4734 c -58.05,0 -86.52,36.9301 -86.52,95.8202 0,62.8522 41.99,100.6292 93.01,100.6292 50.73,0 86.52,-30.449 86.52,-95.5472 0,-62.8511 -41.43,-100.9022 -93.01,-100.9022"
         style="fill:#a7a5a6;fill-opacity:1;fill-rule:nonzero;stroke:none"
         id="path34" />
      <path
         inkscape:connector-curvature="0"
         d="m 6876.3615,1891.9664 c -8.45,0 -16.34,-0.277 -22.26,-0.84 l 0,-128.2383 c 5.07,-0.84 12.68,-1.41 20.01,-1.41 35.79,0 61.72,20.301 61.72,65.3981 0,40.8521 -16.07,65.0902 -59.47,65.0902 z m -5.91,-161.7694 c -19.73,0 -36.93,0.851 -52.99,1.41 l 0,189.6724 c 14.94,0.566 38.04,1.418 61.44,1.418 58.9,0 96.38,-26.219 96.38,-93.0082 0,-65.3911 -42.83,-99.4922 -104.83,-99.4922"
         style="fill:#a7a5a6;fill-opacity:1;fill-rule:nonzero;stroke:none"
         id="path36" />
      <path
         inkscape:connector-curvature="0"
         d="m 7067.5315,1853.3573 c -3.37,9.3 -5.91,18.039 -7.89,26.2111 l -0.28,0 c -2.25,-8.1721 -4.51,-16.9111 -7.61,-26.2111 l -18.88,-54.1101 53.55,0 -18.89,54.1101 z m 41.43,-122.0323 -13.24,38.8911 -71.87,0 -13.25,-38.8911 -36.91,0 66.51,190.2314 41.43,0 67.92,-190.2314 -40.59,0"
         style="fill:#a7a5a6;fill-opacity:1;fill-rule:nonzero;stroke:none"
         id="path38" />
      <path
         inkscape:connector-curvature="0"
         d="m 7299.7415,1853.3573 c -3.38,9.3 -5.92,18.039 -7.89,26.2111 l -0.28,0 c -2.26,-8.1721 -4.51,-16.9111 -7.61,-26.2111 l -18.89,-54.1101 53.56,0 -18.89,54.1101 z m 41.43,-122.0323 -13.24,38.8911 -71.87,0 -13.25,-38.8911 -36.92,0 66.52,190.2314 41.42,0 67.92,-190.2314 -40.58,0"
         style="fill:#a7a5a6;fill-opacity:1;fill-rule:nonzero;stroke:none"
         id="path40" />
      <path
         inkscape:connector-curvature="0"
         d="m 7476.4915,1728.517 c -60.31,0 -96.1,35.5001 -96.1,93.5512 0,59.7572 40.58,102.3082 105.68,102.3082 19.73,0 38.61,-3.379 53.83,-8.168 l -7.33,-33.261 c -14.37,5.64 -30.72,8.742 -48.76,8.742 -37.19,0 -63.69,-23.6721 -63.69,-66.2312 0,-40.3011 21.99,-63.9801 60.6,-63.9801 9.01,0 16.9,1.14 24.24,3.379 l 0,66.2301 36.64,0 0,-90.7382 c -18.89,-7.621 -42.28,-11.832 -65.11,-11.832"
         style="fill:#a7a5a6;fill-opacity:1;fill-rule:nonzero;stroke:none"
         id="path42" />
      <path
         inkscape:connector-curvature="0"
         d="m 7625.4515,1892.8064 c -5.37,0 -10.72,-0.27 -14.38,-0.84 l 0,-54.9612 c 2.54,-0.269 7.61,-0.558 13.24,-0.558 21.98,0 35.52,11.2811 35.52,29.0311 0,18.3201 -11.28,27.3281 -34.38,27.3281 z m 40.01,-161.4814 -51.29,78.6332 -3.1,0 0,-78.6332 -36.64,0 0,190.2314 c 14.94,0.84 32.69,1.141 54.68,1.141 41.99,0 69.04,-14.661 69.04,-53.5591 0,-28.18 -20.28,-48.4811 -46.78,-52.9921 5.07,-7.039 10.71,-14.078 15.22,-20.8481 l 44.25,-63.9731 -45.38,0"
         style="fill:#a7a5a6;fill-opacity:1;fill-rule:nonzero;stroke:none"
         id="path44" />
      <path
         inkscape:connector-curvature="0"
         d="m 7727.5115,1731.325 36.6406,0 0,190.2304 -36.6406,0 0,-190.2304 z"
         style="fill:#a7a5a6;fill-opacity:1;fill-rule:nonzero;stroke:none"
         id="path46" />
      <path
         inkscape:connector-curvature="0"
         d="m 7877.3515,1729.068 c -66.51,0 -87.93,43.9681 -87.93,91.3202 0,60.3092 31.56,102.8592 95.25,102.8592 13.53,0 28.19,-1.968 40.59,-5.629 l -5.08,-33.543 c -11.55,4.223 -24.51,6.493 -37.48,6.493 -35.51,0 -52.98,-26.7821 -52.98,-63.9932 0,-41.1361 17.19,-64.2571 55.52,-64.2571 11.55,0 26.21,3.109 36.07,7.898 l 5.64,-32.4101 c -14.09,-5.348 -31.85,-8.738 -49.6,-8.738"
         style="fill:#a7a5a6;fill-opacity:1;fill-rule:nonzero;stroke:none"
         id="path48" />
      <path
         inkscape:connector-curvature="0"
         d="m 8020.8715,1728.216 c -60.03,0 -73.56,32.6991 -73.56,69.0632 l 0,124.2772 36.64,0 0,-122.0272 c 0,-23.9541 7.89,-40.8641 39.45,-40.8641 28.19,0 40.02,11.84 40.02,44.2421 l 0,118.6492 36.36,0 0,-116.3912 c 0,-51.8591 -28.75,-76.9492 -78.91,-76.9492"
         style="fill:#a7a5a6;fill-opacity:1;fill-rule:nonzero;stroke:none"
         id="path50" />
      <path
         inkscape:connector-curvature="0"
         d="m 8133.6815,1731.325 0,190.2314 36.64,0 0,-158.0983 61.72,0 0,-32.1331 -98.36,0"
         style="fill:#a7a5a6;fill-opacity:1;fill-rule:nonzero;stroke:none"
         id="path52" />
      <path
         inkscape:connector-curvature="0"
         d="m 8301.1015,1890.2674 0,-158.9424 -36.64,0 0,158.9424 -49.32,0 0,31.289 135.28,0 0,-31.289 -49.32,0"
         style="fill:#a7a5a6;fill-opacity:1;fill-rule:nonzero;stroke:none"
         id="path54" />
      <path
         inkscape:connector-curvature="0"
         d="m 8440.9215,1728.216 c -60.03,0 -73.55,32.6991 -73.55,69.0632 l 0,124.2772 36.64,0 0,-122.0272 c 0,-23.9541 7.89,-40.8641 39.45,-40.8641 28.19,0 40.02,11.84 40.02,44.2421 l 0,118.6492 36.36,0 0,-116.3912 c 0,-51.8591 -28.75,-76.9492 -78.92,-76.9492"
         style="fill:#a7a5a6;fill-opacity:1;fill-rule:nonzero;stroke:none"
         id="path56" />
      <path
         inkscape:connector-curvature="0"
         d="m 8604.7515,1892.8064 c -5.36,0 -10.71,-0.27 -14.37,-0.84 l 0,-54.9612 c 2.54,-0.269 7.6,-0.558 13.24,-0.558 21.98,0 35.52,11.2811 35.52,29.0311 0,18.3201 -11.28,27.3281 -34.39,27.3281 z m 40.02,-161.4814 -51.3,78.6332 -3.09,0 0,-78.6332 -36.64,0 0,190.2314 c 14.94,0.84 32.69,1.141 54.67,1.141 42,0 69.05,-14.661 69.05,-53.5591 0,-28.18 -20.29,-48.4811 -46.78,-52.9921 5.07,-7.039 10.7,-14.078 15.21,-20.8481 l 44.25,-63.9731 -45.37,0"
         style="fill:#a7a5a6;fill-opacity:1;fill-rule:nonzero;stroke:none"
         id="path58" />
      <path
         inkscape:connector-curvature="0"
         d="m 8791.2015,1853.3573 c -3.38,9.3 -5.92,18.039 -7.89,26.2111 l -0.29,0 c -2.25,-8.1721 -4.51,-16.9111 -7.6,-26.2111 l -18.89,-54.1101 53.55,0 -18.88,54.1101 z m 41.42,-122.0323 -13.24,38.8911 -71.86,0 -13.26,-38.8911 -36.91,0 66.51,190.2314 41.43,0 67.92,-190.2314 -40.59,0"
         style="fill:#a7a5a6;fill-opacity:1;fill-rule:nonzero;stroke:none"
         id="path60" />
      <path
         inkscape:connector-curvature="0"
         d="m 5352.5015,1397.727 0,190.2197 103.43,0 0,-30.7191 -66.79,0 0,-46.7891 63.4,0 0,-29.8636 -63.4,0 0,-51.59 66.79,0 0,-31.2579 -103.43,0"
         style="fill:#a7a5a6;fill-opacity:1;fill-rule:nonzero;stroke:none"
         id="path62" />
      <path
         inkscape:connector-curvature="0"
         d="m 5589.6815,1560.1646 c -8.45,0 -16.34,-0.289 -22.26,-0.847 l 0,-128.2428 c 5.07,-0.8476 12.68,-1.3984 20.01,-1.3984 35.79,0 61.72,20.2891 61.72,65.379 0,40.8712 -16.07,65.1092 -59.47,65.1092 z m -5.91,-161.7696 c -19.73,0 -36.93,0.8399 -52.99,1.4102 l 0,189.6605 c 14.94,0.57 38.04,1.41 61.44,1.41 58.9,0 96.38,-26.2111 96.38,-93.0002 0,-65.3788 -42.83,-99.4805 -104.83,-99.4805"
         style="fill:#a7a5a6;fill-opacity:1;fill-rule:nonzero;stroke:none"
         id="path64" />
      <path
         inkscape:connector-curvature="0"
         d="m 5793.2715,1559.8756 c -26.21,0 -50.45,-20.859 -50.45,-63.6874 0,-40.3009 15.78,-66.5118 49.88,-66.5118 24.81,0 51.29,19.1719 51.29,64.8087 0,42.2935 -18.04,65.3905 -50.72,65.3905 z m -3.11,-163.4493 c -58.05,0 -86.52,36.9103 -86.52,95.8205 0,62.8518 41.99,100.6019 93.01,100.6019 50.73,0 86.52,-30.4341 86.52,-95.5432 0,-62.84 -41.44,-100.8792 -93.01,-100.8792"
         style="fill:#a7a5a6;fill-opacity:1;fill-rule:nonzero;stroke:none"
         id="path66" />
      <path
         inkscape:connector-curvature="0"
         d="m 6149.2015,1399.5161 -13.54,90.7502 c -2.81,17.1912 -4.5,32.1292 -5.92,45.3713 l -0.55,0 c -2.54,-12.1091 -5.37,-25.3711 -10.43,-40.5822 l -30.16,-95.5393 -36.36,0 -29.02,88.7815 c -5.36,16.0589 -9.31,31.8479 -12.12,47.34 l -0.57,0 c -1.13,-16.9101 -3.1,-31.8401 -5.35,-48.4728 l -10.71,-87.6487 -37.21,0 29.32,190.2386 42.83,0 31.86,-97.7969 c 3.66,-11.2813 7.32,-25.0822 10.7,-40.0197 l 0.28,0 c 3.11,14.6602 6.2,25.9298 10.71,39.4572 l 32.69,98.3594 42.56,0 29.59,-190.2386 -38.6,0"
         style="fill:#a7a5a6;fill-opacity:1;fill-rule:nonzero;stroke:none"
         id="path68" />
      <path
         inkscape:connector-curvature="0"
         d="m 6291.7415,1521.5475 c -3.37,9.3091 -5.91,18.0391 -7.89,26.2071 l -0.28,0 c -2.26,-8.168 -4.51,-16.898 -7.61,-26.2071 l -18.88,-54.1094 53.55,0 -18.89,54.1094 z m 41.43,-122.0314 -13.24,38.8986 -71.87,0 -13.25,-38.8986 -36.91,0 66.51,190.2386 41.43,0 67.92,-190.2386 -40.59,0"
         style="fill:#a7a5a6;fill-opacity:1;fill-rule:nonzero;stroke:none"
         id="path70" />
      <path
         inkscape:connector-curvature="0"
         d="m 6439.9515,1561.0166 c -5.36,0 -10.72,-0.301 -14.38,-0.852 l 0,-54.9491 c 2.54,-0.301 7.61,-0.57 13.24,-0.57 21.99,0 35.52,11.269 35.52,29.0191 0,18.321 -11.28,27.352 -34.38,27.352 z m 40.02,-161.5005 -51.3,78.6292 -3.1,0 0,-78.6292 -36.64,0 0,190.2386 c 14.94,0.852 32.7,1.121 54.68,1.121 41.99,0 69.04,-14.648 69.04,-53.5511 0,-28.1681 -20.28,-48.4567 -46.78,-52.9684 5.07,-7.0508 10.71,-14.1094 15.22,-20.8595 l 44.25,-63.9806 -45.37,0"
         style="fill:#a7a5a6;fill-opacity:1;fill-rule:nonzero;stroke:none"
         id="path72" />
      <g
         id="g5132"
         transform="matrix(22.707508,0,0,22.707508,211.47829,1713.7799)"
         style="fill:#a7a5a6;fill-opacity:1">
        <path
           inkscape:connector-curvature="0"
           d="m 0,0 c 2.125,-3.161 5.641,-5.313 9.673,-5.575 l -0.199,1.39 C 6.215,-3.892 3.355,-2.211 1.492,0.266 1.402,0.27 0.105,0.051 0,0 m 9.81,30.039 0,-10.137 0,-3.566 -5.705,0.004 c 1.555,1.074 3.391,1.773 5.376,1.953 L 9.669,19.68 C 5.758,19.422 2.332,17.391 0.191,14.379 0.012,14.375 -0.121,14.336 -0.207,14.273 -0.215,14.27 -0.215,14.262 -0.219,14.262 L -1.32,12.113 C -1.332,12.098 -1.355,12 -1.332,11.902 c 0.043,0.266 0.215,0.274 0.375,0.274 0.586,0 1.762,-0.395 3.305,-1.071 l 0,-1.675 C 2.289,9.422 2.227,9.41 2.172,9.398 1.09,9.188 0.105,8.922 -0.668,8.641 c 0.129,0.922 0.371,1.808 0.707,2.64 -0.074,0.102 -1.105,0.75 -1.164,0.766 C -1.676,10.766 -2.02,9.375 -2.117,7.918 -2.223,7.832 -2.289,7.746 -2.316,7.668 l -0.004,-0.004 0,-1.434 c 0,-0.058 0.066,-0.089 0.09,-0.109 -0.067,0.074 0.007,0.172 0.035,0.203 0.043,0.059 0.101,0.117 0.168,0.172 0.062,0.051 0.132,0.106 0.214,0.156 0.211,0.133 0.485,0.27 0.801,0.399 0.078,0.031 0.153,0.058 0.235,0.09 0.859,0.328 1.968,0.625 2.996,0.828 l 0.129,0.023 0,-2.457 C 2.348,4.586 2.52,3.668 2.832,2.801 2.457,2.711 2.082,2.621 1.727,2.516 1.266,2.383 0.797,2.23 0.383,2.063 -0.285,3.41 -0.688,4.906 -0.766,6.492 -0.844,6.5 -2.012,6.285 -2.121,6.23 -2.008,4.496 -1.547,2.855 -0.809,1.383 -0.859,1.316 -0.891,1.254 -0.898,1.195 c 0,0 0,-0.015 0.007,-0.019 0,0 0.657,-1.129 0.688,-1.18 0.031,-0.051 0.094,-0.086 0.148,-0.101 -0.101,0.07 -0.054,0.148 -0.031,0.179 C 0.184,0.449 1.32,0.91 2.113,1.125 2.543,1.25 2.996,1.359 3.461,1.461 3.813,0.859 4.238,0.297 4.746,-0.207 6.145,-1.598 7.918,-2.426 9.81,-2.59 l 0,-3.188 0,-0.008 C -7.191,-10.462 -9.313,-26.669 -9.313,-26.669 l 0,25.216 c 0,16.625 6.438,27.406 19.123,31.492 m 1.414,-11.723 0,-1.98 5.699,-0.008 c -1.637,1.137 -3.59,1.856 -5.699,1.988 M 33.854,4.908 C 30.507,-19.146 6.09,-6.175 -6.18,-21.075 c 2.59,6.777 11.395,11.601 17.404,12.793 l 0,2.699 c 3.734,0.211 7.031,2.035 9.211,4.79 -0.039,0.043 -1.098,0.633 -1.223,0.66 -1.926,-2.332 -4.774,-3.876 -7.988,-4.075 l 0,1.622 c 1.902,0.164 3.672,0.984 5.047,2.356 0.632,0.632 1.144,1.351 1.531,2.121 1.535,-1.172 2.469,-2.047 2.679,-2.485 0.192,-0.402 -0.043,-0.414 -0.078,-0.433 0.121,0.007 0.188,0.078 0.223,0.136 0.035,0.055 0.141,0.227 0.141,0.227 0.039,0.043 1.144,1.707 1.144,1.707 0.055,0.105 0.039,0.254 -0.043,0.43 0.715,1.453 1.16,3.062 1.27,4.765 -0.11,0.055 -1.258,0.297 -1.352,0.293 -0.062,-1.375 -0.371,-2.687 -0.883,-3.894 -0.578,0.551 -1.371,1.195 -2.3,1.886 0.039,0.332 0.066,0.661 0.066,0.997 l 0,2.472 0.129,-0.023 c 1.848,-0.367 3.949,-1.024 4.414,-1.645 0.031,-0.031 0.098,-0.129 0.035,-0.203 0.027,0.02 0.086,0.051 0.086,0.109 l 0,1.438 c -0.027,0.078 -0.098,0.164 -0.199,0.25 -0.113,1.652 -0.539,3.219 -1.227,4.637 -0.144,0.039 -1.562,0.172 -1.636,0.172 0.718,-1.231 1.21,-2.614 1.417,-4.086 -0.773,0.281 -1.761,0.547 -2.843,0.757 -0.059,0.012 -0.117,0.024 -0.176,0.032 l 0,4.226 c 1.543,-0.328 2.711,-0.687 3.281,-1.019 0.125,-0.078 0.074,-0.133 0.028,-0.149 0.082,0.028 0.125,0.102 0.089,0.164 -0.035,0.063 -0.765,1.371 -0.789,1.411 l -0.011,0.011 c -0.098,0.074 -0.227,0.149 -0.387,0.227 -2.156,3.086 -5.66,5.164 -9.656,5.387 l 0,0.214 0,5.371 c 0,0 9.652,3.661 23.386,4.438 0,0 -0.043,-11.477 -0.41,-20.801 C 34.144,7.473 34.026,6.143 33.854,4.908 m -16.869,8.483 -0.945,0 c 0.02,0.578 0.469,0.711 0.469,0.711 l 0.008,0 c 0,0 0.441,-0.133 0.468,-0.711 M 6.836,1.32 6.168,0.645 C 5.77,1.074 5.992,1.484 5.996,1.484 c 0.008,0 0.41,0.227 0.84,-0.164 m 8.224,0.164 c 0.003,0 0.218,-0.41 -0.172,-0.839 L 14.22,1.32 c 0.433,0.391 0.832,0.164 0.836,0.164 l 0.004,0 z m -4.079,11.907 -0.941,0 c 0.016,0.578 0.461,0.711 0.465,0.711 0.004,0 0.449,-0.133 0.476,-0.711 m 6.004,-6.254 -0.945,0 c 0.02,0.578 0.469,0.711 0.469,0.711 l 0.008,0 c 0,0 0.441,-0.133 0.468,-0.711 m -12.071,6.254 -0.937,0 c 0.019,0.578 0.464,0.711 0.468,0.711 0.004,0 0.446,-0.133 0.469,-0.711 m 0,-6.254 -0.937,0 c 0.019,0.578 0.464,0.711 0.468,0.711 0.004,0 0.446,-0.133 0.469,-0.711 m 12.595,5.91 -1.992,0 c -0.094,0 -0.168,0.078 -0.168,0.168 0,0.094 0.074,0.176 0.168,0.176 l 0.035,0 0.066,0.691 c -0.094,0.008 -0.156,0.078 -0.156,0.168 0,0.102 0.074,0.172 0.172,0.172 l 0.015,0 0.02,0.312 -0.02,0 -0.058,0 c -0.012,0 -0.031,0.02 -0.031,0.036 l 0,0.218 0.101,0 0,-0.113 0.145,0 0,0.113 0.101,0 0,-0.113 0.149,0 0,0.113 0.105,0 0,-0.222 c 0,-0.02 -0.023,-0.032 -0.035,-0.032 l -0.059,0 -0.015,0 0.015,-0.312 0.196,0 0.039,0.668 -0.055,0 c -0.019,0.004 -0.035,0.023 -0.035,0.035 l 0,0.215 0.101,0 0,-0.102 0.145,0 0,0.102 0.105,0 0,-0.102 0.145,0 0,0.102 0.102,0 0,-0.215 c 0,-0.027 -0.016,-0.035 -0.036,-0.035 l -0.054,0 0.043,-0.668 0.187,0 0.02,0.312 -0.02,0 -0.054,0 c -0.024,0 -0.036,0.02 -0.036,0.036 l 0,0.218 0.098,0 0,-0.113 0.145,0 0,0.113 0.109,0 0,-0.113 0.144,0 0,0.113 0.098,0 0,-0.222 c 0,-0.02 -0.012,-0.032 -0.031,-0.032 l -0.055,0 -0.019,0 0.019,-0.312 0.02,0 c 0.097,0 0.175,-0.07 0.175,-0.172 0,-0.09 -0.07,-0.164 -0.16,-0.172 l 0.075,-0.687 0.031,0 c 0.094,0 0.168,-0.082 0.168,-0.176 0,-0.09 -0.074,-0.168 -0.168,-0.168 m 0,-6.242 -1.992,0 c -0.094,0 -0.168,0.07 -0.168,0.16 0,0.098 0.074,0.172 0.168,0.172 l 0.035,0 0.066,0.695 C 15.524,7.844 15.462,7.914 15.462,8 c 0,0.098 0.074,0.176 0.172,0.176 l 0.015,0 0.02,0.308 -0.02,0 -0.058,0 c -0.012,0 -0.031,0.02 -0.031,0.036 l 0,0.218 0.101,0 0,-0.113 0.145,0 0,0.113 0.101,0 0,-0.113 0.149,0 0,0.113 0.105,0 0,-0.218 c 0,-0.024 -0.023,-0.036 -0.035,-0.036 l -0.059,0 -0.015,0 0.015,-0.308 0.196,0 0.039,0.668 -0.055,0 c -0.019,0 -0.035,0.019 -0.035,0.035 l 0,0.215 0.101,0 0,-0.11 0.145,0 0,0.11 0.105,0 0,-0.11 0.145,0 0,0.11 0.102,0 0,-0.223 c 0,-0.019 -0.016,-0.027 -0.036,-0.027 l -0.054,0 0.043,-0.668 0.187,0 0.02,0.308 -0.02,0 -0.054,0 c -0.024,0 -0.036,0.02 -0.036,0.036 l 0,0.218 0.098,0 0,-0.113 0.145,0 0,0.113 0.109,0 0,-0.113 0.144,0 0,0.113 0.098,0 0,-0.218 c 0,-0.024 -0.012,-0.036 -0.031,-0.036 l -0.055,0 -0.019,0 0.019,-0.308 0.02,0 c 0.097,0 0.175,-0.078 0.175,-0.176 0,-0.09 -0.07,-0.16 -0.16,-0.168 l 0.075,-0.695 0.031,0 c 0.094,0 0.168,-0.074 0.168,-0.172 0,-0.09 -0.074,-0.16 -0.168,-0.16 M 16.208,1.281 c -0.016,-0.008 -0.035,-0.011 -0.051,0 L 16.118,1.324 16.103,1.336 15.899,1.109 15.907,1.102 c 0.074,-0.075 0.074,-0.188 0,-0.25 -0.058,-0.067 -0.16,-0.067 -0.23,-0.02 L 15.235,0.301 15.259,0.277 c 0.066,-0.062 0.066,-0.172 0,-0.238 -0.071,-0.074 -0.18,-0.074 -0.242,0 l -1.411,1.402 c -0.062,0.071 -0.062,0.176 0,0.239 0.075,0.074 0.18,0.074 0.25,0.008 l 0.02,-0.028 0.535,0.438 c -0.055,0.074 -0.055,0.172 0.012,0.238 0.07,0.066 0.183,0.066 0.246,0 L 14.688,2.32 14.915,2.527 14.899,2.535 14.864,2.578 C 14.849,2.586 14.845,2.609 14.86,2.625 l 0.157,0.152 0.074,-0.066 -0.082,-0.082 0.105,-0.102 0.074,0.078 0.079,-0.074 -0.079,-0.078 0.102,-0.101 0.074,0.07 0.074,-0.067 -0.156,-0.152 c -0.004,-0.012 -0.031,-0.012 -0.047,0 l -0.039,0.035 -0.011,0.016 -0.2,-0.227 0.129,-0.132 0.5,0.441 -0.035,0.031 c -0.016,0.016 -0.023,0.039 -0.008,0.051 l 0.16,0.16 0.067,-0.07 L 15.72,2.426 15.829,2.324 15.899,2.402 15.974,2.324 15.899,2.25 16.005,2.145 16.083,2.219 16.149,2.148 15.997,2 C 15.989,1.984 15.966,1.984 15.946,2 l -0.039,0.039 -0.441,-0.496 0.137,-0.137 0.23,0.196 -0.012,0.015 -0.039,0.039 c -0.011,0.012 -0.019,0.032 0,0.047 L 15.938,1.859 16.005,1.785 15.931,1.711 16.032,1.605 16.11,1.688 16.185,1.609 16.11,1.535 16.212,1.434 16.286,1.508 16.356,1.438 16.208,1.281 z M 7.285,2.332 C 6.414,3.199 5.938,4.328 5.938,5.508 l 0.007,7.187 9.079,-0.004 0,-7.187 C 15.024,4.305 14.556,3.18 13.7,2.332 12.837,1.469 11.7,1 10.493,1 9.286,1 8.145,1.473 7.285,2.332 M 7.449,1.441 6.043,0.039 c -0.066,-0.074 -0.176,-0.074 -0.246,0 -0.067,0.066 -0.067,0.176 0,0.238 L 5.82,0.301 5.383,0.832 C 5.309,0.785 5.207,0.785 5.145,0.852 c -0.071,0.062 -0.071,0.175 0,0.25 L 5.152,1.109 4.953,1.336 4.938,1.324 4.898,1.281 C 4.887,1.27 4.863,1.273 4.852,1.281 L 4.699,1.438 4.766,1.508 4.848,1.434 4.949,1.535 4.871,1.609 4.949,1.688 5.023,1.605 5.129,1.711 5.047,1.785 5.117,1.859 5.273,1.703 c 0.016,-0.015 0.012,-0.035 0,-0.047 L 5.234,1.617 5.223,1.602 5.453,1.406 5.59,1.543 5.145,2.039 5.109,2 C 5.094,1.984 5.066,1.984 5.059,2 L 4.906,2.148 4.977,2.219 5.055,2.145 5.156,2.25 5.082,2.324 5.152,2.402 5.234,2.324 5.336,2.426 5.258,2.508 5.336,2.578 5.484,2.418 C 5.5,2.406 5.496,2.383 5.484,2.367 L 5.441,2.336 5.941,1.895 6.074,2.027 5.871,2.254 5.855,2.238 5.82,2.203 C 5.805,2.191 5.777,2.191 5.766,2.203 L 5.617,2.355 5.691,2.422 5.766,2.352 5.867,2.453 5.789,2.531 5.867,2.605 5.941,2.527 6.047,2.629 5.969,2.711 6.043,2.777 6.195,2.625 c 0.016,-0.016 0.012,-0.039 0,-0.047 L 6.156,2.535 6.141,2.527 6.367,2.32 6.387,2.336 c 0.062,0.066 0.179,0.066 0.246,0 C 6.695,2.27 6.695,2.172 6.645,2.098 L 7.18,1.66 7.203,1.688 C 7.27,1.754 7.379,1.754 7.449,1.68 7.512,1.617 7.512,1.512 7.449,1.441 M 3.281,6.965 c 0,0.098 0.078,0.172 0.168,0.172 l 0.035,0 0.067,0.695 C 3.461,7.844 3.391,7.914 3.391,8 c 0,0.098 0.082,0.176 0.175,0.176 l 0.016,0 0.016,0.308 -0.02,0 -0.051,0 c -0.019,0 -0.035,0.02 -0.035,0.036 l 0,0.218 0.098,0 0,-0.113 0.148,0 0,0.113 0.106,0 0,-0.113 0.144,0 0,0.113 0.106,0 0,-0.218 C 4.094,8.496 4.07,8.484 4.059,8.484 L 4,8.484 3.984,8.484 4,8.176 l 0.195,0 0.039,0.668 -0.054,0 c -0.02,0 -0.035,0.019 -0.035,0.035 l 0,0.215 0.101,0 0,-0.11 0.145,0 0,0.11 0.105,0 0,-0.11 0.141,0 0,0.11 0.105,0 0,-0.223 C 4.742,8.852 4.727,8.844 4.707,8.844 l -0.055,0 0.039,-0.668 0.192,0 0.015,0.308 -0.015,0 -0.059,0 c -0.015,0 -0.031,0.02 -0.031,0.036 l 0,0.218 0.098,0 0,-0.113 0.144,0 0,0.113 0.11,0 0,-0.113 0.144,0 0,0.113 0.102,0 0,-0.218 c 0,-0.024 -0.02,-0.036 -0.032,-0.036 l -0.058,0 -0.02,0 0.02,-0.308 0.019,0 C 5.418,8.176 5.496,8.098 5.496,8 5.496,7.91 5.43,7.84 5.336,7.832 l 0.07,-0.695 0.032,0 c 0.097,0 0.175,-0.074 0.175,-0.172 0,-0.09 -0.078,-0.16 -0.175,-0.16 l -1.989,0 c -0.09,0 -0.168,0.07 -0.168,0.16 m 0.168,6.426 0.035,0 0.067,0.691 c -0.09,0.008 -0.16,0.078 -0.16,0.168 0,0.102 0.082,0.172 0.175,0.172 l 0.016,0 0.016,0.312 -0.02,0 -0.051,0 c -0.019,0 -0.035,0.02 -0.035,0.036 l 0,0.218 0.098,0 0,-0.113 0.148,0 0,0.113 0.106,0 0,-0.113 0.144,0 0,0.113 0.106,0 0,-0.222 c 0,-0.02 -0.024,-0.032 -0.035,-0.032 l -0.059,0 -0.016,0 0.016,-0.312 0.195,0 0.039,0.668 -0.054,0 c -0.02,0.004 -0.035,0.023 -0.035,0.035 l 0,0.215 0.101,0 0,-0.102 0.145,0 0,0.102 0.105,0 0,-0.102 0.141,0 0,0.102 0.105,0 0,-0.215 c 0,-0.027 -0.015,-0.035 -0.035,-0.035 l -0.055,0 0.039,-0.668 0.192,0 0.015,0.312 -0.015,0 -0.059,0 c -0.015,0 -0.031,0.02 -0.031,0.036 l 0,0.218 0.098,0 0,-0.113 0.144,0 0,0.113 0.11,0 0,-0.113 0.144,0 0,0.113 0.102,0 0,-0.222 c 0,-0.02 -0.02,-0.032 -0.032,-0.032 l -0.058,0 -0.02,0 0.02,-0.312 0.019,0 c 0.098,0 0.176,-0.07 0.176,-0.172 0,-0.09 -0.066,-0.164 -0.16,-0.172 l 0.07,-0.687 0.032,0 c 0.097,0 0.175,-0.082 0.175,-0.176 0,-0.09 -0.078,-0.168 -0.175,-0.168 l -1.989,0 c -0.09,0 -0.168,0.078 -0.168,0.168 0,0.094 0.078,0.176 0.168,0.176 m 6.068,0 0.023,0 0.074,0.691 c -0.09,0.008 -0.16,0.078 -0.16,0.168 0,0.102 0.078,0.172 0.176,0.172 l 0.016,0 0.019,0.312 -0.019,0 -0.059,0 c -0.016,0 -0.031,0.02 -0.031,0.036 l 0,0.218 0.097,0 0,-0.113 0.153,0 0,0.113 0.097,0 0,-0.113 0.145,0 0,0.113 0.109,0 0,-0.222 c 0,-0.02 -0.023,-0.032 -0.039,-0.032 l -0.058,0 -0.016,0 0.023,-0.312 0.192,0 0.039,0.668 -0.055,0 c -0.019,0.004 -0.035,0.023 -0.035,0.035 l 0,0.215 0.094,0 0,-0.102 0.152,0 0,0.102 0.102,0 0,-0.102 0.148,0 0,0.102 0.102,0 0,-0.215 c 0,-0.027 -0.024,-0.035 -0.035,-0.035 l -0.055,0 0.035,-0.668 0.191,0 0.02,0.312 -0.024,0 -0.05,0 c -0.016,0 -0.035,0.02 -0.035,0.036 l 0,0.218 0.101,0 0,-0.113 0.145,0 0,0.113 0.105,0 0,-0.113 0.149,0 0,0.113 0.097,0 0,-0.222 c 0,-0.02 -0.015,-0.032 -0.031,-0.032 l -0.055,0 -0.023,0 0.023,-0.312 0.02,0 c 0.097,0 0.176,-0.07 0.176,-0.172 0,-0.09 -0.071,-0.164 -0.161,-0.172 l 0.067,-0.687 0.035,0 c 0.094,0 0.172,-0.082 0.172,-0.176 0,-0.09 -0.078,-0.168 -0.172,-0.168 l -1.984,0 c -0.098,0 -0.172,0.078 -0.172,0.168 0,0.094 0.074,0.176 0.172,0.176 m -6.619,2.355 -0.011,-10.23 0,-0.008 c 0,-2.07 0.859,-3.957 2.242,-5.332 1.375,-1.379 3.277,-2.231 5.364,-2.231 2.09,0 3.985,0.848 5.36,2.223 1.375,1.359 2.226,3.254 2.226,5.336 l 0,10.242 -15.181,0 z m 10.9,-8.43 c -0.125,0 -0.227,0.106 -0.227,0.231 0,0.125 0.102,0.23 0.227,0.23 0.129,0 0.23,-0.105 0.23,-0.23 0,-0.125 -0.101,-0.231 -0.23,-0.231 m 0,-1.027 c -0.125,0 -0.227,0.102 -0.227,0.231 0,0.125 0.102,0.226 0.227,0.226 0.129,0 0.23,-0.101 0.23,-0.226 0,-0.129 -0.101,-0.231 -0.23,-0.231 m -0.516,0.516 c -0.125,0 -0.226,0.101 -0.226,0.226 0,0.129 0.101,0.231 0.226,0.231 0.129,0 0.231,-0.102 0.231,-0.231 0,-0.125 -0.102,-0.226 -0.231,-0.226 m -0.511,0.511 c -0.125,0 -0.231,0.106 -0.231,0.231 0,0.125 0.106,0.23 0.231,0.23 0.125,0 0.226,-0.105 0.226,-0.23 0,-0.125 -0.101,-0.231 -0.226,-0.231 m 0,-1.027 c -0.125,0 -0.231,0.102 -0.231,0.231 0,0.125 0.106,0.226 0.231,0.226 0.125,0 0.226,-0.101 0.226,-0.226 0,-0.129 -0.101,-0.231 -0.226,-0.231 m -0.493,1.824 0,-1.433 c 0,-0.711 0.571,-1.075 1.004,-1.075 0.438,0 1.008,0.364 1.008,1.075 l 0,1.433 -2.012,0 z M 7.219,6.746 c 0.125,0 0.226,-0.101 0.226,-0.226 0,-0.129 -0.101,-0.231 -0.226,-0.231 -0.125,0 -0.231,0.102 -0.231,0.231 0,0.125 0.106,0.226 0.231,0.226 m 0,1.031 c 0.125,0 0.226,-0.105 0.226,-0.23 0,-0.125 -0.101,-0.231 -0.226,-0.231 -0.125,0 -0.231,0.106 -0.231,0.231 0,0.125 0.106,0.23 0.231,0.23 M 7.73,7.262 c 0.125,0 0.231,-0.102 0.231,-0.231 0,-0.125 -0.106,-0.226 -0.231,-0.226 -0.125,0 -0.226,0.101 -0.226,0.226 0,0.129 0.101,0.231 0.226,0.231 M 8.246,6.746 c 0.125,0 0.231,-0.101 0.231,-0.226 0,-0.129 -0.106,-0.231 -0.231,-0.231 -0.125,0 -0.23,0.102 -0.23,0.231 0,0.125 0.105,0.226 0.23,0.226 m 0,1.031 c 0.125,0 0.231,-0.105 0.231,-0.23 0,-0.125 -0.106,-0.231 -0.231,-0.231 -0.125,0 -0.23,0.106 -0.23,0.231 0,0.125 0.105,0.23 0.23,0.23 M 6.727,6.68 c 0,-0.711 0.57,-1.075 1.003,-1.075 0.434,0 1.009,0.364 1.009,1.075 l 0,1.433 -2.012,0 0,-1.433 z m 3.04,-0.16 c 0,0.125 0.101,0.226 0.23,0.226 0.125,0 0.227,-0.101 0.227,-0.226 0,-0.129 -0.102,-0.231 -0.227,-0.231 -0.129,0 -0.23,0.102 -0.23,0.231 m 0.23,1.257 c 0.125,0 0.227,-0.105 0.227,-0.23 0,-0.125 -0.102,-0.231 -0.227,-0.231 -0.129,0 -0.23,0.106 -0.23,0.231 0,0.125 0.101,0.23 0.23,0.23 m 0.512,-0.515 c 0.125,0 0.226,-0.102 0.226,-0.231 0,-0.125 -0.101,-0.226 -0.226,-0.226 -0.125,0 -0.227,0.101 -0.227,0.226 0,0.129 0.102,0.231 0.227,0.231 m 0.515,-0.516 c 0.125,0 0.227,-0.101 0.227,-0.226 0,-0.129 -0.102,-0.231 -0.227,-0.231 -0.128,0 -0.23,0.102 -0.23,0.231 0,0.125 0.102,0.226 0.23,0.226 m 0,1.031 c 0.125,0 0.227,-0.105 0.227,-0.23 0,-0.125 -0.102,-0.231 -0.227,-0.231 -0.128,0 -0.23,0.106 -0.23,0.231 0,0.125 0.102,0.23 0.23,0.23 M 10.509,5.605 c 0.433,0 1.004,0.364 1.004,1.075 l 0,1.433 -2.008,0 0,-1.433 c 0,-0.711 0.57,-1.075 1.004,-1.075 M 9.997,3.277 c 0.125,0 0.227,-0.101 0.227,-0.226 0,-0.125 -0.102,-0.231 -0.227,-0.231 -0.129,0 -0.23,0.106 -0.23,0.231 0,0.125 0.101,0.226 0.23,0.226 m 0,1.032 c 0.125,0 0.227,-0.106 0.227,-0.231 0,-0.125 -0.102,-0.226 -0.227,-0.226 -0.129,0 -0.23,0.101 -0.23,0.226 0,0.125 0.101,0.231 0.23,0.231 m 0.512,-0.516 c 0.125,0 0.226,-0.102 0.226,-0.23 0,-0.125 -0.101,-0.227 -0.226,-0.227 -0.125,0 -0.227,0.102 -0.227,0.227 0,0.128 0.102,0.23 0.227,0.23 m 0.515,-0.516 c 0.125,0 0.227,-0.101 0.227,-0.226 0,-0.125 -0.102,-0.231 -0.227,-0.231 -0.128,0 -0.23,0.106 -0.23,0.231 0,0.125 0.102,0.226 0.23,0.226 m 0,1.032 c 0.125,0 0.227,-0.106 0.227,-0.231 0,-0.125 -0.102,-0.226 -0.227,-0.226 -0.128,0 -0.23,0.101 -0.23,0.226 0,0.125 0.102,0.231 0.23,0.231 M 9.505,3.207 c 0,-0.707 0.57,-1.07 1.004,-1.07 0.433,0 1.004,0.363 1.004,1.07 l 0,1.441 -2.008,0 0,-1.441 z m 0.492,7.008 c 0.125,0 0.227,-0.102 0.227,-0.227 0,-0.129 -0.102,-0.23 -0.227,-0.23 -0.129,0 -0.23,0.101 -0.23,0.23 0,0.125 0.101,0.227 0.23,0.227 m 0,1.031 c 0.125,0 0.227,-0.105 0.227,-0.23 0,-0.125 -0.102,-0.227 -0.227,-0.227 -0.129,0 -0.23,0.102 -0.23,0.227 0,0.125 0.101,0.23 0.23,0.23 m 0.512,-0.516 c 0.125,0 0.226,-0.101 0.226,-0.23 0,-0.125 -0.101,-0.227 -0.226,-0.227 -0.125,0 -0.227,0.102 -0.227,0.227 0,0.129 0.102,0.23 0.227,0.23 m 0.515,-0.515 c 0.125,0 0.227,-0.102 0.227,-0.227 0,-0.129 -0.102,-0.23 -0.227,-0.23 -0.128,0 -0.23,0.101 -0.23,0.23 0,0.125 0.102,0.227 0.23,0.227 m 0,1.031 c 0.125,0 0.227,-0.105 0.227,-0.23 0,-0.125 -0.102,-0.227 -0.227,-0.227 -0.128,0 -0.23,0.102 -0.23,0.227 0,0.125 0.102,0.23 0.23,0.23 M 9.505,10.148 c 0,-0.71 0.57,-1.074 1.004,-1.074 0.433,0 1.004,0.364 1.004,1.074 l 0,1.438 -2.008,0 0,-1.438 z M 7.66,-16.79 l 0,-4.359 0,-11.172 c 0,0 -15.926,-0.293 -15.191,6.422 1.195,7.98 15.191,9.109 15.191,9.109 m 162.753,18.966 0,0.98 c 0.59,0.145 1.301,0.246 1.984,0.301 l 0,12.813 c -0.683,0.05 -1.394,0.164 -1.984,0.3 l 0,0.977 10.078,0 0,-3.41 -1.16,0 c -0.137,0.746 -0.301,1.5 -0.344,2.047 l -4.863,0 0,-5.422 3.574,0 c 0.094,0.59 0.207,1.16 0.367,1.664 l 1.028,0 0,-4.645 -1.028,0 c -0.16,0.496 -0.296,1.117 -0.367,1.664 l -3.574,0 0,-5.847 4.887,0 c 0.07,0.586 0.203,1.34 0.367,2.086 l 1.152,0 0,-3.508 -10.117,0 z m -8.687,14.027 c -0.848,0 -1.872,-0.043 -2.504,-0.062 l 0,-12.434 c 0.632,-0.094 1.566,-0.16 2.203,-0.16 3.894,0 6.582,1.98 6.582,6.351 0,4.165 -2.117,6.305 -6.281,6.305 M 161.202,2.117 c -1.527,0 -2.828,0.059 -3.715,0.059 l -1.981,0 0,0.98 c 0.59,0.145 1.301,0.246 1.981,0.301 l 0,12.813 c -0.68,0.05 -1.391,0.164 -1.981,0.3 l 0,0.977 1.962,0 c 1.199,0 2.863,0.066 4.461,0.066 4.98,0 7.89,-2.367 7.89,-7.601 0,-5.278 -3.57,-7.895 -8.617,-7.895 m -18.77,14.133 c -2.719,0 -5.129,-2.207 -5.129,-6.238 0,-3.844 1.668,-6.508 5.129,-6.508 2.679,0 5.14,2.18 5.14,6.262 0,4.117 -1.89,6.484 -5.14,6.484 M 142.244,1.973 c -4.594,0 -6.808,3.082 -6.808,7.718 0,5.176 3.261,8.063 7.214,8.063 4.164,0 6.786,-2.777 6.786,-7.719 0,-5.148 -3.254,-8.062 -7.192,-8.062 m -9.445,14.277 0,-14.074 -2.32,0 -6.442,10.203 c -0.687,1.121 -1.281,2.141 -1.777,3.141 0.156,-2.75 0.156,-7.243 0.156,-12.04 0.641,-0.05 1.32,-0.156 1.891,-0.324 l 0,-0.98 -5.575,0 0,0.98 c 0.59,0.145 1.297,0.274 1.981,0.324 l 0,12.79 c -0.684,0.05 -1.391,0.164 -1.981,0.3 l 0,0.977 4.305,0 6.371,-10.082 c 0.66,-1.07 1.25,-2.098 1.821,-3.188 -0.137,2.707 -0.157,7.172 -0.157,11.973 -0.636,0.043 -1.304,0.168 -1.843,0.32 l 0,0.977 5.191,0 0,-0.977 c -0.504,-0.136 -1.074,-0.25 -1.621,-0.32 m -21.637,-0.023 c -0.574,0 -1.043,-0.024 -1.508,-0.067 l 0,-5.535 c 0.258,-0.02 0.731,-0.043 1.418,-0.043 2.367,0 3.735,1.211 3.735,2.918 0,1.996 -1.297,2.727 -3.645,2.727 m 3.598,-14.051 -4.735,7.109 -0.371,0 0,-5.828 c 0.617,-0.055 1.278,-0.133 1.828,-0.301 l 0,-0.98 -5.535,0 0,0.98 c 0.594,0.145 1.301,0.246 1.985,0.301 l 0,12.813 c -0.684,0.05 -1.391,0.164 -1.985,0.3 l 0,0.977 1.754,0 c 0.617,0 2.004,0.066 3.848,0.066 2.894,0 5.074,-0.996 5.074,-3.867 0,-2.621 -2.043,-4.121 -4.711,-4.301 0.387,-0.457 0.777,-1 1.121,-1.504 L 116.1,3.504 c 0.546,-0.074 1.207,-0.18 1.894,-0.316 l 0,-1.012 -3.234,0 z m -20.684,0 0,0.98 c 0.594,0.145 1.301,0.246 1.985,0.301 l 0,12.813 c -0.684,0.05 -1.391,0.164 -1.985,0.3 l 0,0.977 10.082,0 0,-3.41 -1.168,0 c -0.133,0.746 -0.293,1.5 -0.34,2.047 l -4.859,0 0,-5.422 3.578,0 c 0.09,0.59 0.199,1.16 0.36,1.664 l 1.023,0 0,-4.645 -1.023,0 c -0.161,0.496 -0.301,1.117 -0.36,1.664 l -3.578,0 0,-5.847 4.883,0 c 0.066,0.586 0.207,1.34 0.367,2.086 l 1.16,0 0,-3.508 -10.125,0 z m -9.523,5.148 c 0.32,-0.91 0.75,-2.113 1.07,-3.281 l 0.023,0 c 0.297,1.121 0.68,2.234 1.098,3.422 l 3.203,8.805 c -0.633,0.05 -1.293,0.164 -1.867,0.3 l 0,0.977 5.121,0 0,-0.977 c -0.383,-0.113 -1,-0.226 -1.433,-0.277 l -5.235,-14.117 -1.933,0 -5.079,14.117 c -0.429,0.051 -1.042,0.164 -1.429,0.277 l 0,0.977 5.273,0 0,-0.977 c -0.558,-0.136 -1.25,-0.25 -1.883,-0.3 L 84.553,7.324 z M 71.182,16.25 c -2.703,0 -5.114,-2.207 -5.114,-6.238 0,-3.844 1.653,-6.508 5.114,-6.508 2.687,0 5.152,2.18 5.152,6.262 0,4.117 -1.891,6.484 -5.152,6.484 M 70.994,1.973 c -4.598,0 -6.797,3.082 -6.797,7.718 0,5.176 3.25,8.063 7.215,8.063 4.164,0 6.781,-2.777 6.781,-7.719 0,-5.148 -3.254,-8.062 -7.199,-8.062 M 61.6,8.641 61.6,2.844 C 60.053,2.281 58.205,1.973 56.592,1.973 c -4.578,0 -7.582,2.832 -7.582,7.609 0,4.688 3.074,8.172 8.148,8.172 1.414,0 2.758,-0.207 4.098,-0.574 l 0,-3.391 -1.188,0 c -0.152,0.774 -0.246,1.457 -0.297,2.098 -0.953,0.254 -1.91,0.383 -2.796,0.383 -3.231,0 -6.114,-2.098 -6.114,-6.465 0,-4.047 2.403,-6.325 6.004,-6.325 1.11,0 2.067,0.161 2.981,0.454 l 0,4.691 c -0.684,0.043 -1.387,0.156 -1.957,0.316 l 0,0.977 5.281,0 0,-0.977 C 62.689,8.805 62.143,8.715 61.6,8.641 m 110.665,-28.501 0,2.207 c 0.714,0.14 1.562,0.273 2.382,0.328 l 0,13.359 c -0.82,0.059 -1.668,0.188 -2.382,0.328 l 0,2.216 8.308,0 0,-2.216 c -0.707,-0.14 -1.558,-0.269 -2.383,-0.328 l 0,-12.972 3.532,0 c 0.054,0.656 0.191,1.445 0.332,2.265 l 2.617,0 0,-5.187 -12.406,0 z M 162.8,-7.876 c -0.352,1.012 -0.625,1.887 -0.844,2.902 l -0.027,0 c -0.227,-0.929 -0.492,-2 -0.875,-3.027 l -1.586,-4.41 4.972,0 -1.64,4.535 z m 1.367,-11.984 0,2.207 c 0.574,0.109 1.312,0.25 1.937,0.293 l -0.789,2.187 -6.722,0 -0.762,-2.187 c 0.629,-0.043 1.367,-0.184 1.941,-0.293 l 0,-2.207 -6.938,0 0,2.207 c 0.437,0.14 0.98,0.25 1.437,0.273 l 5.634,15.958 4.344,0 5.738,-15.958 c 0.465,-0.023 1.012,-0.133 1.45,-0.273 l 0,-2.207 -7.27,0 z m -12.833,7.125 0,-6.258 c -1.828,-0.738 -4.125,-1.145 -6.359,-1.145 -5.825,0 -9.262,3.446 -9.262,9.063 0,5.879 3.933,9.923 10.215,9.923 1.718,0 3.441,-0.246 5.136,-0.684 l 0,-4.946 -2.734,0 c -0.156,0.793 -0.242,1.5 -0.328,2.215 -0.738,0.203 -1.531,0.277 -2.262,0.277 -3.582,0 -6.176,-2.27 -6.176,-6.449 0,-3.91 2.129,-6.199 5.879,-6.199 0.868,0 1.633,0.101 2.34,0.324 l 0,3.851 c -0.816,0.055 -1.664,0.188 -2.34,0.352 l 0,2.219 7.43,0 0,-2.27 c -0.5,-0.113 -1.019,-0.191 -1.539,-0.273 m -18.32,8.769 0,-8.824 c 0,-4.887 -2.703,-7.375 -7.621,-7.375 -5.825,0 -7.129,3.172 -7.129,6.691 l 0,9.508 c -0.606,0.059 -1.203,0.16 -1.723,0.305 l 0,2.239 7.23,0 0,-2.239 c -0.621,-0.164 -1.332,-0.246 -1.96,-0.305 l 0,-9.285 c 0,-2.328 0.738,-3.965 3.8,-3.965 2.731,0 3.903,1.145 3.903,4.289 l 0,8.961 c -0.66,0.059 -1.364,0.141 -1.961,0.305 l 0,2.239 7.152,0 0,-2.239 c -0.519,-0.145 -1.09,-0.246 -1.691,-0.305 m -20.563,-2.648 c -0.129,0.84 -0.269,1.574 -0.32,2.269 l -2.844,0 0,-12.98 c 0.82,-0.055 1.668,-0.188 2.379,-0.328 l 0,-2.207 -8.309,0 0,2.207 c 0.711,0.14 1.559,0.273 2.379,0.328 l 0,12.98 -2.812,0 c -0.051,-0.695 -0.195,-1.429 -0.328,-2.269 l -2.625,0 0,5.192 15.105,0 0,-5.192 -2.625,0 z m -20.918,2.402 c -0.488,0 -1.008,-0.023 -1.363,-0.078 l 0,-5.336 c 0.25,-0.02 0.715,-0.051 1.254,-0.051 2.16,0 3.445,1.09 3.445,2.813 0,1.781 -1.066,2.652 -3.336,2.652 m 3.637,-15.648 -4.508,7.609 -0.492,0 0,-5.074 c 0.523,-0.055 1.117,-0.137 1.672,-0.305 l 0,-2.23 -7.598,0 0,2.207 c 0.707,0.14 1.559,0.273 2.375,0.328 l 0,13.359 c -0.816,0.059 -1.668,0.188 -2.375,0.328 l 0,2.216 2.133,0 c 0.707,0 3.269,0.106 5.539,0.106 4.074,0 6.699,-1.418 6.699,-5.185 0,-2.574 -1.75,-4.461 -4.347,-5.008 0.336,-0.429 0.656,-0.902 0.933,-1.336 l 2.836,-4.457 c 0.516,-0.078 1.176,-0.191 1.809,-0.297 l 0,-2.261 -4.676,0 z M 74.279,-4.317 c -2.539,0 -4.89,-2.028 -4.89,-6.172 0,-3.91 1.531,-6.449 4.84,-6.449 2.402,0 4.964,1.855 4.964,6.277 0,4.101 -1.742,6.344 -4.914,6.344 m -0.3,-15.848 c -5.629,0 -8.387,3.578 -8.387,9.285 0,6.098 4.07,9.755 9.015,9.755 4.914,0 8.391,-2.95 8.391,-9.255 0,-6.094 -4.019,-9.785 -9.019,-9.785 M 56.846,-4.212 c -0.43,0 -0.813,0 -1.227,-0.023 l 0,-6.145 c 0.36,-0.058 0.707,-0.09 1.031,-0.09 2.164,0.032 3.668,1.231 3.668,3.227 0,1.855 -1.039,3.031 -3.472,3.031 m -0.047,-9.203 c -0.332,0 -0.746,0 -1.18,0.051 l 0,-3.961 c 0.817,-0.055 1.664,-0.188 2.379,-0.328 l 0,-2.207 -8.312,0 0,2.207 c 0.714,0.14 1.562,0.273 2.382,0.328 l 0,13.359 c -0.82,0.059 -1.668,0.188 -2.382,0.328 l 0,2.216 2.14,0 c 0.871,0 3.278,0.106 5.188,0.106 4.507,0 6.988,-2.103 6.988,-5.708 0,-3.582 -2.727,-6.391 -7.203,-6.391"
           style="fill:#a7a5a6;fill-opacity:1;fill-rule:nonzero;stroke:none"
           id="path5134" />
      </g>
    </g>
  </g>
</svg>
