<?xml version="1.0" encoding="UTF-8" standalone="no"?>
<!-- Created with Inkscape (http://www.inkscape.org/) -->

<svg
   xmlns:dc="http://purl.org/dc/elements/1.1/"
   xmlns:cc="http://creativecommons.org/ns#"
   xmlns:rdf="http://www.w3.org/1999/02/22-rdf-syntax-ns#"
   xmlns:svg="http://www.w3.org/2000/svg"
   xmlns="http://www.w3.org/2000/svg"
   version="1.1"
   width="66.451065"
   height="90"
   id="svg3244">
  <defs
     id="defs3246" />
  <metadata
     id="metadata3249">
    <rdf:RDF>
      <cc:Work
         rdf:about="">
        <dc:format>image/svg+xml</dc:format>
        <dc:type
           rdf:resource="http://purl.org/dc/dcmitype/StillImage" />
        <dc:title></dc:title>
      </cc:Work>
    </rdf:RDF>
  </metadata>
  <g
     transform="translate(-1.1984746,-960.95799)"
     id="layer1">
    <g
       transform="matrix(0.68082984,0,0,0.68082984,-18.65993,371.40763)"
       id="g3313">
      <path
         d="m 37.680491,980.66759 0,0.9375 0,2.5025 -1.04625,0 c -0.2575,0 -0.40625,-0.1225 -0.45,-0.37125 -0.0113,-0.0337 -0.0613,-0.6125 -0.16,-1.73125 -0.80375,-0.185 -1.48875,-0.2775 -2.06375,-0.2775 l -0.0263,0 c -0.74875,0.007 -1.35875,0.195 -1.82625,0.56875 -0.465,0.35875 -0.7025,0.77125 -0.7025,1.215 0,0.45 0.10125,0.79125 0.30625,1.02125 0.3525,0.4125 0.86,0.7225 1.52,0.9275 0.6625,0.1975 1.20875,0.37375 1.65,0.52 0.43375,0.14375 0.8625,0.3075 1.275,0.48625 0.415,0.175 0.785,0.395 1.11375,0.65875 0.7225,0.59375 1.0825,1.38 1.0825,2.35625 0,1.27875 -0.43375,2.3025 -1.3075,3.07125 -0.91,0.8125 -2.09,1.22 -3.53625,1.23 -1.445,0.005 -2.88875,-0.23125 -4.32625,-0.7275 l 0,-3.50375 0.94125,0 c 0.22,0 0.3475,0.1075 0.395,0.3275 0.0175,0.0813 0.0713,0.64 0.15875,1.69 0.76125,0.35875 1.6675,0.53125 2.7275,0.53125 0.87375,0 1.56,-0.21875 2.06375,-0.65875 0.44875,-0.3975 0.675,-0.8475 0.675,-1.35 0,-0.5025 -0.10125,-0.87875 -0.3,-1.12 -0.195,-0.24 -0.46125,-0.45 -0.78625,-0.6225 -0.325,-0.16875 -0.69875,-0.32 -1.12375,-0.4425 -1.165,-0.36125 -1.98875,-0.6475 -2.46875,-0.8525 -0.48,-0.2075 -0.88375,-0.45125 -1.21125,-0.7225 -0.725,-0.6075 -1.08625,-1.4325 -1.08625,-2.475 0,-1.08625 0.41625,-1.99 1.24625,-2.715 0.88375,-0.78125 2.1375,-1.175 3.77,-1.175 0.9275,0 2.095,0.2325 3.49625,0.70125"
         id="path3080"
         style="fill:#5e893e;fill-opacity:1;fill-rule:nonzero;stroke:none" />
      <path
         d="m 48.373741,991.94446 c 1.27625,0 2.25375,-0.44375 2.9225,-1.335 0.67125,-0.89125 1.005,-2.16875 1.005,-3.81375 0,-3.30125 -1.1375,-4.95125 -3.415,-4.95125 -1.38125,0 -2.58625,0.67625 -3.61125,2.02625 l 0,6.4825 c 0.785,1.06125 1.81875,1.59125 3.09875,1.59125 m 1.29625,-12.00625 c 1.56875,0 2.8,0.585 3.6925,1.75 0.9175,1.20625 1.37375,2.9075 1.37375,5.1075 0,2.02125 -0.51125,3.67375 -1.5325,4.95875 -1.05875,1.345 -2.41,2.01625 -4.05125,2.01625 -1.6375,0 -2.935,-0.5275 -3.8775,-1.575 l 0,3.99375 c 0.0275,0.01 0.265,0.0588 0.7225,0.15 0.45375,0.0875 0.7175,0.13625 0.7875,0.15625 0.26375,0.0538 0.39625,0.215 0.39625,0.4875 l 0,1.1375 -6.1675,0 0,-1.1375 c 0,-0.2725 0.13375,-0.43375 0.3975,-0.4875 l 1.51,-0.30625 0,-14.08125 c -0.85125,-0.16625 -1.35125,-0.26875 -1.51,-0.3 -0.26375,-0.0537 -0.3975,-0.22 -0.3975,-0.49125 l 0,-1.14 1.9075,0 1.40375,0 c 0.33125,0 0.54375,0.16625 0.63375,0.49125 l 0.19875,1.58875 c 1.2675,-1.545 2.7725,-2.31875 4.5125,-2.31875"
         id="path3082"
         style="fill:#5e893e;fill-opacity:1;fill-rule:nonzero;stroke:none" />
      <path
         d="m 59.478491,976.61246 c -0.0863,-0.2 -0.13,-0.4125 -0.13,-0.645 0,-0.22875 0.0437,-0.44625 0.13,-0.65375 0.0888,-0.205 0.21,-0.38875 0.365,-0.5425 0.155,-0.15625 0.33,-0.2725 0.52875,-0.36375 0.19875,-0.0875 0.4125,-0.13125 0.6425,-0.13125 0.22875,0 0.44375,0.0438 0.64875,0.13125 0.20125,0.0913 0.38125,0.2075 0.53625,0.36375 0.15125,0.15375 0.2775,0.3375 0.37125,0.5425 0.0925,0.2075 0.13625,0.425 0.13625,0.65375 0,0.2325 -0.0437,0.445 -0.13625,0.645 -0.0937,0.1975 -0.22,0.37625 -0.37125,0.525 -0.155,0.15625 -0.335,0.27875 -0.53625,0.36625 -0.205,0.0875 -0.42,0.13375 -0.64875,0.13375 -0.23,0 -0.44375,-0.0463 -0.6425,-0.13375 -0.19875,-0.0875 -0.37375,-0.21 -0.52875,-0.36625 -0.155,-0.14875 -0.27625,-0.3275 -0.365,-0.525 m 4.61,15.83 0,1.1425 -6.17375,0 0,-1.1425 c 0,-0.23375 0.1725,-0.44375 0.40125,-0.49125 0.23625,-0.0438 1.5075,-0.3 1.5075,-0.3 l 0,-9.54375 c 0,0 -1.275,-0.25125 -1.5075,-0.3 -0.22875,-0.0438 -0.40125,-0.25375 -0.40125,-0.485 l 0,-1.145 4.265,0 0,11.47375 c 0,0 1.27125,0.25625 1.505,0.3 0.2325,0.0475 0.40375,0.2575 0.40375,0.49125"
         id="path3084"
         style="fill:#5e893e;fill-opacity:1;fill-rule:nonzero;stroke:none" />
      <path
         d="m 75.037371,979.93759 c 0.69,0 1.29999,0.15875 1.84125,0.47875 l -0.30501,1.76 c -0.0625,0.22 -0.17625,0.3325 -0.3425,0.3325 -0.16999,0 -0.3825,-0.045 -0.6375,-0.1275 -0.25375,-0.085 -0.61125,-0.125 -1.07125,-0.125 -1.53625,0 -2.68125,0.92875 -3.44125,2.79125 l 0,6.60375 c 0.22,0.0412 0.725,0.14625 1.51,0.3025 0.26375,0.0563 0.395,0.2175 0.395,0.49125 l 0,1.14 -6.16499,0 0,-1.14 c 0,-0.27375 0.13124,-0.435 0.39499,-0.49125 l 1.50876,-0.3025 0,-9.54375 c -0.84375,-0.165 -1.35001,-0.26875 -1.50876,-0.3 -0.26375,-0.0538 -0.39499,-0.22 -0.39499,-0.49 l 0,-1.14125 1.90375,0 1.35124,0 c 0.2575,0 0.43251,0.0488 0.53,0.1475 0.0987,0.0925 0.16125,0.26375 0.1975,0.5025 l 0.16,2.0925 c 0.97875,-1.985 2.33625,-2.98125 4.07375,-2.98125"
         id="path3086"
         style="fill:#5e893e;fill-opacity:1;fill-rule:nonzero;stroke:none" />
      <path
         d="m 86.387361,987.54996 c -1.08375,0 -2.005,0.0637 -2.7625,0.205 -0.76125,0.13875 -1.38,0.3175 -1.855,0.54 -0.4775,0.22125 -0.82125,0.485 -1.03875,0.78375 -0.2175,0.305 -0.32374,0.64125 -0.32374,1.0125 0,0.35375 0.0575,0.6625 0.17124,0.9225 0.11501,0.255 0.26626,0.4675 0.46375,0.63 0.19375,0.16125 0.4225,0.28375 0.68625,0.36125 0.2675,0.0713 0.55376,0.1125 0.8625,0.1125 0.41251,0 0.79375,-0.0438 1.135,-0.12875 0.34501,-0.0862 0.67125,-0.2 0.97375,-0.35875 0.30626,-0.15125 0.59875,-0.34 0.87375,-0.56 0.2775,-0.21875 0.54875,-0.4725 0.81375,-0.75375 l 0,-2.76625 z m 4.03,4.86625 0,1.1425 -1.7125,0 -0.1975,0 -0.84749,0 c -0.23001,0 -0.41375,-0.035 -0.5575,-0.105 -0.14,-0.0738 -0.23251,-0.22 -0.27376,-0.4525 l -0.26749,-1.2475 c -0.35626,0.3225 -0.69626,0.60625 -1.03251,0.8575 -0.33499,0.25375 -0.68874,0.46125 -1.05874,0.6375 -0.36876,0.1725 -0.76501,0.3025 -1.18376,0.3875 -0.42125,0.09 -0.885,0.135 -1.39875,0.135 -0.52125,0 -1.00624,-0.0762 -1.46,-0.22 -0.45375,-0.14625 -0.84875,-0.36375 -1.1825,-0.66 -0.33875,-0.29 -0.60375,-0.65875 -0.80374,-1.11 -0.20001,-0.445 -0.30001,-0.9725 -0.30001,-1.585 0,-0.53 0.14876,-1.0425 0.43875,-1.535 0.29126,-0.48875 0.76375,-0.92875 1.4075,-1.31125 0.65,-0.37375 1.5,-0.69125 2.54875,-0.9325 1.0525,-0.24 2.33501,-0.36625 3.85125,-0.36625 l 0,-1.05 c 0,-1.0475 -0.22249,-1.84125 -0.66625,-2.3775 -0.44624,-0.535 -1.10499,-0.80375 -1.97875,-0.80375 -0.575,0 -1.055,0.0687 -1.45,0.2175 -0.38999,0.14625 -0.73374,0.3075 -1.01749,0.49 -0.28751,0.18125 -0.53751,0.345 -0.74626,0.49125 -0.20375,0.14125 -0.40875,0.2175 -0.61125,0.2175 -0.1575,0 -0.295,-0.0412 -0.41874,-0.125 -0.1175,-0.085 -0.21251,-0.1875 -0.28125,-0.3125 l -0.42376,-0.75625 c 0.74,-0.71375 1.5375,-1.2475 2.39625,-1.6 0.85001,-0.35375 1.80126,-0.52875 2.84125,-0.52875 0.7525,0 1.4175,0.12125 2.00126,0.37125 0.58125,0.24375 1.07,0.59 1.46625,1.0325 0.39875,0.43875 0.6975,0.97375 0.90125,1.60125 0.20124,0.625 0.30499,1.31375 0.30499,2.0625 l 0,6.685 c 0.365,0.0737 1.13375,0.225 1.30875,0.26125 0.23001,0.0438 0.40375,0.25375 0.40375,0.48875"
         id="path3088"
         style="fill:#5e893e;fill-opacity:1;fill-rule:nonzero;stroke:none" />
      <path
         d="m 98.278241,993.77059 c -1.72125,0 -3.1225,-0.6075 -4.2075,-1.81625 -1.14,-1.2475 -1.7075,-2.945 -1.7075,-5.08125 0,-2.055 0.54,-3.7075 1.62625,-4.9625 1.1375,-1.29375 2.7,-1.94625 4.6825,-1.94625 1.025,0 2.348749,0.325 3.971249,0.97875 l 0,3.47875 -1.0575,0 c -0.2575,0 -0.4075,-0.11875 -0.45,-0.365 -0.0263,-0.10125 -0.0625,-0.43 -0.105,-0.99 -0.045,-0.56875 -0.0662,-0.86625 -0.0662,-0.89 -0.42125,-0.135 -0.74875,-0.215 -0.978749,-0.255 -0.51125,-0.0775 -1.00625,-0.10875 -1.48875,-0.1025 -0.48,0.008 -0.96625,0.125 -1.45,0.3475 -0.48375,0.22875 -0.9,0.55875 -1.2425,1.00375 -0.68,0.8875 -1.02,2.12625 -1.02,3.7025 0,1.6 0.35375,2.85 1.0575,3.7575 0.69,0.8725 1.63625,1.31375 2.845,1.31375 1.10375,0 2.086249,-0.37625 2.952499,-1.11125 0.16125,-0.14375 0.3275,-0.21375 0.50875,-0.21375 0.18125,0 0.32125,0.075 0.41625,0.22625 l 0.6625,0.86 c -1.12,1.37375 -2.77,2.065 -4.948749,2.065"
         id="path3090"
         style="fill:#5e893e;fill-opacity:1;fill-rule:nonzero;stroke:none" />
      <path
         d="m 115.04586,990.59921 c 0.65125,-0.88375 0.9775,-2.12125 0.9775,-3.71125 0,-1.59875 -0.32625,-2.84125 -0.9775,-3.73 -0.655,-0.89375 -1.64125,-1.3375 -2.96625,-1.3375 -0.67375,0 -1.25125,0.11375 -1.74875,0.34625 -0.4925,0.23 -0.90625,0.55375 -1.23624,0.99125 -0.32876,0.43 -0.57751,0.96125 -0.74126,1.59125 -0.16125,0.6325 -0.24624,1.34375 -0.24624,2.13875 0,0.79375 0.085,1.50375 0.24624,2.12875 0.16375,0.625 0.4125,1.1525 0.74126,1.5825 0.32999,0.4275 0.74374,0.75625 1.23624,0.98625 0.4975,0.2325 1.075,0.34375 1.74875,0.34375 1.325,0 2.31125,-0.44625 2.96625,-1.33 m -0.31374,-10.14625 c 0.79124,0.33125 1.46125,0.79375 2.01124,1.39125 0.55126,0.60125 0.9775,1.32625 1.27125,2.18 0.29625,0.8475 0.445,1.7975 0.445,2.85 0,1.05875 -0.14875,2.01125 -0.445,2.86125 -0.29375,0.84375 -0.71999,1.56625 -1.27125,2.1675 -0.54999,0.6 -1.22,1.0625 -2.01124,1.38125 -0.78751,0.325 -1.67126,0.48625 -2.65251,0.48625 -0.97875,0 -1.86375,-0.16125 -2.655,-0.48625 -0.7875,-0.31875 -1.45999,-0.78125 -2.01625,-1.38125 -0.5575,-0.60125 -0.9825,-1.32375 -1.28375,-2.1675 -0.3,-0.85 -0.45125,-1.8025 -0.45125,-2.86125 0,-1.0525 0.15125,-2.0025 0.45125,-2.85 0.30125,-0.85375 0.72625,-1.57875 1.28375,-2.18 0.55626,-0.5975 1.22875,-1.06 2.01625,-1.38875 0.79125,-0.3275 1.67625,-0.49125 2.655,-0.48875 0.98125,0 1.865,0.16125 2.65251,0.48625"
         id="path3092"
         style="fill:#5e893e;fill-opacity:1;fill-rule:nonzero;stroke:none" />
      <path
         d="m 126.77099,992.44496 0,1.14 -6.18125,0 0,-1.14 c 0,-0.27375 0.13125,-0.435 0.39625,-0.49125 l 1.50875,-0.3025 0,-15.63 c -0.84625,-0.165 -1.34875,-0.26875 -1.50875,-0.305 -0.265,-0.0512 -0.39625,-0.215 -0.39625,-0.4875 l 0,-1.13875 4.26,0 0,17.56125 c 0.85625,0.16625 1.35875,0.26875 1.51125,0.3025 0.27125,0.0563 0.41,0.2175 0.41,0.49125"
         id="path3094"
         style="fill:#5e893e;fill-opacity:1;fill-rule:nonzero;stroke:none" />
      <path
         d="m 95.473111,944.09534 c -1.69374,2.77875 -4.09125,5.1925 -6.91375,6.85 -0.7325,0.37375 -1.42875,0.79625 -2.17875,1.10125 l -1.12875,0.445 c -0.37625,0.15125 -0.755,0.2875 -1.14625,0.385 l -1.15875,0.3075 -0.57875,0.1525 -0.61875,0.1 -1.22125,0.1825 c -0.19749,0.0275 -0.415,0.0688 -0.60124,0.085 l -0.53375,0.0225 -1.065,0.0512 -0.53125,0.02 c 0,0 -0.23001,0.0213 -0.16751,0.01 l -0.075,0 -0.14749,-0.007 -0.2925,-0.01 -1.16001,-0.0463 c -0.38374,-0.0225 -0.76874,-0.0975 -1.15,-0.1325 -1.53374,-0.14625 -3.02749,-0.53625 -4.46499,-0.99625 -2.8625,-1.0025 -5.5425,-2.48 -7.705,-4.54 -2.17126,-2.04625 -3.88251,-4.52 -4.9275,-7.34625 l -0.39125,-1.085 -0.27375,-0.98875 -0.13126,-0.495 -0.0362,-0.125 -0.0175,-0.0588 c -0.002,-10e-4 -0.035,-0.185 -0.0275,-0.13625 l -0.0475,-0.28125 -0.19376,-1.12 c -0.16624,-1.50125 -0.16624,-3.035 0.0625,-4.55125 0.25876,-1.515 0.71126,-2.995 1.37626,-4.38875 0.69124,-1.37625 1.55,-2.6825 2.59875,-3.82 1.07125,-1.11625 2.27875,-2.11 3.62124,-2.86875 0.32376,-0.215 0.68001,-0.3525 1.02126,-0.53 0.35624,-0.16375 0.6725,-0.3375 1.09,-0.47125 0.39374,-0.14375 0.79249,-0.27125 1.195,-0.40125 0.22125,-0.0725 0.3275,-0.085 0.49125,-0.13125 l 0.44125,-0.1125 c 1.50874,-0.35625 3.12875,-0.45625 4.67125,-0.24625 1.53875,0.205 3.02499,0.64875 4.36624,1.33 2.67876,1.3575 4.80376,3.51125 6.04876,5.975 0.3425,0.6 0.5725,1.245 0.80249,1.8775 0.11501,0.32375 0.21001,0.7025 0.30626,1.05375 l 0.13374,0.535 0.0613,0.38625 c 0.0462,0.3025 0.0925,0.605 0.14,0.9025 0.0263,0.3425 0.0437,0.67625 0.0587,1.0075 -10e-4,0.6675 -0.0225,1.32875 -0.14001,1.96875 -0.37374,2.5825 -1.6775,4.7775 -3.27749,6.3125 -0.81126,0.7725 -1.71,1.37 -2.62125,1.84125 -0.93625,0.45125 -1.81751,0.7425 -2.86,0.945 -0.74126,0.11 -1.75625,0.21 -2.60375,0.095 -0.86625,-0.08 -1.66876,-0.31 -2.3725,-0.6125 -1.42,-0.59875 -2.45251,-1.49875 -3.14125,-2.395 -0.69625,-0.89375 -1.08375,-1.7575 -1.29875,-2.47125 -0.1875,-0.7075 -0.27125,-1.325 -0.27625,-1.665 0.005,-0.34625 0.005,-0.5275 0.005,-0.5275 0,-0.21125 0.17375,-0.38 0.385,-0.38 0.15999,0 0.29375,0.095 0.3525,0.23125 0,0 0.0713,0.16625 0.20624,0.49125 0.13751,0.3325 0.34251,0.69625 0.69751,1.20625 0.36749,0.47625 0.8475,1.0275 1.53,1.48125 0.68,0.4525 1.52375,0.8425 2.48874,0.9575 0.47001,0.0775 0.97251,0.0637 1.47375,0 0.52625,-0.0613 0.93501,-0.2175 1.64001,-0.46875 0.3975,-0.2 0.9625,-0.49875 1.41875,-0.86375 0.4625,-0.37125 0.90625,-0.78875 1.265,-1.295 0.34875,-0.51 0.66,-1.05125 0.87125,-1.65 0.20624,-0.5975 0.31375,-1.2325 0.33124,-1.8725 0.0238,-0.32 -0.0187,-0.6475 -0.055,-0.96875 -0.0337,-0.15625 -0.065,-0.3175 -0.09,-0.48375 0.0562,0.2925 0.0162,0.0563 0.02,0.11 l -0.0125,-0.0412 -0.0213,-0.0987 -0.0475,-0.18 -0.0888,-0.37 c -0.03,-0.115 -0.06,-0.25875 -0.09,-0.3625 l -0.0925,-0.2025 c -0.0675,-0.13625 -0.1,-0.25875 -0.17626,-0.4225 -0.16624,-0.32625 -0.32124,-0.66125 -0.53125,-0.97375 -0.38624,-0.635 -0.86374,-1.2375 -1.45374,-1.73125 -0.57875,-0.5025 -1.22125,-0.96125 -1.94375,-1.28625 -1.44876,-0.6225 -3.06125,-0.9275 -4.78125,-0.645 l -0.4525,0.0762 c -0.13625,0.0225 -0.33501,0.0463 -0.40251,0.0738 -0.1825,0.0512 -0.37,0.1075 -0.56999,0.14625 -0.185,0.0163 -0.42001,0.1175 -0.64376,0.19 -0.21749,0.0813 -0.46124,0.125 -0.67499,0.235 -0.90375,0.34375 -1.755,0.85125 -2.59625,1.425 -0.815,0.61375 -1.58625,1.33375 -2.26501,2.17625 -0.65999,0.85875 -1.20874,1.825 -1.63874,2.88 -0.40875,1.06625 -0.63625,2.21875 -0.7125,3.4125 l 0.005,0.89875 0,0.23 c 0.007,0.085 -0.0225,-0.0537 -0.009,-0.0175 l 0.004,0.0637 0.015,0.12375 0.0675,0.51 0.135,1.00375 0.21,0.86875 c 0.1125,0.59125 0.37875,1.1825 0.5875,1.7775 0.10375,0.30125 0.27999,0.57375 0.41375,0.8625 0.15375,0.27625 0.26625,0.57625 0.455,0.84 0.35625,0.53 0.69375,1.08625 1.13125,1.56 0.21,0.24125 0.3975,0.51 0.63125,0.7375 l 0.7025,0.67125 c 1.90375,1.775 4.365,2.93625 6.90875,3.5 1.29249,0.2275 2.59125,0.37875 3.8925,0.315 0.325,-0.0138 0.64375,-0.0113 0.96749,-0.0513 l 0.96001,-0.12375 0.24,-0.0387 0.1175,-0.0125 0.0625,-0.01 c 0.10749,-0.0125 -0.08,0.01 -0.0375,0 l 0.5175,-0.12 1.04375,-0.22875 0.52,-0.115 c 0.15875,-0.0487 0.2875,-0.105 0.43125,-0.15875 l 0.8425,-0.3075 0.41625,-0.14875 0.4225,-0.2 0.84,-0.40625 c 0.28375,-0.11875 0.55124,-0.2775 0.805,-0.44375 l 0.78249,-0.48125 c 0.51751,-0.3125 0.96375,-0.73 1.44751,-1.07875 0.45624,-0.38125 0.8725,-0.81125 1.31625,-1.20125 0.37625,-0.45875 0.7825,-0.88375 1.14249,-1.3425 0.3225,-0.49625 0.71001,-0.93 0.99876,-1.44375 l 0.44374,-0.75125 0.22376,-0.36875 0.19,-0.39625 c 1.04375,-2.0775 1.66875,-4.355 1.8775,-6.6575 0.0488,-0.58125 0.11375,-1.1475 0.0875,-1.73 -0.007,-0.57625 0.0263,-1.15 -0.0513,-1.72625 l -0.07,-0.85625 -0.0137,-0.215 -10e-4,-0.0437 -0.08,-0.46875 -0.16624,-0.99125 -0.0838,-0.49875 c -0.0275,-0.14375 -0.0687,-0.2225 -0.10249,-0.33875 l -0.19375,-0.64 -0.085,-0.3275 -0.14251,-0.34875 c -0.20249,-0.46125 -0.34375,-0.9425 -0.59875,-1.3775 l -0.32999,-0.67125 c -0.12875,-0.22125 -0.27625,-0.43375 -0.40875,-0.65125 -0.2475,-0.4375 -0.58375,-0.8675 -0.88626,-1.30625 -0.29374,-0.44 -0.68624,-0.88625 -1.02124,-1.32875 -0.365,-0.43125 -0.72876,-0.87125 -1.09626,-1.30125 l -0.61249,-0.7075 c -0.19625,-0.2225 -0.4175,-0.48375 -0.59125,-0.6525 -0.37126,-0.385 -0.70751,-0.75625 -1.1025,-1.1425 -3.14625,-3.23875 -6.885,-6.08125 -9.93,-9.89 -1.49251,-1.89875 -2.81125,-4.15 -3.35875,-6.59375 -0.13,-0.61 -0.20125,-1.22625 -0.29001,-1.81625 -0.0512,-0.59875 -0.01,-1.19125 -0.01,-1.765 l 0.0225,-0.58875 0.055,-0.34 c 0.0388,-0.22375 0.0763,-0.44875 0.11001,-0.66625 l 0.0587,-0.32875 0.0225,-0.16625 0.05,-0.2075 c 0.0763,-0.29125 0.14875,-0.57375 0.22625,-0.855 0.0737,-0.28 0.14999,-0.56125 0.24,-0.8275 0.1025,-0.24375 0.20875,-0.48875 0.3125,-0.7325 0.10625,-0.23625 0.21125,-0.47125 0.31624,-0.71 0.12376,-0.225 0.26626,-0.4475 0.40625,-0.66375 0.14126,-0.215 0.28125,-0.425 0.41751,-0.6325 0.14875,-0.205 0.3225,-0.38875 0.48375,-0.57625 0.1625,-0.18125 0.3275,-0.35875 0.48624,-0.5475 0.16126,-0.175 0.35876,-0.3175 0.53376,-0.47125 1.43625,-1.24 3.05875,-1.88625 4.5,-2.13125 1.45874,-0.24375 2.74375,-0.115 3.79875,0.11 1.055,0.27125 1.89375,0.615 2.5175,0.97875 0.3075,0.19125 0.57499,0.355 0.80374,0.50125 0.21625,0.17 0.39376,0.315 0.53875,0.42875 0.27501,0.235 0.41751,0.355 0.41751,0.355 0.1575,0.13625 0.18,0.3725 0.0462,0.52875 -0.10375,0.1275 -0.27125,0.16125 -0.41625,0.1125 l -0.0527,-0.0138 c 0,0 -0.15999,-0.0612 -0.47749,-0.17625 -0.15125,-0.0537 -0.34375,-0.1275 -0.57,-0.2075 -0.23376,-0.0563 -0.50251,-0.1175 -0.80626,-0.19 -0.60499,-0.125 -1.36125,-0.205 -2.21749,-0.17375 -0.85501,0.0975 -1.82,0.225 -2.76001,0.66375 -0.92499,0.4425 -1.82125,1.09125 -2.48,2 -0.08,0.115 -0.17874,0.2075 -0.245,0.33625 -0.0688,0.13 -0.13499,0.25625 -0.20249,0.38125 -0.0638,0.13125 -0.1425,0.24125 -0.19626,0.38625 -0.0462,0.13875 -0.0962,0.2775 -0.14625,0.4225 -0.045,0.14125 -0.11,0.27 -0.15749,0.41625 -0.0325,0.15625 -0.0663,0.30875 -0.0975,0.46 -0.0375,0.15125 -0.0762,0.3075 -0.10749,0.46125 -0.015,0.14125 -0.0213,0.285 -0.03,0.43 -0.0125,0.13875 -0.0288,0.285 -0.04,0.42375 -0.007,0.04 -0.0112,0.0637 -0.0125,0.11 l 0.001,0.16625 0.004,0.335 c 0.005,0.22125 0.01,0.44875 0.0125,0.67625 l 0.004,0.34125 c 0,0.0512 0.0188,-0.2875 0.0125,-0.13125 l 0.009,0.0313 0.01,0.0662 0.0275,0.12375 c 0.0725,0.3425 0.10625,0.68625 0.19875,1.02125 0.1125,0.3225 0.19751,0.65125 0.32375,0.98125 0.53125,1.28875 1.46501,2.54875 2.76875,3.8275 2.60251,2.58375 6.4625,5.09625 10.34125,8.5925 0.48751,0.44625 0.9975,0.96375 1.50125,1.4475 0.27125,0.25875 0.45501,0.46875 0.675,0.695 l 0.64125,0.68375 0.16125,0.17125 0.2325,0.26375 0.31625,0.37375 0.64375,0.75625 c 0.43876,0.55875 0.88375,1.0725 1.31876,1.6825 0.43624,0.605 0.86624,1.20625 1.25624,1.89875 0.19375,0.34 0.39625,0.665 0.5825,1.01875 l 0.52,1.08625 c 0.37,0.71 0.605,1.49125 0.86875,2.25875 l 0.19,0.5825 0.1525,0.6375 0.2825,1.2875 c 0.9975,5.9025 0.0713,12.60875 -3.34125,18.1775 m -17.65662,-78.16665 c -17.97375,0 -32.53625,49.66625 -32.53625,67.63375 0,17.96875 14.5625,32.535 32.53625,32.535 17.96125,0 32.536249,-14.56625 32.536249,-32.535 0,-17.9675 -14.574999,-67.63375 -32.536249,-67.63375"
         id="path3098"
         style="fill:#5e893e;fill-opacity:1;fill-rule:nonzero;stroke:none" />
    </g>
  </g>
</svg>
