<?xml version="1.0" encoding="UTF-8" standalone="no"?>
<!-- Created with Inkscape (http://www.inkscape.org/) -->

<svg
   xmlns:dc="http://purl.org/dc/elements/1.1/"
   xmlns:cc="http://creativecommons.org/ns#"
   xmlns:rdf="http://www.w3.org/1999/02/22-rdf-syntax-ns#"
   xmlns:svg="http://www.w3.org/2000/svg"
   xmlns="http://www.w3.org/2000/svg"
   xmlns:sodipodi="http://sodipodi.sourceforge.net/DTD/sodipodi-0.dtd"
   xmlns:inkscape="http://www.inkscape.org/namespaces/inkscape"
   version="1.1"
   width="72.539009"
   height="111.66223"
   id="svg3244"
   inkscape:version="0.48.4 r9939"
   sodipodi:docname="mapicon.svg">
  <sodipodi:namedview
     pagecolor="#ffffff"
     bordercolor="#666666"
     borderopacity="1"
     objecttolerance="10"
     gridtolerance="10"
     guidetolerance="10"
     inkscape:pageopacity="0"
     inkscape:pageshadow="2"
     inkscape:window-width="1323"
     inkscape:window-height="744"
     id="namedview8"
     showgrid="false"
     inkscape:zoom="5.9779282"
     inkscape:cx="22.71967"
     inkscape:cy="55.314207"
     inkscape:window-x="43"
     inkscape:window-y="24"
     inkscape:window-maximized="1"
     inkscape:current-layer="svg3244" />
  <defs
     id="defs3246" />
  <metadata
     id="metadata3249">
    <rdf:RDF>
      <cc:Work
         rdf:about="">
        <dc:format>image/svg+xml</dc:format>
        <dc:type
           rdf:resource="http://purl.org/dc/dcmitype/StillImage" />
        <dc:title />
      </cc:Work>
    </rdf:RDF>
  </metadata>
  <g
     transform="translate(-18.730494,-941.53107)"
     id="layer1">
    <path
       d="m 54.763427,950.27105 c -16.768885,0 -30.355192,46.33692 -30.355192,63.09995 0,16.7641 13.586307,30.354 30.355192,30.354 16.757224,0 30.355193,-13.5899 30.355193,-30.354 0,-16.76303 -13.597969,-63.09995 -30.355193,-63.09995"
       id="path3098-0"
       style="fill:#ffffff;fill-opacity:1;fill-rule:nonzero;stroke:none"
       inkscape:connector-curvature="0" />
    <path
       d="m 72.626473,1025.3983 c -1.690887,2.774 -4.084357,5.1837 -6.902102,6.8384 -0.731267,0.3731 -1.426343,0.7949 -2.17508,1.0994 l -1.126848,0.4442 c -0.375616,0.1511 -0.753728,0.287 -1.144319,0.3844 l -1.156797,0.307 -0.577775,0.1522 -0.617708,0.1 -1.219192,0.1822 c -0.197158,0.027 -0.414301,0.069 -0.600228,0.085 l -0.53285,0.023 -1.063206,0.051 -0.530355,0.02 c 0,0 -0.229622,0.021 -0.167228,0.01 l -0.07487,0 -0.147242,-0.01 -0.292007,-0.01 -1.158056,-0.046 c -0.383093,-0.022 -0.767445,-0.097 -1.148062,-0.1323 -1.531156,-0.1459 -3.02239,-0.5353 -4.457468,-0.9945 -2.857677,-1.0008 -5.533162,-2.4758 -7.692019,-4.5323 -2.167602,-2.0429 -3.875969,-4.5124 -4.919198,-7.334 l -0.390591,-1.0831 -0.273289,-0.9871 -0.131039,-0.4942 -0.03614,-0.1247 -0.01747,-0.059 c -0.002,0 -0.03494,-0.1847 -0.02745,-0.1361 l -0.04742,-0.2807 -0.193433,-1.1182 c -0.16596,-1.4987 -0.16596,-3.0298 0.06239,-4.5435 0.258324,-1.5125 0.710062,-2.99 1.373942,-4.3814 0.690075,-1.3739 1.547388,-2.678 2.594371,-3.8136 1.069446,-1.1143 2.274911,-2.1064 3.615139,-2.8639 0.323215,-0.2146 0.678865,-0.3519 1.01954,-0.5291 0.35564,-0.1635 0.671367,-0.3369 1.088163,-0.4704 0.393077,-0.1435 0.791155,-0.2708 1.192987,-0.4006 0.220877,-0.072 0.326948,-0.085 0.490423,-0.131 l 0.440506,-0.1124 c 1.506198,-0.3556 3.123479,-0.4554 4.66338,-0.2458 1.536158,0.2047 3.019894,0.6477 4.358884,1.3278 2.674247,1.3552 4.795667,3.5053 6.038569,5.9649 0.341923,0.599 0.571536,1.2429 0.801138,1.8743 0.114817,0.3232 0.209657,0.7014 0.305744,1.052 l 0.133515,0.5341 0.0612,0.3856 c 0.04612,0.302 0.09234,0.604 0.139764,0.901 0.02626,0.3419 0.04363,0.6751 0.0586,1.0058 -9.98e-4,0.6664 -0.02246,1.3265 -0.139774,1.9654 -0.37311,2.5782 -1.674674,4.7695 -3.271968,6.3019 -0.809893,0.7712 -1.707119,1.3677 -2.616834,1.8381 -0.934673,0.4506 -1.814448,0.7413 -2.855182,0.9434 -0.740011,0.1098 -1.753291,0.2097 -2.599363,0.095 -0.864791,-0.08 -1.665948,-0.3095 -2.368503,-0.6115 -1.417608,-0.5977 -2.448378,-1.4962 -3.135958,-2.391 -0.695077,-0.8922 -1.081924,-1.7545 -1.296562,-2.467 -0.187184,-0.7063 -0.270793,-1.3228 -0.275784,-1.6622 0.005,-0.3457 0.005,-0.5266 0.005,-0.5266 0,-0.2109 0.173458,-0.3794 0.384352,-0.3794 0.15972,0 0.293255,0.095 0.351906,0.2309 0,0 0.07118,0.1659 0.205892,0.4904 0.137279,0.3319 0.341933,0.6951 0.696335,1.2042 0.366871,0.4755 0.846073,1.0258 1.527423,1.4788 0.678854,0.4517 1.521183,0.8411 2.484547,0.9559 0.469218,0.077 0.970871,0.064 1.471267,0 0.525363,-0.061 0.933435,-0.2172 1.637247,-0.468 0.39683,-0.1997 0.960878,-0.4979 1.41636,-0.8623 0.46172,-0.3706 0.904723,-0.7874 1.262868,-1.2928 0.348163,-0.5092 0.658888,-1.0495 0.869783,-1.6472 0.205892,-0.5965 0.313221,-1.2305 0.330681,-1.8694 0.02376,-0.3195 -0.01867,-0.6464 -0.05491,-0.9671 -0.03364,-0.156 -0.06489,-0.317 -0.08985,-0.4829 0.05611,0.292 0.01617,0.056 0.01997,0.1098 l -0.01248,-0.041 -0.02126,-0.098 -0.04742,-0.1797 -0.08865,-0.3694 c -0.02995,-0.1148 -0.0599,-0.2583 -0.08985,-0.3619 l -0.09234,-0.2022 c -0.06739,-0.136 -0.09983,-0.2583 -0.175963,-0.4217 -0.16596,-0.3257 -0.320699,-0.6602 -0.530355,-0.9722 -0.385589,-0.6339 -0.862285,-1.2354 -1.451291,-1.7283 -0.577775,-0.5016 -1.219192,-0.9596 -1.940475,-1.2841 -1.446319,-0.6214 -3.056093,-0.9259 -4.773195,-0.6439 l -0.451738,0.076 c -0.136021,0.023 -0.334446,0.046 -0.401832,0.074 -0.182192,0.051 -0.369377,0.1073 -0.569029,0.146 -0.184688,0.016 -0.419303,0.1173 -0.642675,0.1897 -0.217124,0.081 -0.460463,0.1248 -0.673853,0.2346 -0.902228,0.3432 -1.752043,0.8498 -2.591876,1.4226 -0.813627,0.6127 -1.583578,1.3315 -2.261194,2.1726 -0.658878,0.8573 -1.206704,1.8219 -1.635979,2.8751 -0.408062,1.0645 -0.635178,2.215 -0.7113,3.4068 l 0.005,0.8972 0,0.2296 c 0.007,0.085 -0.02246,-0.054 -0.009,-0.017 l 0.004,0.064 0.01497,0.1236 0.06739,0.5091 0.134773,1.0021 0.209646,0.8672 c 0.11231,0.5903 0.378112,1.1806 0.58651,1.7746 0.103575,0.3007 0.279518,0.5728 0.413052,0.861 0.153492,0.2758 0.265802,0.5753 0.454234,0.8386 0.355649,0.5291 0.692582,1.0845 1.129345,1.5574 0.209646,0.2408 0.39683,0.5091 0.630186,0.7362 l 0.701317,0.6702 c 1.900542,1.772 4.357646,2.9312 6.89711,3.4941 1.290312,0.2271 2.586884,0.378 3.885942,0.3145 0.324453,-0.014 0.642665,-0.011 0.96586,-0.051 l 0.958393,-0.1236 0.239595,-0.039 0.117302,-0.012 0.06239,-0.01 c 0.107309,-0.013 -0.07986,0.01 -0.03744,0 l 0.516628,-0.1198 1.041992,-0.2284 0.519124,-0.1148 c 0.158483,-0.049 0.287015,-0.1048 0.430523,-0.1585 l 0.841081,-0.307 0.415549,-0.1484 0.421788,-0.1997 0.838585,-0.4056 c 0.283272,-0.1185 0.550311,-0.277 0.803643,-0.443 l 0.781172,-0.4805 c 0.516638,-0.3119 0.962126,-0.7287 1.445071,-1.0768 0.455472,-0.3807 0.87103,-0.81 1.314033,-1.1993 0.375616,-0.4579 0.781181,-0.8822 1.140565,-1.3402 0.321957,-0.4954 0.708814,-0.9285 0.997077,-1.4413 l 0.442993,-0.7501 0.223383,-0.368 0.18968,-0.3957 c 1.041991,-2.0739 1.665938,-4.3476 1.874337,-6.6462 0.04872,-0.5803 0.113558,-1.1456 0.08735,-1.7271 -0.007,-0.5753 0.02626,-1.1481 -0.05121,-1.7234 l -0.06988,-0.8548 -0.01368,-0.2146 -9.99e-4,-0.044 -0.07986,-0.468 -0.16596,-0.9895 -0.08366,-0.498 c -0.02745,-0.1435 -0.06858,-0.2221 -0.102317,-0.3381 l -0.193423,-0.639 -0.08486,-0.3269 -0.142269,-0.3482 c -0.20215,-0.4604 -0.343171,-0.9409 -0.597742,-1.3751 l -0.329435,-0.6702 c -0.128533,-0.2208 -0.275784,-0.433 -0.408061,-0.6501 -0.247083,-0.4368 -0.582767,-0.8661 -0.884767,-1.3041 -0.293245,-0.4392 -0.685084,-0.8847 -1.019519,-1.3265 -0.364385,-0.4305 -0.727532,-0.8698 -1.094413,-1.299 l -0.611458,-0.70632 c -0.19592,-0.2222 -0.416797,-0.483 -0.590254,-0.6514 -0.370635,-0.3844 -0.706318,-0.755 -1.100643,-1.14059 -3.140949,-3.23331 -6.8734,-6.07102 -9.91327,-9.87336 -1.489996,-1.89555 -2.806514,-4.14301 -3.353092,-6.58264 -0.129781,-0.60897 -0.200911,-1.22418 -0.289521,-1.81319 -0.05111,-0.59774 -0.01,-1.18924 -0.01,-1.76202 l 0.02246,-0.58776 0.05491,-0.33943 c 0.03874,-0.22337 0.07617,-0.44799 0.109825,-0.66513 l 0.0586,-0.32819 0.02246,-0.16597 0.04992,-0.20715 c 0.07617,-0.29076 0.148499,-0.57279 0.225869,-0.85356 0.07358,-0.27953 0.149737,-0.56031 0.239595,-0.82611 0.102328,-0.24334 0.208399,-0.48793 0.311974,-0.73127 0.106071,-0.23585 0.210894,-0.47045 0.315707,-0.7088 0.123552,-0.22462 0.265812,-0.44674 0.405566,-0.66263 0.141022,-0.21464 0.280776,-0.42428 0.416806,-0.63143 0.1485,-0.20466 0.321957,-0.3881 0.482935,-0.57528 0.162226,-0.18095 0.326948,-0.35815 0.485421,-0.54658 0.160988,-0.17471 0.358156,-0.31697 0.532861,-0.47046 1.43383,-1.23791 3.053597,-1.88307 4.492418,-2.12766 1.456283,-0.24334 2.739128,-0.1148 3.79235,0.10982 1.053223,0.27079 1.89056,0.61396 2.513259,0.9771 0.306982,0.19093 0.574021,0.3544 0.802386,0.5004 0.215886,0.16972 0.393097,0.31447 0.537842,0.42803 0.274547,0.23461 0.416807,0.3544 0.416807,0.3544 0.157235,0.13602 0.179697,0.37188 0.04612,0.52786 -0.103575,0.12729 -0.270793,0.16098 -0.415549,0.11231 l -0.05261,-0.0138 c 0,0 -0.15972,-0.0611 -0.476685,-0.17596 -0.150996,-0.0536 -0.343171,-0.12728 -0.56904,-0.20715 -0.233366,-0.0562 -0.501664,-0.1173 -0.804902,-0.18968 -0.603971,-0.12479 -1.358956,-0.20465 -2.213754,-0.17345 -0.853569,0.0973 -1.816934,0.22462 -2.75536,0.66263 -0.923432,0.44175 -1.818182,1.08941 -2.475822,1.99663 -0.07986,0.1148 -0.178439,0.20715 -0.244586,0.33568 -0.06868,0.12978 -0.134764,0.25582 -0.20215,0.38061 -0.06369,0.13103 -0.142259,0.24084 -0.195929,0.3856 -0.04612,0.13851 -0.09604,0.27703 -0.146004,0.42179 -0.04492,0.14101 -0.109814,0.26954 -0.157224,0.41555 -0.03245,0.15598 -0.06619,0.30823 -0.09734,0.45922 -0.03744,0.151 -0.07607,0.30698 -0.107309,0.46047 -0.01498,0.14102 -0.02126,0.28452 -0.02995,0.42928 -0.01248,0.13852 -0.02875,0.28452 -0.03993,0.42304 -0.007,0.0399 -0.01118,0.0636 -0.01248,0.10981 l 9.98e-4,0.16597 0.004,0.33444 c 0.005,0.22087 0.01,0.44799 0.01248,0.67511 l 0.004,0.34067 c 0,0.0511 0.01877,-0.28701 0.01248,-0.13103 l 0.009,0.0313 0.01,0.0661 0.02745,0.12354 c 0.07238,0.34192 0.106071,0.68509 0.198415,1.01953 0.112311,0.32196 0.197178,0.65015 0.323205,0.9796 0.530355,1.28657 1.462542,2.54445 2.764085,3.82105 2.598126,2.57939 6.451613,5.08766 10.323828,8.57802 0.486689,0.4455 0.995819,0.96213 1.498721,1.44506 0.270793,0.25832 0.454244,0.46796 0.673862,0.69383 l 0.64017,0.68264 0.160978,0.1709 0.232109,0.2633 0.315717,0.3731 0.642665,0.755 c 0.438021,0.5578 0.882261,1.0707 1.316539,1.67969 0.435505,0.604 0.86478,1.2042 1.254123,1.89552 0.193424,0.3395 0.395583,0.6639 0.581519,1.0171 l 0.519125,1.0844 c 0.369376,0.7088 0.60398,1.4887 0.867286,2.2549 l 0.18968,0.5816 0.152243,0.6364 0.282024,1.2853 c 0.995819,5.8926 0.07118,12.5875 -3.335621,18.1469 M 55.000003,947.36222 c -17.943468,0 -32.481434,49.58257 -32.481434,67.51978 0,17.9384 14.537966,32.4802 32.481434,32.4802 17.93099,0 32.481428,-14.5418 32.481428,-32.4802 0,-17.9372 -14.550438,-67.51978 -32.481428,-67.51978"
       id="path3098"
       style="fill:#5e893e;fill-opacity:1;fill-rule:nonzero;stroke:none" />
  </g>
</svg>
