<?xml version="1.0" encoding="UTF-8" standalone="no"?>
<svg
   xmlns:dc="http://purl.org/dc/elements/1.1/"
   xmlns:cc="http://creativecommons.org/ns#"
   xmlns:rdf="http://www.w3.org/1999/02/22-rdf-syntax-ns#"
   xmlns:svg="http://www.w3.org/2000/svg"
   xmlns="http://www.w3.org/2000/svg"
   xmlns:sodipodi="http://sodipodi.sourceforge.net/DTD/sodipodi-0.dtd"
   xmlns:inkscape="http://www.inkscape.org/namespaces/inkscape"
   inkscape:version="1.0 (4035a4f, 2020-05-01)"
   sodipodi:docname="pdr.svg"
   viewBox="0 0 195.80857 44.000004"
   height="44.000004"
   width="195.80858"
   xml:space="preserve"
   id="svg833"
   version="1.1"><metadata
     id="metadata839"><rdf:RDF><cc:Work
         rdf:about=""><dc:format>image/svg+xml</dc:format><dc:type
           rdf:resource="http://purl.org/dc/dcmitype/StillImage" /><dc:title></dc:title></cc:Work></rdf:RDF></metadata><defs
     id="defs837" /><sodipodi:namedview
     inkscape:current-layer="g841"
     inkscape:window-maximized="1"
     inkscape:window-y="25"
     inkscape:window-x="0"
     inkscape:cy="104.28131"
     inkscape:cx="410.99068"
     inkscape:zoom="0.79836922"
     fit-margin-bottom="0"
     fit-margin-right="0"
     fit-margin-left="0"
     fit-margin-top="0"
     showgrid="false"
     id="namedview835"
     inkscape:window-height="1083"
     inkscape:window-width="1920"
     inkscape:pageshadow="2"
     inkscape:pageopacity="0"
     guidetolerance="10"
     gridtolerance="10"
     objecttolerance="10"
     borderopacity="1"
     bordercolor="#666666"
     pagecolor="#ffffff" /><g
     transform="matrix(1.3333333,0,0,-1.3333333,-150.26933,368.84799)"
     inkscape:label="ink_ext_XXXXXX"
     inkscape:groupmode="layer"
     id="g841"><g
       style="fill:#a7a5a6;fill-opacity:1"
       transform="matrix(0.02303428,0,0,0.02303428,86.741909,212.91489)"
       id="g843"><path
         id="path847"
         style="fill:#a7a5a6;fill-opacity:1;fill-rule:nonzero;stroke:none"
         d="m 3737.43,2054.58 c 0,18.5 -2.56,35.53 -7.93,50.98 -5.13,15.79 -12.97,29.36 -23.14,40.66 -9.93,11.33 -22.25,20.2 -36.86,26.57 -14.72,6.35 -31.55,9.47 -50.67,9.47 h -76.73 v -256.27 h 76.73 c 19.39,0 36.36,3.22 51,9.51 14.92,6.7 27.3,15.85 37.29,27.43 9.96,11.62 17.54,25.16 22.38,40.63 5.37,15.77 7.93,32.74 7.93,51.02 z m -216.47,-147.61 v 294.43 h 97.87 c 23.22,0 43.56,-3.86 60.96,-11.64 17.67,-7.73 32.31,-18.24 43.93,-31.43 11.71,-13.36 20.4,-28.98 26.16,-46.93 5.84,-17.7 8.71,-36.64 8.71,-56.82 0,-22.41 -3.3,-42.69 -9.92,-60.94 -6.46,-17.96 -15.68,-33.45 -27.86,-46.5 -12.01,-12.7 -26.92,-22.62 -44.32,-29.78 -17.14,-6.97 -36.33,-10.39 -57.66,-10.39 h -97.87" /><path
         id="path849"
         style="fill:#a7a5a6;fill-opacity:1;fill-rule:nonzero;stroke:none"
         d="m 4014.99,1925.99 v -19.02 h -196.3 v 294.43 h 192.45 v -19.14 H 3839.87 V 2066.6 h 149.64 v -18.27 h -149.64 v -122.34 h 175.12" /><path
         id="path851"
         style="fill:#a7a5a6;fill-opacity:1;fill-rule:nonzero;stroke:none"
         d="m 4240.53,2152.43 c -19.13,21.28 -46.17,31.94 -80.91,31.94 -28.74,0 -49.75,-5.54 -63.04,-16.57 -13.01,-10.76 -19.49,-25.44 -19.49,-43.99 0,-9.37 1.62,-17.26 4.96,-23.61 3.32,-6.34 8.41,-11.7 15.29,-16.22 7.26,-4.1 16.2,-7.79 27.12,-11.17 10.95,-3.01 24.03,-6.07 38.91,-9.12 15.99,-3.3 30.36,-7.04 43.03,-11.18 12.79,-3.91 23.51,-8.83 32.43,-14.94 9.1,-6.11 16.03,-13.59 20.7,-22.4 5.04,-8.84 7.44,-19.73 7.44,-32.72 0,-12.96 -2.52,-24.33 -7.83,-34.08 -5.06,-9.65 -12.17,-17.76 -21.56,-24.47 -9.1,-6.36 -20.15,-11.15 -33.17,-14.47 -12.71,-3.3 -26.92,-5.06 -42.76,-5.06 -45.82,0 -84.76,14.79 -116.54,44 l 11.25,17.02 c 12.39,-12.99 27.62,-23.33 45.54,-31.08 18.12,-7.48 38.24,-11.22 60.55,-11.22 25.77,0 45.83,4.77 60.2,14.13 14.7,9.39 22,23.66 22,42.69 0,9.69 -1.95,17.85 -5.82,24.52 -3.65,6.92 -9.2,12.83 -17,17.76 -7.82,5.02 -17.42,9.27 -29,12.94 -11.42,3.55 -24.87,7.05 -40.26,10.33 -15.81,3.3 -29.79,6.81 -41.88,10.35 -11.94,3.87 -22.02,8.56 -30.38,14.07 -8.2,5.86 -14.37,12.74 -18.55,20.81 -4.17,7.95 -6.18,18.07 -6.18,30.27 0,13.22 2.5,24.97 7.39,35.22 5.3,10.24 12.5,18.86 21.56,25.75 9.16,7.17 20.07,12.58 32.78,16.15 12.73,3.59 26.77,5.39 42.31,5.39 19.06,0 36.04,-2.93 51.04,-8.71 14.87,-5.58 28.43,-14.06 40.67,-25.73 l -10.8,-16.6" /><path
         id="path853"
         style="fill:#a7a5a6;fill-opacity:1;fill-rule:nonzero;stroke:none"
         d="m 4517.93,1925.99 v -19.02 h -196.24 v 294.43 h 192.53 v -19.14 H 4342.84 V 2066.6 h 149.77 v -18.27 h -149.77 v -122.34 h 175.09" /><path
         id="path855"
         style="fill:#a7a5a6;fill-opacity:1;fill-rule:nonzero;stroke:none"
         d="m 4597.91,2161.61 v -254.64 h -21.17 v 294.43 h 16.2 l 206.51,-259.2 v 258.77 h 21.19 v -294 h -19.47 l -203.26,254.64" /><path
         id="path857"
         style="fill:#a7a5a6;fill-opacity:1;fill-rule:nonzero;stroke:none"
         d="m 4887.84,2201.4 112.38,-267.9 111.95,267.9 h 22.4 l -124.88,-294.43 h -19.04 l -124.8,294.43 h 21.99" /><path
         id="path859"
         style="fill:#a7a5a6;fill-opacity:1;fill-rule:nonzero;stroke:none"
         d="m 5171.49,2054.19 c 0,-16.9 2.71,-33.19 8.32,-48.94 5.82,-15.51 13.71,-29.35 23.97,-41.48 10.55,-11.9 22.81,-21.42 37.02,-28.59 14.29,-7.24 30.03,-10.84 47.25,-10.84 17.65,0 33.54,3.74 47.68,11.16 14.35,7.54 26.63,17.35 36.82,29.54 10.25,12.43 18.08,26.38 23.74,41.83 5.47,15.49 8.28,31.22 8.28,47.32 0,16.86 -2.96,33.04 -8.78,48.48 -5.79,15.75 -13.89,29.59 -24.43,41.48 -10.21,12.21 -22.55,21.85 -36.9,28.99 -14.14,7.21 -29.54,10.84 -46.41,10.84 -17.73,0 -33.76,-3.77 -48.15,-11.19 -14.31,-7.47 -26.71,-17.41 -36.86,-29.88 -9.99,-12.19 -17.73,-26.02 -23.23,-41.46 -5.61,-15.47 -8.32,-31.26 -8.32,-47.26 z m 116.56,-149.33 c -20.52,0 -39.24,4.3 -56.07,12.87 -16.81,8.57 -31.32,19.78 -43.54,33.62 -12.15,13.77 -21.52,29.69 -28.23,47.68 -6.6,17.96 -9.92,36.33 -9.92,55.16 0,19.62 3.47,38.38 10.36,56.39 7.15,17.99 16.93,33.84 29.04,47.75 12.47,13.74 27.12,24.64 44.01,32.72 16.83,8.22 35.14,12.42 54.7,12.42 20.46,0 39.21,-4.37 56.02,-13.3 16.85,-8.55 31.25,-19.85 43.07,-33.99 12.18,-14.03 21.63,-30.17 28.21,-48.1 6.72,-17.74 9.94,-35.66 9.94,-53.89 0,-19.96 -3.61,-38.9 -10.72,-56.86 -6.91,-17.95 -16.59,-33.83 -29.05,-47.62 -12.18,-13.59 -26.65,-24.49 -43.54,-32.88 -16.66,-7.94 -34.68,-11.97 -54.28,-11.97" /><path
         id="path861"
         style="fill:#a7a5a6;fill-opacity:1;fill-rule:nonzero;stroke:none"
         d="m 5484.6,1906.97 v 294.43 h 21.21 v -275.41 h 175.77 v -19.02 H 5484.6" /><path
         id="path863"
         style="fill:#a7a5a6;fill-opacity:1;fill-rule:nonzero;stroke:none"
         d="m 5673.27,2201.4 112.42,-267.9 111.91,267.9 h 22.49 l -124.84,-294.43 h -19.17 l -124.74,294.43 h 21.93" /><path
         id="path865"
         style="fill:#a7a5a6;fill-opacity:1;fill-rule:nonzero;stroke:none"
         d="m 5965.27,1906.97 v 294 h 21.11 v -294 h -21.11" /><path
         id="path867"
         style="fill:#a7a5a6;fill-opacity:1;fill-rule:nonzero;stroke:none"
         d="m 6331.04,1906.97 v 254.64 l -116.13,-198.68 h -13.31 l -116.08,198.68 v -254.64 h -21.18 v 294.43 h 21.18 l 122.71,-210.71 122.81,210.71 h 21.23 v -294.43 h -21.23" /><path
         id="path869"
         style="fill:#a7a5a6;fill-opacity:1;fill-rule:nonzero;stroke:none"
         d="m 6626.33,1925.99 v -19.02 h -196.22 v 294.43 h 192.47 v -19.14 H 6451.33 V 2066.6 h 149.7 v -18.27 h -149.7 v -122.34 h 175" /><path
         id="path871"
         style="fill:#a7a5a6;fill-opacity:1;fill-rule:nonzero;stroke:none"
         d="m 6706.34,2161.61 v -254.64 h -21.2 v 294.43 h 16.2 l 206.55,-259.2 v 258.77 h 21.15 v -294 h -19.49 l -203.21,254.64" /><path
         id="path873"
         style="fill:#a7a5a6;fill-opacity:1;fill-rule:nonzero;stroke:none"
         d="m 7213.54,2182.26 h -107.83 v -275.29 h -21.14 v 275.29 h -107.86 v 19.14 h 236.83 v -19.14" /><path
         id="path875"
         style="fill:#a7a5a6;fill-opacity:1;fill-rule:nonzero;stroke:none"
         d="m 7248.33,2054.19 c 0,-16.9 2.82,-33.19 8.29,-48.94 5.86,-15.51 13.89,-29.35 24.09,-41.48 10.47,-11.9 22.74,-21.42 36.96,-28.59 14.27,-7.24 30.11,-10.84 47.27,-10.84 17.68,0 33.58,3.74 47.67,11.16 14.34,7.54 26.67,17.35 36.95,29.54 10.19,12.43 18.07,26.38 23.54,41.83 5.55,15.49 8.36,31.22 8.36,47.32 0,16.86 -2.93,33.04 -8.75,48.48 -5.82,15.75 -13.97,29.59 -24.4,41.48 -10.28,12.21 -22.57,21.85 -37.03,28.99 -14.09,7.21 -29.52,10.84 -46.34,10.84 -17.69,0 -33.78,-3.77 -48.11,-11.19 -14.41,-7.47 -26.77,-17.41 -36.94,-29.88 -9.96,-12.19 -17.77,-26.02 -23.27,-41.46 -5.47,-15.47 -8.29,-31.26 -8.29,-47.26 z m 116.61,-149.33 c -20.54,0 -39.11,4.3 -55.98,12.87 -16.88,8.57 -31.42,19.78 -43.52,33.62 -12.26,13.77 -21.6,29.69 -28.27,47.68 -6.6,17.96 -9.96,36.33 -9.96,55.16 0,19.62 3.48,38.38 10.51,56.39 7.06,17.99 16.73,33.84 28.94,47.75 12.39,13.74 27.09,24.64 43.86,32.72 16.93,8.22 35.11,12.42 54.85,12.42 20.42,0 39.13,-4.37 55.95,-13.3 16.83,-8.55 31.28,-19.85 43.11,-33.99 12.19,-14.03 21.56,-30.17 28.19,-48.1 6.64,-17.74 9.96,-35.66 9.96,-53.89 0,-19.96 -3.59,-38.9 -10.78,-56.86 -6.9,-17.95 -16.59,-33.83 -29,-47.62 -12.23,-13.59 -26.72,-24.49 -43.59,-32.88 -16.51,-7.94 -34.67,-11.97 -54.27,-11.97" /><path
         id="path877"
         style="fill:#a7a5a6;fill-opacity:1;fill-rule:nonzero;stroke:none"
         d="m 3542.1,2600.44 h 101.63 c 9.6,0 18.37,1.97 26.1,5.84 7.73,4.18 14.28,9.5 19.49,16.18 5.52,6.91 9.66,14.65 12.49,23.19 2.99,8.89 4.55,18.03 4.55,27.38 0,9.7 -1.79,18.84 -5.37,27.37 -3.39,8.89 -8.08,16.62 -14.11,23.24 -5.88,6.63 -12.73,11.94 -20.82,15.81 -7.75,3.87 -16.05,5.76 -24.77,5.76 h -99.19 z m -21.14,-130.64 v 294.49 h 121.09 c 12.36,0 23.88,-2.62 34.44,-7.86 10.44,-5.26 19.45,-12.35 26.96,-21.16 7.76,-8.63 13.63,-18.39 17.87,-29.44 4.29,-10.81 6.56,-21.71 6.56,-32.8 0,-11.83 -2.05,-23.33 -6.29,-34.4 -3.79,-11.05 -9.49,-20.86 -16.87,-29.44 -7.26,-8.58 -15.93,-15.41 -26.1,-20.74 -10.04,-4.95 -21.21,-7.49 -33.68,-7.49 H 3542.1 V 2469.8 h -21.14" /><path
         id="path879"
         style="fill:#a7a5a6;fill-opacity:1;fill-rule:nonzero;stroke:none"
         d="m 4052.26,2617.11 c 0,-16.93 2.67,-33.19 8.27,-49.01 5.78,-15.45 13.79,-29.26 23.94,-41.46 10.6,-11.91 22.9,-21.41 36.94,-28.64 14.45,-7.13 30.15,-10.76 47.31,-10.76 17.71,0 33.54,3.75 47.75,11.21 14.34,7.49 26.71,17.25 36.88,29.46 10.2,12.47 18.07,26.4 23.59,41.84 5.51,15.5 8.38,31.27 8.38,47.36 0,16.8 -2.99,33 -8.86,48.5 -5.77,15.72 -13.87,29.6 -24.43,41.45 -10.14,12.13 -22.4,21.85 -36.82,29.03 -14.14,7.23 -29.62,10.78 -46.49,10.78 -17.69,0 -33.76,-3.75 -48.15,-11.21 -14.33,-7.46 -26.57,-17.33 -36.78,-29.83 -10.04,-12.16 -17.73,-25.99 -23.26,-41.5 -5.6,-15.45 -8.27,-31.25 -8.27,-47.22 z m 116.46,-149.32 c -20.4,0 -39.15,4.26 -55.98,12.84 -16.89,8.56 -31.43,19.75 -43.48,33.59 -12.26,13.83 -21.63,29.68 -28.23,47.67 -6.6,17.93 -9.98,36.36 -9.98,55.22 0,19.59 3.38,38.35 10.41,56.35 7.12,18 16.87,33.89 29.09,47.68 12.36,13.82 26.93,24.8 43.79,32.79 16.97,8.29 35.13,12.43 54.81,12.43 20.48,0 39.13,-4.38 55.99,-13.28 16.89,-8.51 31.2,-19.88 43.09,-33.99 12.19,-14.14 21.58,-30.18 28.25,-48.13 6.61,-17.69 9.95,-35.67 9.95,-53.85 0,-19.95 -3.64,-38.85 -10.84,-56.88 -6.89,-17.98 -16.63,-33.86 -29.01,-47.65 -12.11,-13.59 -26.72,-24.49 -43.48,-32.81 -16.7,-7.99 -34.76,-11.98 -54.38,-11.98" /><path
         id="path881"
         style="fill:#a7a5a6;fill-opacity:1;fill-rule:nonzero;stroke:none"
         d="m 4582.99,2515.43 c -28.47,-31.75 -61.47,-47.64 -98.72,-47.64 -19.91,0 -38.42,4.26 -55.6,12.84 -16.83,8.56 -31.36,19.96 -43.5,33.98 -12.19,14.12 -21.72,30.16 -28.59,48.14 -7.02,17.95 -10.38,36.2 -10.38,54.67 0,19.43 3.36,38.04 9.95,56.04 6.98,18 16.33,33.89 28.25,47.68 12.09,13.82 26.34,24.8 42.67,32.79 16.53,8.29 34.71,12.43 54.31,12.43 15,0 28.2,-1.66 39.83,-5.02 11.85,-3.03 22.42,-7.41 31.5,-13.24 9.11,-5.48 16.96,-12.26 23.6,-20.29 6.91,-7.74 12.77,-16.36 17.44,-25.73 l -17.01,-10.36 c -10.23,19.34 -23.61,33.29 -40.22,41.91 -16.29,8.87 -34.85,13.24 -55.61,13.24 -17.32,0 -33.03,-3.75 -47.25,-11.21 -13.82,-7.46 -25.57,-17.25 -35.61,-29.44 -10.03,-12.18 -17.59,-25.97 -22.76,-41.48 -5.35,-15.49 -7.89,-31.34 -7.89,-47.63 0,-17.45 2.89,-34.04 9.06,-49.79 6.07,-15.48 14.37,-29.21 24.89,-41.05 10.72,-11.92 23.29,-21.45 37.74,-28.64 14.37,-6.92 29.8,-10.39 46.47,-10.39 17.96,0 34.83,4.18 50.53,12.46 16.05,8.27 31.67,21.31 46.9,38.98 v 57.25 h -66.81 v 17.01 h 85.39 V 2469.8 h -18.58 v 45.63" /><path
         id="path883"
         style="fill:#a7a5a6;fill-opacity:1;fill-rule:nonzero;stroke:none"
         d="m 4687.13,2600.44 h 103.21 c 9.48,0 17.92,2.13 25.73,6.29 7.73,4.14 14.41,9.5 19.87,16.12 5.61,6.95 9.73,14.61 12.5,23.23 3.04,8.91 4.53,17.84 4.53,26.95 0,9.45 -1.72,18.43 -5.41,26.98 -3.2,8.83 -7.95,16.6 -14.11,23.2 -5.8,6.71 -12.69,11.91 -20.74,15.75 -7.69,4.16 -16.13,6.25 -25.3,6.25 h -100.28 z m -21.2,-130.64 v 294.49 h 122.81 c 12.43,0 23.79,-2.62 34.39,-7.86 10.47,-5.26 19.53,-12.35 26.95,-21.16 7.52,-8.63 13.25,-18.39 17.34,-29.44 4.53,-10.81 6.77,-21.71 6.77,-32.8 0,-10.74 -1.62,-21.28 -5.02,-31.51 -3.32,-9.92 -8.06,-18.94 -14.13,-26.95 -6.09,-8 -13.41,-14.64 -21.96,-19.91 -8.62,-5.26 -18.03,-8.7 -28.28,-10.34 l 73.41,-114.52 h -24.38 l -71.38,111.16 h -95.32 V 2469.8 h -21.2" /><path
         id="path885"
         style="fill:#a7a5a6;fill-opacity:1;fill-rule:nonzero;stroke:none"
         d="m 5036.66,2738.57 -65.45,-154.25 h 129.76 z m -133.98,-268.77 125.27,294.49 h 17.45 l 125.39,-294.49 h -22.92 l -41.16,97.05 h -140.52 l -41.1,-97.05 h -22.41" /><path
         id="path887"
         style="fill:#a7a5a6;fill-opacity:1;fill-rule:nonzero;stroke:none"
         d="m 5483.41,2469.8 v 254.66 l -116.17,-198.68 h -13.29 l -116.12,198.68 V 2469.8 h -21.16 v 294.49 h 21.16 l 122.74,-210.65 122.84,210.65 h 20.99 V 2469.8 h -20.99" /><path
         id="path889"
         style="fill:#a7a5a6;fill-opacity:1;fill-rule:nonzero;stroke:none"
         d="m 5684.88,2738.57 -65.58,-154.25 h 129.88 z m -133.93,-268.77 125.23,294.49 h 17.43 l 125.23,-294.49 h -22.88 l -41.02,97.05 H 5614.5 l -41.2,-97.05 h -22.35" /><path
         id="path891"
         style="fill:#a7a5a6;fill-opacity:1;fill-rule:nonzero;stroke:none"
         d="m 6202.61,2617.42 c 0,18.59 -2.58,35.62 -7.89,51.05 -5.19,15.77 -12.92,29.32 -23.17,40.68 -9.96,11.33 -22.3,20.15 -36.84,26.51 -14.76,6.37 -31.63,9.55 -50.65,9.55 h -76.77 v -256.29 h 76.77 c 19.33,0 36.39,3.2 51,9.53 14.94,6.67 27.49,15.77 37.39,27.33 9.89,11.63 17.35,25.19 22.27,40.7 5.31,15.73 7.89,32.75 7.89,50.94 z M 5986.2,2469.8 v 294.49 h 97.86 c 23.2,0 43.5,-3.91 60.95,-11.6 17.7,-7.73 32.28,-18.32 43.95,-31.55 11.6,-13.26 20.29,-28.88 26.11,-46.81 5.78,-17.7 8.7,-36.67 8.7,-56.91 0,-22.37 -3.35,-42.67 -9.95,-60.91 -6.29,-17.97 -15.64,-33.44 -27.73,-46.43 -12.16,-12.75 -26.96,-22.71 -44.36,-29.88 -17.22,-6.88 -36.37,-10.4 -57.67,-10.4 h -97.86" /><path
         id="path893"
         style="fill:#a7a5a6;fill-opacity:1;fill-rule:nonzero;stroke:none"
         d="m 6480.05,2488.92 v -19.12 h -196.12 v 294.49 h 192.41 v -19.08 h -171.27 v -115.68 h 149.76 v -18.31 h -149.76 v -122.3 h 174.98" /><path
         id="path895"
         style="fill:#a7a5a6;fill-opacity:1;fill-rule:nonzero;stroke:none"
         d="M 3800.02,2745.21 V 2469.8 h -21.08 v 294.49 h 121.03 c 12.47,0 23.87,-2.62 34.41,-7.86 10.51,-5.26 19.61,-12.35 26.99,-21.16 7.79,-8.63 13.67,-18.39 17.84,-29.44 4.38,-10.81 6.64,-21.71 6.64,-32.8 0,-11.83 -2.09,-23.33 -6.21,-34.4 -3.86,-11.05 -9.56,-20.86 -17.06,-29.44 -7.2,-8.58 -15.87,-15.41 -26.14,-20.74 -9.92,-4.95 -21.15,-7.49 -33.58,-7.49 h -40.91 l 124.69,-110.67 h -28.45 l -124.59,110.67 -0.74,19.48 h 68.79 c 9.68,0 18.44,1.97 26.16,5.84 7.71,4.18 14.15,9.5 19.45,16.18 5.54,6.91 9.68,14.65 12.43,23.19 3.02,8.89 4.59,18.03 4.59,27.38 0,9.7 -1.8,18.84 -5.49,27.37 -3.28,8.89 -7.96,16.62 -14.01,23.24 -5.81,6.63 -12.7,11.94 -20.68,15.81 -7.81,3.87 -16.15,5.76 -24.97,5.76 h -99.11" /><path
         id="path897"
         style="fill:#a7a5a6;fill-opacity:1;fill-rule:nonzero;stroke:none"
         d="m 3894.75,1359.02 c 19.49,0 35.56,3.64 48.31,10.93 12.9,7.36 23.29,16.99 30.87,28.84 7.55,11.95 12.82,25.42 15.83,40.55 3.22,15.23 4.88,30.52 4.88,45.92 v 144.91 h 20.66 v -144.91 c 0,-19.17 -2.19,-37.59 -6.49,-55.21 -4.08,-17.59 -10.77,-33.1 -20.3,-46.7 -9.49,-13.28 -21.91,-23.82 -37.39,-31.65 -15.17,-7.85 -33.8,-11.8 -55.94,-11.8 -22.82,0 -41.88,4.12 -57.28,12.21 -15.42,8.38 -27.92,19.36 -37.37,32.92 -9.16,13.76 -15.86,29.3 -19.9,46.64 -3.75,17.34 -5.64,35.24 -5.64,53.59 v 144.91 h 20.68 v -144.91 c 0,-15.94 1.56,-31.53 4.39,-46.68 3.28,-15.15 8.63,-28.72 16.38,-40.59 7.48,-11.61 17.67,-21.13 30.46,-28.43 12.65,-7.08 28.6,-10.54 47.85,-10.54" /><path
         id="path899"
         style="fill:#a7a5a6;fill-opacity:1;fill-rule:nonzero;stroke:none"
         d="m 4451.04,1605.07 -64.12,-151.05 h 127.07 z m -131.06,-263.08 122.55,288.18 h 17.03 l 122.59,-288.18 h -22.28 l -40.2,95.01 h -137.59 l -40.22,-95.01 h -21.88" /><path
         id="path901"
         style="fill:#a7a5a6;fill-opacity:1;fill-rule:nonzero;stroke:none"
         d="m 4632.85,1341.99 v 288.18 h 20.68 v -269.59 h 172.18 v -18.59 h -192.86" /><path
         id="path903"
         style="fill:#a7a5a6;fill-opacity:1;fill-rule:nonzero;stroke:none"
         d="m 3541.71,1611.51 v -269.52 h -20.75 v 288.18 h 118.53 c 12.13,0 23.37,-2.55 33.72,-7.69 10.23,-5.14 19,-12.02 26.43,-20.65 7.48,-8.44 13.36,-18 17.36,-28.92 4.34,-10.51 6.6,-21.22 6.6,-32.02 0,-11.65 -2.05,-22.86 -6.21,-33.68 -3.77,-10.87 -9.37,-20.46 -16.54,-28.85 -7.08,-8.38 -15.62,-15.16 -25.57,-20.28 -9.74,-4.88 -20.7,-7.34 -32.99,-7.34 h -39.92 l 122,-108.3 h -27.89 l -121.99,108.3 -0.72,19.12 h 67.32 c 9.47,0 18.06,1.9 25.62,5.71 7.51,3.99 13.98,9.34 19.03,15.75 5.43,6.81 9.59,14.4 12.22,22.76 3.03,8.69 4.44,17.62 4.44,26.81 0,9.47 -1.7,18.4 -5.27,26.78 -3.26,8.66 -7.87,16.24 -13.8,22.71 -5.73,6.52 -12.39,11.72 -20.27,15.45 -7.64,3.79 -15.74,5.68 -24.31,5.68 h -97.04" /><path
         id="path905"
         style="fill:#a7a5a6;fill-opacity:1;fill-rule:nonzero;stroke:none"
         d="m 4097.24,1611.51 v -269.52 h -20.66 v 288.18 h 118.48 c 12.2,0 23.48,-2.55 33.75,-7.69 10.28,-5.14 19.12,-12.02 26.32,-20.65 7.58,-8.44 13.45,-18 17.54,-28.92 4.27,-10.51 6.46,-21.22 6.46,-32.02 0,-11.65 -2.05,-22.86 -6.09,-33.68 -3.77,-10.87 -9.37,-20.46 -16.7,-28.85 -7,-8.38 -15.5,-15.16 -25.53,-20.28 -9.73,-4.88 -20.62,-7.34 -32.85,-7.34 h -40.04 l 121.95,-108.3 h -27.84 l -121.91,108.3 -0.67,19.12 h 67.33 c 9.43,0 17.96,1.9 25.53,5.71 7.6,3.99 13.89,9.34 19.06,15.75 5.41,6.81 9.53,14.4 12.22,22.76 2.95,8.69 4.32,17.62 4.32,26.81 0,9.47 -1.66,18.4 -5.16,26.78 -3.22,8.66 -7.83,16.24 -13.78,22.71 -5.7,6.52 -12.42,11.72 -20.35,15.45 -7.49,3.79 -15.64,5.68 -24.4,5.68 h -96.98" /><path
         id="path907"
         style="fill:#a7a5a6;fill-opacity:1;fill-rule:nonzero;stroke:none"
         d="m 5002.78,1539.79 c 5.02,32.59 23.94,56 59.8,56 68.22,0 79.43,-69.4 33.47,-102.42 h 0.47 l -137.57,-117.13 v -32.55 h 226.87 v 40.52 h -155.84 c 42.29,35.12 53.13,42.67 94.5,77 79.07,55.18 48.96,176.84 -61.9,176.84 -61.03,0 -94.49,-42.69 -101.99,-94.94 l 42.19,-3.32" /><path
         id="path909"
         style="fill:#a7a5a6;fill-opacity:1;fill-rule:nonzero;stroke:none"
         d="m 5222.14,1489.97 c 0,-41.37 17.12,-78.55 43.53,-105.76 26.75,-27.59 64.4,-44.31 105.32,-44.31 41.39,0 78.6,16.72 105.8,44.31 26.3,27.21 43.41,64.39 43.41,105.76 0,41.38 -17.11,78.58 -43.41,105.82 -27.2,27.16 -64.41,44.27 -105.8,44.27 -40.92,0 -78.57,-17.11 -105.32,-44.27 -26.41,-27.24 -43.53,-64.44 -43.53,-105.82 z m 255.49,0 c 0,-30.13 -12.18,-56.39 -30.96,-75.64 -19.6,-19.64 -46.86,-31.74 -75.68,-31.74 -28.86,0 -55.6,12.1 -74.84,31.74 -19.19,19.25 -31.37,46.04 -31.37,75.64 0,29.76 12.18,56.46 31.37,75.75 19.24,19.59 45.98,31.71 74.84,31.71 28.82,0 56.08,-12.12 75.68,-31.71 18.78,-19.29 30.96,-45.62 30.96,-75.75" /><path
         id="path911"
         style="fill:#a7a5a6;fill-opacity:1;fill-rule:nonzero;stroke:none"
         d="m 5672.95,1343.69 v 293.93 h -33.93 l -78.96,-111.23 31.79,-22.98 39.28,53.51 v -213.23 h 41.82" /><path
         id="path913"
         style="fill:#a7a5a6;fill-opacity:1;fill-rule:nonzero;stroke:none"
         d="m 5790.45,1449.88 91.57,113.26 v -113.26 z m -55.21,-10.48 v -29.67 h 145.92 v -66.04 h 41.82 v 66.04 h 45.3 v 40.91 h -45.3 v 185.71 h -32.6 L 5735.24,1439.4" /><path
         id="path915"
         style="fill:#a7a5a6;fill-opacity:1;fill-rule:nonzero;stroke:none"
         d="m 6093.75,1500.03 c -12.97,0 -23.44,-9.57 -23.44,-24.21 0,-12.09 10.47,-23.89 23.44,-23.89 14.64,0 24.63,11.8 24.63,23.89 0,14.64 -9.99,24.21 -24.63,24.21" /><path
         id="path917"
         style="fill:#a7a5a6;fill-opacity:1;fill-rule:nonzero;stroke:none"
         d="m 6484.47,1489.97 c 0,-41.37 17.1,-78.55 43.4,-105.76 26.72,-27.59 64.37,-44.31 105.45,-44.31 41.35,0 78.57,16.72 105.75,44.31 26.32,27.21 43.45,64.39 43.45,105.76 0,41.38 -17.13,78.58 -43.45,105.82 -27.18,27.16 -64.4,44.27 -105.75,44.27 -41.08,0 -78.73,-17.11 -105.45,-44.27 -26.3,-27.24 -43.4,-64.44 -43.4,-105.82 z m 255.42,0 c 0,-30.13 -12.15,-56.39 -30.89,-75.64 -19.73,-19.64 -46.87,-31.74 -75.68,-31.74 -28.9,0 -55.71,12.1 -74.86,31.74 -19.3,19.25 -31.43,46.04 -31.43,75.64 0,29.76 12.13,56.46 31.43,75.75 19.15,19.59 45.96,31.71 74.86,31.71 28.81,0 55.95,-12.12 75.68,-31.71 18.74,-19.29 30.89,-45.62 30.89,-75.75" /><path
         id="path919"
         style="fill:#a7a5a6;fill-opacity:1;fill-rule:nonzero;stroke:none"
         d="m 6269.23,1539.79 c 5.1,32.59 23.9,56 59.84,56 68.24,0 79.42,-69.4 33.46,-102.42 h 0.41 L 6225.4,1376.24 v -32.55 h 226.77 v 40.52 h -155.72 c 42.17,35.12 53.18,42.67 94.45,77 79.11,55.18 48.91,176.84 -61.83,176.84 -61.05,0 -94.44,-42.69 -101.98,-94.94 l 42.14,-3.32" /><path
         id="path921"
         style="fill:#a7a5a6;fill-opacity:1;fill-rule:nonzero;stroke:none"
         d="m 6858.59,1539.79 c 5.04,32.59 23.9,56 59.92,56 68.15,0 79.42,-69.4 33.37,-102.42 h 0.41 l -137.51,-117.13 v -32.55 h 226.76 v 40.52 h -155.66 c 42.22,35.12 53.07,42.67 94.53,77 79.05,55.18 48.86,176.84 -61.9,176.84 -61.09,0 -94.52,-42.69 -102.03,-94.94 l 42.11,-3.32" /><path
         id="path923"
         style="fill:#a7a5a6;fill-opacity:1;fill-rule:nonzero;stroke:none"
         d="m 7073.78,1489.97 c 0,-41.37 17.31,-78.55 43.55,-105.76 26.75,-27.59 64.32,-44.31 105.39,-44.31 41.36,0 78.51,16.72 105.72,44.31 26.3,27.21 43.45,64.39 43.45,105.76 0,41.38 -17.15,78.58 -43.45,105.82 -27.21,27.16 -64.36,44.27 -105.72,44.27 -41.07,0 -78.64,-17.11 -105.39,-44.27 -26.24,-27.24 -43.55,-64.44 -43.55,-105.82 z m 255.48,0 c 0,-30.13 -12.06,-56.39 -30.83,-75.64 -19.71,-19.64 -46.93,-31.74 -75.71,-31.74 -28.86,0 -55.66,12.1 -74.91,31.74 -19.19,19.25 -31.32,46.04 -31.32,75.64 0,29.76 12.13,56.46 31.32,75.75 19.25,19.59 46.05,31.71 74.91,31.71 28.78,0 56,-12.12 75.71,-31.71 18.77,-19.29 30.83,-45.62 30.83,-75.75" /><path
         id="path925"
         style="fill:#a7a5a6;fill-opacity:1;fill-rule:nonzero;stroke:none"
         d="m 2509.85,1634.75 c -14.12,-20.6 -32.41,-39.51 -55.27,-55.69 -84.92,-71.35 -107.29,-87.04 -193.82,-160.06 h 338.2 c -7.62,7.67 -14.82,15.72 -21.54,24.17 -40.35,52 -66.36,118.65 -67.57,191.58 z m 168.75,-53.58 -36.51,-29.5 -30.01,-23.98 c -60.02,128.39 -30.93,263.89 75.79,350.13 42.68,34.56 92.88,54.26 144.19,60.45 -24.6,-1.37 -49.49,-5.6 -74.08,-13.12 -82.45,-25.19 -145.74,-80.33 -183.95,-145.69 -37.2,-65.99 -49.81,-146.9 -25.97,-224.72 35.12,-114.81 127.63,-188.73 245.3,-200.29 -29.22,11.04 -57.71,26.69 -84.44,46.88 -15.83,32.76 -24.07,63.14 -26.92,90.89 -13.98,140.26 111.91,215.33 111.91,215.33 40.1,-75.77 37.27,-138.45 18.39,-187.02 54.16,41.34 129.94,27.35 129.94,27.35 -22.83,-93.25 -106.06,-104.67 -149.72,-103.95 17.21,-9.02 34.85,-15.54 52.56,-19.66 61.82,11.42 113.75,50.36 143.8,117.38 l 44.16,-3.89 c -14.66,-22.96 -34.46,-43.79 -59.19,-61.41 l 10.54,-34.37 c 12.89,6.74 25.28,14.91 37.02,24.39 44.63,36.04 69.33,88.54 73.41,143.38 4.12,54.81 -11.15,111.78 -49.49,159.13 -39.47,48.63 -92.08,75.45 -146.67,82.88 -10.95,1.42 -22.04,2.11 -32.98,1.93 -43.91,-0.74 -87.27,-15.02 -123.06,-43.94 -68.63,-55.55 -96.79,-137.72 -64.02,-228.58 z m -473.64,161.37 -89.93,6.97 c 15.39,108.73 87.43,197.43 212.6,197.43 125.77,0 200.87,-77.5 215.37,-166.21 18.24,36.78 43.31,69.19 72.4,95.67 56.93,50.85 133.47,79.11 214.61,72.03 17.4,-1.55 34.23,-4.46 50.4,-8.77 6.03,-0.26 12,-0.71 18.03,-1.33 l -191.73,366.12 v 56.15 h 123.5 c 118.26,0 200.9,73.61 200.9,144.91 0,70.19 -58.47,141.53 -176.87,141.53 h -256.65 v -265.21 c -7.58,100.19 -49.46,197.92 -125.38,269.68 v 114.85 h 382.03 c 211.64,0 317.43,-130.99 317.43,-260.85 0,-115.72 -108.89,-227.96 -276.06,-252.56 l 237.65,-463.6 c 36.4,-58.82 51.02,-126.31 46.88,-189.89 -5.66,-76.1 -40.92,-149.52 -104.28,-200.69 -55.65,-45.02 -120.86,-65.93 -186.42,-64.03 l -62.77,-0.12 c -15.11,-1.21 -30.43,-1.21 -46.07,0 h -665.57 v 67.9 l 282.05,243.54 c 93.44,68.64 70.3,213 -69.45,213 -73.7,0 -112.29,-48.63 -122.67,-116.52 z m 802.94,-42.79 c -18.9,78.85 -72.32,133.36 -142,153.88 29.24,-2.3 57.49,-10.25 83.23,-22.92 49.34,-24.36 88.81,-66.97 105.63,-121.81 1.32,-4.52 2.52,-9.04 3.65,-13.53 z M 1937.2,2052.7 h 218.5 c 208.66,0 314.26,147.95 314.26,295.91 0,148 -105.6,297.2 -314.26,297.2 h -218.5 z m -422.41,303.22 c 130.46,0 194.93,71.96 194.93,144.05 0,73 -64.47,144.98 -194.93,144.98 h -260.38 v -289.03 z m 441.31,-423.74 c 54.3,-13.65 102.84,-42.13 141.28,-80.58 12.22,-12.56 23.31,-26.08 33.35,-40.51 -7.44,-19.41 -12.74,-40.07 -15.7,-61.58 l 50.35,-3.93 c 12.93,-33.38 19.98,-69.72 19.98,-107.71 0,-83.64 -34.62,-158.86 -87.98,-213.72 -50.86,-51.62 -119.14,-84.48 -195.5,-89 l -18.39,-0.53 h -756.47 v 67.9 l 282.11,243.54 c 93.44,68.64 70.32,213 -69.53,213 -73.71,0 -112.27,-48.63 -122.67,-116.52 l -89.91,6.97 v 1016.85 h 376.19 c 152.29,0 254.83,-49.83 307.28,-123.44 v 123.44 h 153.34 191.87 c 137.37,0 242.96,-45.37 316.51,-114.85 75.92,-71.76 117.8,-169.49 125.38,-269.68 0.88,-11.12 1.19,-22.12 1.19,-33.22 0,-208.83 -148.21,-416.43 -443.08,-416.43 z m -285.66,-80.58 c 37.86,38.45 86.63,66.93 140.85,80.58 l -0.8,442.28 c -52.45,-80.28 -154.99,-139.81 -307.28,-139.81 h -248.8 v -303.74 c 24.94,10.31 53.4,16.03 85.19,16.03 227.26,0 288.98,-253.05 127.01,-367.88 -84.95,-71.31 -107.23,-87.04 -193.83,-160.06 h 402.73 l -5.07,5.15 c -53.38,54.86 -87.96,130.08 -87.96,213.72 0,83.6 34.58,158.73 87.96,213.73 z m 366.1,-60.88 c -39.69,39.72 -94.75,64.2 -153.05,64.2 -58.34,0 -112.4,-24.48 -151.4,-64.2 -38.89,-38.85 -63.41,-92.89 -63.41,-152.85 0,-59.98 24.52,-114.06 63.41,-152.84 39,-39.71 93.06,-64.29 151.4,-64.29 58.3,0 113.36,24.58 153.05,64.29 38.17,38.78 62.65,92.02 62.65,152.84 0,60.84 -24.48,114 -62.65,152.85" /></g></g></svg>
