<?xml version="1.0" encoding="UTF-8" standalone="no"?>
<svg
   xmlns:dc="http://purl.org/dc/elements/1.1/"
   xmlns:cc="http://creativecommons.org/ns#"
   xmlns:rdf="http://www.w3.org/1999/02/22-rdf-syntax-ns#"
   xmlns:svg="http://www.w3.org/2000/svg"
   xmlns="http://www.w3.org/2000/svg"
   xmlns:sodipodi="http://sodipodi.sourceforge.net/DTD/sodipodi-0.dtd"
   xmlns:inkscape="http://www.inkscape.org/namespaces/inkscape"
   inkscape:version="1.0 (4035a4f, 2020-05-01)"
   sodipodi:docname="portugal2020.svg"
   viewBox="0 0 144.27761 44.000012"
   height="44.000011"
   width="144.2776"
   xml:space="preserve"
   id="svg945"
   version="1.1"><metadata
     id="metadata951"><rdf:RDF><cc:Work
         rdf:about=""><dc:format>image/svg+xml</dc:format><dc:type
           rdf:resource="http://purl.org/dc/dcmitype/StillImage" /><dc:title></dc:title></cc:Work></rdf:RDF></metadata><defs
     id="defs949" /><sodipodi:namedview
     fit-margin-bottom="0"
     fit-margin-right="0"
     fit-margin-left="0"
     fit-margin-top="0"
     inkscape:current-layer="g953"
     inkscape:window-maximized="0"
     inkscape:window-y="25"
     inkscape:window-x="0"
     inkscape:cy="128.4"
     inkscape:cx="306.61547"
     inkscape:zoom="1.323397"
     showgrid="false"
     id="namedview947"
     inkscape:window-height="898"
     inkscape:window-width="1225"
     inkscape:pageshadow="2"
     inkscape:pageopacity="0"
     guidetolerance="10"
     gridtolerance="10"
     objecttolerance="10"
     borderopacity="1"
     bordercolor="#666666"
     pagecolor="#ffffff" /><g
     transform="matrix(1.3333333,0,0,-1.3333333,0,256.80001)"
     inkscape:label="ink_ext_XXXXXX"
     inkscape:groupmode="layer"
     id="g953"><g
       style="fill:#a7a5a6;fill-opacity:1"
       transform="matrix(0.01713405,0,0,0.01713405,0,159.6)"
       id="g955"><path
         id="path957"
         style="fill:#a7a5a6;fill-opacity:1;fill-rule:nonzero;stroke:none"
         d="m 1566.04,174.34 433.9,368.422 c 43.3,35.957 79.79,68.578 109.77,97.886 30.09,29.461 54.32,57.25 72.94,83.653 18.67,26.308 32.09,52.14 40.48,77.308 8.46,25.11 12.62,52.082 12.62,80.871 0,62.27 -19.44,110.528 -58.5,144.62 -38.97,34.24 -87.31,51.26 -144.91,51.26 -57.59,0 -108.37,-15.57 -152.17,-46.81 -43.8,-31.24 -90.22,-78.573 -139.47,-142.198 l -156.66,122.388 c 29.97,42.07 60.56,79.72 91.85,113.01 31.13,33.28 65.03,61.12 101.68,83.44 36.55,22.42 76.84,39.79 120.68,51.88 43.68,12.11 93.84,18.15 150.28,18.15 61.18,0 117.32,-8.98 168.37,-27.03 50.97,-17.96 94.77,-43.47 131.4,-76.48 36.62,-33.07 65.14,-72.7 85.57,-118.89 20.36,-46.21 30.56,-97.5 30.56,-153.89 v -3.578 c 0,-49.301 -6.64,-93.942 -19.81,-134.153 -13.23,-40.25 -33.29,-78.949 -60.24,-116.121 -27.09,-37.297 -61.3,-74.75 -102.69,-112.476 -41.39,-37.821 -89.74,-79.571 -144.98,-125.204 L 1877.52,194.359 h 599.5 V 0 h -910.98 v 174.34" /><path
         id="path959"
         style="fill:#a7a5a6;fill-opacity:1;fill-rule:nonzero;stroke:none"
         d="m 3240.42,203.34 c 62.12,0 119.15,11.699 171.21,35.148 51.89,23.461 96.43,55.242 133.47,95.41 37.06,40.231 66.07,87.301 86.98,141.313 20.97,54.039 31.34,111.598 31.34,172.867 v 3.613 c 0,61.2 -10.37,119.11 -31.34,173.731 -20.91,54.547 -50.15,102.039 -87.88,142.25 -37.66,40.238 -82.74,72.298 -135.31,96.258 -52.57,24.05 -109.97,36.04 -172.11,36.04 -62.18,0 -119.18,-11.65 -171.2,-35.05 -51.98,-23.47 -96.52,-55.26 -133.56,-95.486 -37.04,-40.153 -66.01,-87.325 -86.98,-141.364 -20.85,-53.929 -31.41,-111.57 -31.41,-172.851 v -3.528 c 0,-61.203 10.56,-119.16 31.41,-173.691 20.97,-54.762 50.23,-102.102 87.82,-142.262 37.72,-40.218 82.8,-72.367 135.44,-96.367 52.52,-23.891 109.86,-36.031 172.12,-36.031 M 3236.78,0 c -97.22,0 -186.07,17.0391 -266.45,51.2383 -80.43,34.1836 -149.45,80.6917 -207.12,139.6137 -57.59,58.687 -102.55,127.418 -135,206.117 -32.38,78.582 -48.59,162.269 -48.59,251.109 v 3.613 c 0,88.789 16.21,172.579 48.59,251.168 32.45,78.571 78.07,147.591 136.82,207.051 58.82,59.38 128.43,106.45 208.93,141.32 80.38,34.76 169.15,52.23 266.46,52.23 97.28,0 185.99,-17.17 266.37,-51.36 80.5,-34.22 149.45,-80.73 207.12,-139.52 57.64,-58.77 102.55,-127.498 135.04,-206.111 32.36,-78.668 48.6,-162.328 48.6,-251.25 v -3.528 c 0,-88.839 -16.24,-172.582 -48.6,-251.14 -32.49,-78.699 -77.98,-147.66 -136.86,-207.02 C 3653.3,134.07 3583.67,86.9492 3503.24,52.2188 3422.85,17.3398 3334.01,0 3236.78,0" /><path
         id="path961"
         style="fill:#a7a5a6;fill-opacity:1;fill-rule:nonzero;stroke:none"
         d="m 3983.92,174.34 433.98,368.422 c 43.09,35.957 79.64,68.578 109.74,97.886 30.04,29.461 54.33,57.25 72.94,83.653 18.54,26.308 32.03,52.14 40.51,77.308 8.33,25.11 12.54,52.082 12.54,80.871 0,62.27 -19.44,110.528 -58.54,144.62 -38.97,34.24 -87.26,51.26 -144.86,51.26 -57.68,0 -108.37,-15.57 -152.11,-46.81 -43.84,-31.24 -90.4,-78.573 -139.53,-142.198 l -156.72,122.388 c 30.1,42.07 60.61,79.72 91.86,113.01 31.25,33.28 65.14,61.12 101.76,83.44 36.62,22.42 76.76,39.79 120.64,51.88 43.76,12.11 93.85,18.15 150.23,18.15 61.28,0 117.38,-8.98 168.36,-27.03 51,-17.96 94.88,-43.47 131.46,-76.48 36.62,-33.07 65.07,-72.7 85.5,-118.89 20.42,-46.21 30.63,-97.5 30.63,-153.89 v -3.578 c 0,-49.301 -6.51,-93.942 -19.81,-134.153 -13.23,-40.25 -33.36,-78.949 -60.38,-116.121 -26.89,-37.297 -61.17,-74.75 -102.54,-112.476 -41.53,-37.821 -89.75,-79.571 -144.94,-125.204 L 4295.33,194.359 h 599.58 V 0 h -910.99 v 174.34" /><path
         id="path963"
         style="fill:#a7a5a6;fill-opacity:1;fill-rule:nonzero;stroke:none"
         d="m 5658.31,203.34 c 62.04,0 119.09,11.699 171.07,35.148 52.1,23.461 96.51,55.242 133.6,95.41 37.06,40.231 65.93,87.301 86.99,141.313 20.88,54.039 31.29,111.598 31.29,172.867 v 3.613 c 0,61.2 -10.41,119.11 -31.29,173.731 -21.06,54.547 -50.24,102.039 -87.83,142.25 -37.76,40.238 -82.73,72.298 -135.36,96.258 -52.59,24.05 -109.99,36.04 -172.12,36.04 -62.25,0 -119.35,-11.65 -171.16,-35.05 -52.02,-23.47 -96.61,-55.26 -133.68,-95.486 -37.03,-40.153 -65.97,-87.325 -86.9,-141.364 -20.94,-53.929 -31.35,-111.57 -31.35,-172.851 v -3.528 c 0,-61.203 10.41,-119.16 31.35,-173.691 20.93,-54.762 50.24,-102.102 87.76,-142.262 37.7,-40.218 82.79,-72.367 135.37,-96.367 52.69,-23.891 109.94,-36.031 172.26,-36.031 M 5654.66,0 c -97.22,0 -186.08,17.0391 -266.45,51.2383 -80.42,34.1836 -149.46,80.6917 -207.04,139.6137 -57.72,58.687 -102.63,127.418 -135,206.117 -32.41,78.582 -48.72,162.269 -48.72,251.109 v 3.613 c 0,88.789 16.31,172.579 48.72,251.168 32.37,78.571 78.01,147.591 136.81,207.051 58.67,59.38 128.41,106.45 208.73,141.32 80.51,34.76 169.34,52.23 266.6,52.23 97.09,0 185.94,-17.17 266.36,-51.36 80.37,-34.22 149.41,-80.73 207.11,-139.52 57.53,-58.77 102.56,-127.498 135.01,-206.111 32.34,-78.668 48.6,-162.328 48.6,-251.25 v -3.528 c 0,-88.839 -16.26,-172.582 -48.6,-251.14 -32.45,-78.699 -78.03,-147.66 -136.8,-207.02 C 6071.1,134.07 6001.55,86.9492 5920.98,52.2188 5840.74,17.3398 5751.84,0 5654.66,0" /><path
         id="path965"
         style="fill:#a7a5a6;fill-opacity:1;fill-rule:nonzero;stroke:none"
         d="m 3916.28,1566.67 v 42.32 c 13.72,2.64 29.98,5.33 45.71,6.2 v 256.22 c -15.73,1.08 -31.99,3.66 -45.71,6.35 v 42.44 h 159.37 v -42.44 c -13.66,-2.69 -29.9,-5.27 -45.75,-6.35 v -248.74 h 67.75 c 1.04,12.69 3.63,27.77 6.29,43.39 h 50.16 v -99.39 z m -181.47,229.86 c -6.69,19.43 -11.89,36.08 -16.19,55.53 h -0.54 c -4.3,-17.68 -9.44,-38.34 -16.76,-57.99 l -30.39,-84.49 h 95.3 z m 26.17,-229.86 v 42.32 c 11.06,2.13 25.19,4.76 37.16,5.66 l -15.17,41.92 h -128.83 l -14.69,-41.92 c 12.17,-0.9 26.29,-3.53 37.29,-5.66 v -42.32 h -133.01 v 42.32 c 8.46,2.64 18.72,4.76 27.67,5.33 l 107.87,305.88 h 83.27 l 110.07,-305.88 c 8.88,-0.57 19.4,-2.69 27.75,-5.33 v -42.32 z M 3515,1703.27 v -120.09 c -35.09,-13.96 -79.03,-21.88 -121.95,-21.88 -111.6,0 -177.66,66.17 -177.66,173.86 0,112.66 75.43,190.22 195.91,190.22 33.07,0 66.06,-4.71 98.64,-13.17 v -94.81 h -52.57 c -2.97,15.21 -4.59,28.74 -6.23,42.55 -14.08,3.78 -29.37,5.3 -43.52,5.3 -68.58,0 -118.26,-43.58 -118.26,-123.6 0,-75.04 40.85,-118.98 112.7,-118.98 16.63,0 31.31,1.99 44.78,6.33 v 73.73 c -15.53,1.11 -31.84,3.7 -44.78,6.85 v 42.45 h 142.46 v -43.46 c -9.56,-2.14 -19.6,-3.71 -29.52,-5.3 z m -351.28,168.14 v -169.19 c 0,-93.7 -51.91,-141.29 -146.12,-141.29 -111.71,0 -136.65,60.68 -136.65,128.14 v 182.34 c -11.6,1.08 -23.15,3.04 -33.11,5.8 v 42.99 h 138.75 v -42.99 c -12.04,-3.12 -25.63,-4.72 -37.71,-5.8 v -178.1 c 0,-44.59 14.19,-75.96 72.93,-75.96 52.23,0 74.77,22.03 74.77,82.27 v 171.79 c -12.63,1.08 -26.1,2.68 -37.6,5.8 v 42.99 h 137.18 v -42.99 c -10.03,-2.76 -20.89,-4.72 -32.44,-5.8 z m -394.28,-50.77 c -2.4,16.14 -5.19,30.29 -6.11,43.53 h -54.54 v -248.98 c 15.69,-0.87 31.83,-3.56 45.62,-6.2 v -42.32 h -159.32 v 42.32 c 13.72,2.64 29.93,5.33 45.63,6.2 v 248.98 h -53.97 c -0.95,-13.24 -3.67,-27.39 -6.15,-43.53 h -50.4 v 99.56 h 289.53 v -99.56 z m -401.08,45.91 c -9.37,0 -19.23,-0.24 -26.12,-1.3 v -102.31 c 4.78,-0.4 13.66,-0.95 24.05,-0.95 41.42,0 66.06,20.85 66.06,53.97 0,33.99 -20.48,50.59 -63.99,50.59 z m 69.74,-299.88 -86.5,145.85 h -9.36 v -97.33 c 10.05,-0.87 21.41,-2.53 32.03,-5.69 v -42.83 h -145.65 v 42.32 c 13.62,2.64 29.88,5.33 45.57,6.2 v 256.22 c -15.69,1.08 -31.95,3.66 -45.57,6.35 v 42.44 h 40.86 c 13.66,0 62.75,2.04 106.24,2.04 78.09,0 128.43,-27.1 128.43,-99.42 0,-49.37 -33.61,-85.55 -83.35,-96.02 6.43,-8.3 12.51,-17.22 17.91,-25.59 l 54.45,-85.44 c 9.9,-1.45 22.42,-3.55 34.61,-5.73 v -43.37 z m -400.56,297.87 c -48.66,0 -93.75,-38.82 -93.75,-118.22 0,-74.89 29.39,-123.65 92.77,-123.65 46.06,0 95.19,35.6 95.19,120.41 0,78.59 -33.35,121.46 -94.21,121.46 z m -5.81,-303.61 c -107.92,0 -160.73,68.54 -160.73,177.96 0,116.9 77.95,187.1 172.82,187.1 94.22,0 160.89,-56.63 160.89,-177.59 0,-116.75 -77.07,-187.47 -172.98,-187.47 z m -328.39,305.62 c -8.34,0 -15.64,0 -23.61,-0.24 V 1748.4 c 6.87,-1.03 13.58,-1.69 19.82,-1.69 41.49,0.66 70.39,23.62 70.39,61.81 0,35.66 -19.94,58.03 -66.6,58.03 z m -1.02,-176.28 c -6.35,0 -14.26,0 -22.59,0.93 v -76.01 c 15.77,-0.87 31.96,-3.56 45.67,-6.2 v -42.32 h -159.36 v 42.32 c 13.61,2.64 29.84,5.33 45.57,6.2 v 256.22 c -15.73,1.08 -31.96,3.66 -45.57,6.35 v 42.44 h 41.03 c 16.63,0 62.79,2.04 99.49,2.04 86.34,0 133.97,-40.36 133.97,-109.45 0,-68.61 -52.22,-122.52 -138.21,-122.52" /><path
         id="path967"
         style="fill:#a7a5a6;fill-opacity:1;fill-rule:nonzero;stroke:none"
         d="M 505.727,1911 C 193.852,1787.67 0,1462.42 0,961.434 V 200.93 c 0,0 63.7969,488.851 505.727,629.621 V 1911" /><path
         id="path969"
         style="fill:#a7a5a6;fill-opacity:1;fill-rule:nonzero;stroke:none"
         d="M 656.598,755.441 C 475.453,719.27 210.035,574.039 131.938,369.57 c 388.898,472.258 1182.752,15.84 1217.932,904.04 11.11,281.19 12.26,627.41 12.26,627.41 -414.45,-23.3 -705.532,-133.7 -705.532,-133.7 V 755.441" /><path
         id="path971"
         style="fill:#a7a5a6;fill-opacity:1;fill-rule:nonzero;stroke:none"
         d="m 606.051,498.98 c 0,0 -422.043,-34.199 -457.926,-275.191 C 119.82,35.4219 606.051,30.4883 606.051,30.4883 V 498.98" /></g></g></svg>
