<?xml version="1.0" encoding="UTF-8" standalone="no"?>
<!-- Created with Inkscape (http://www.inkscape.org/) -->

<svg
   xmlns:dc="http://purl.org/dc/elements/1.1/"
   xmlns:cc="http://creativecommons.org/ns#"
   xmlns:rdf="http://www.w3.org/1999/02/22-rdf-syntax-ns#"
   xmlns:svg="http://www.w3.org/2000/svg"
   xmlns="http://www.w3.org/2000/svg"
   xmlns:sodipodi="http://sodipodi.sourceforge.net/DTD/sodipodi-0.dtd"
   xmlns:inkscape="http://www.inkscape.org/namespaces/inkscape"
   width="113"
   height="70.909523"
   id="svg5520"
   version="1.1"
   inkscape:version="0.48.4 r9939"
   sodipodi:docname="Gov.svg">
  <defs
     id="defs5522">
    <clipPath
       id="clipPath3018"
       clipPathUnits="userSpaceOnUse">
      <path
         inkscape:connector-curvature="0"
         id="path3020"
         d="m 107.783,214.0826 373.126,0 0,219.466 -373.126,0 0,-219.466 z" />
    </clipPath>
    <clipPath
       id="clipPath3026"
       clipPathUnits="userSpaceOnUse">
      <path
         inkscape:connector-curvature="0"
         id="path3028"
         d="m 132.439,240.2646 299.8689,0 0,188.1731 -299.8689,0 0,-188.1731 z" />
    </clipPath>
  </defs>
  <sodipodi:namedview
     id="base"
     pagecolor="#ffffff"
     bordercolor="#666666"
     borderopacity="1.0"
     inkscape:pageopacity="0.0"
     inkscape:pageshadow="2"
     inkscape:zoom="0.35"
     inkscape:cx="236.57994"
     inkscape:cy="315.5352"
     inkscape:document-units="px"
     inkscape:current-layer="layer1"
     showgrid="false"
     fit-margin-top="0"
     fit-margin-left="0"
     fit-margin-right="0"
     fit-margin-bottom="0"
     inkscape:window-width="1323"
     inkscape:window-height="744"
     inkscape:window-x="43"
     inkscape:window-y="24"
     inkscape:window-maximized="1" />
  <metadata
     id="metadata5525">
    <rdf:RDF>
      <cc:Work
         rdf:about="">
        <dc:format>image/svg+xml</dc:format>
        <dc:type
           rdf:resource="http://purl.org/dc/dcmitype/StillImage" />
        <dc:title></dc:title>
      </cc:Work>
    </rdf:RDF>
  </metadata>
  <g
     inkscape:label="Layer 1"
     inkscape:groupmode="layer"
     id="layer1"
     transform="translate(-15.676123,-876.06474)">
    <g
       transform="matrix(0.37683135,0,0,-0.37683135,-34.231046,1037.5135)"
       inkscape:label="Manual de Normas de Implementação da -Imagem PRODER-"
       id="g3012">
      <g
         id="g3014">
        <g
           clip-path="url(#clipPath3018)"
           id="g3016">
          <g
             id="g3022">
            <g
               clip-path="url(#clipPath3026)"
               id="g3024"
               inkscape:export-filename="/home/filipe/Desktop/spiracol/signa.png"
               inkscape:export-xdpi="60"
               inkscape:export-ydpi="60">
              <path
                 id="path3030-1"
                 style="fill:#e9e9e9;fill-opacity:1;fill-rule:nonzero;stroke:none"
                 d="m 228.2091,362.9237 20.0532,0 c 3.1171,6.1219 4.8863,13.0305 4.8949,20.3517 0.0213,24.9433 -20.3135,45.1623 -45.3967,45.1623 -25.0793,0 -45.5055,-20.219 -45.5887,-45.1623 -0.0867,-24.973 20.2514,-45.272 45.3946,-45.272 5.971,0 11.6645,1.1551 16.8909,3.2324 l 0.0265,16.3121 c 0.009,2.4613 0.6875,5.3758 3.7253,5.3758"
                 inkscape:connector-curvature="0" />
              <path
                 id="path3032"
                 style="fill:#a7a5a6;fill-opacity:1;fill-rule:nonzero;stroke:none"
                 d="m 248.2623,362.9237 -20.0532,0 c -3.0378,0 -3.7164,-2.9145 -3.7253,-5.3758 l -0.0265,-16.3121 c 10.3401,4.1101 18.8129,11.876 23.805,21.6879"
                 inkscape:connector-curvature="0" />
              <path
                 id="path3034"
                 style="fill:#d3d2d2;fill-opacity:1;fill-rule:nonzero;stroke:none"
                 d="m 156.3022,309.997 -4.022,0 c -1.1687,0 -1.4583,0.3603 -1.4547,1.3785 l 0.0299,8.2964 c 0.002,0.582 0.2244,1.3055 1.3202,1.3055 l 3.8693,0 c 2.7786,0 5.2563,-1.7432 5.241,-5.3095 -0.013,-4.2924 -2.8679,-5.6709 -4.9837,-5.6709 z m 16.8363,9.9625 5.8058,0 c -1.6599,9.7571 -8.1479,14.1064 -21.3176,14.1064 l -22.3426,0 c -2.0453,0 -2.6299,-0.5079 -2.6375,-1.8877 l -0.2062,-48.8409 c -0.005,-1.6801 -0.0841,-2.5481 2.1815,-2.5481 l 12.0664,0 c 2.5625,0 3.7335,0.4362 3.7393,2.333 l 0.0429,11.074 c 0.007,1.53 0.372,1.9654 1.7615,1.9654 l 1.5342,0 c 7.3599,0 13.0025,0.8732 17.1131,2.8144 l 0.0582,18.0766 c 0.005,1.4546 0.7378,2.9069 2.201,2.9069"
                 inkscape:connector-curvature="0" />
              <path
                 id="path3036"
                 style="fill:#d3d2d2;fill-opacity:1;fill-rule:nonzero;stroke:none"
                 d="m 199.6527,318.5997 10e-4,0.9972 c 0,1.2384 -1.0922,1.2384 -1.6786,1.2384 -5.1107,0 -7.894,-1.6752 -10.9671,-4.2958 0,0.8036 7e-4,1.0197 7e-4,1.4562 0.008,1.6012 -1.5276,1.9638 -3.4278,1.9638 l -4.6371,0 c 0.3024,-1.7653 0.4658,-3.6878 0.4593,-5.8177 -0.0234,-7.6116 -2.7521,-12.4441 -8.5243,-15.1658 l -0.046,-14.7603 c -0.006,-1.8954 0.7932,-3.4265 3.5743,-3.4265 l 9.7966,0 c 2.704,0 2.6388,2.0428 2.6453,3.9329 l 0.0457,17.412 c 0.005,2.1119 2.2732,4.2202 5.4233,5.4587 0.1668,0.0663 0.3513,0.1192 0.5245,0.1803 1.0003,5.2352 3.1961,8.7061 6.8097,10.8266"
                 inkscape:connector-curvature="0" />
              <path
                 id="path3038"
                 style="fill:#bdbcbc;fill-opacity:1;fill-rule:nonzero;stroke:none"
                 d="m 179.4036,314.1418 c 0.006,2.1299 -0.1569,4.0524 -0.4593,5.8177 l -5.8058,0 c -1.4632,0 -2.1958,-1.4523 -2.201,-2.9069 l -0.0582,-18.0766 c 5.7722,2.7217 8.5009,7.5542 8.5243,15.1658"
                 inkscape:connector-curvature="0" />
              <path
                 id="path3040"
                 style="fill:#d3d2d2;fill-opacity:1;fill-rule:nonzero;stroke:none"
                 d="m 215.3459,294.7078 c 0,-2.4084 -0.4453,-4.6668 -2.9324,-4.6668 -2.412,0 -2.995,1.9672 -2.9861,4.5907 l 0.0223,11.5062 c 0.005,1.9625 0.1603,4.8762 2.8625,4.8762 2.9196,0 3.0597,-2.8386 3.0597,-4.8762 l -0.026,-11.4301 z m 9.0174,-9.8735 0.0582,34.2331 c -2.9636,1.5705 -6.7294,2.2743 -11.3595,2.2743 -5.7512,0 -10.1566,-0.8239 -13.4093,-2.742 l -0.0242,-8.2424 c 0,-0.8732 -0.4396,-1.6752 -1.684,-1.6752 -1.7732,0 -3.5367,-0.3653 -5.1015,-0.909 -0.4323,-2.2709 -0.6448,-4.8679 -0.6567,-7.8267 -0.0364,-14.495 5.2165,-20.1805 20.6452,-20.1805 5.302,0 9.3983,0.9573 12.4548,2.8528 -0.5557,0.6134 -0.9269,1.3596 -0.923,2.2156"
                 inkscape:connector-curvature="0" />
              <path
                 id="path3042"
                 style="fill:#bdbcbc;fill-opacity:1;fill-rule:nonzero;stroke:none"
                 d="m 199.6285,310.3573 0.0242,8.2424 c -3.6136,-2.1205 -5.8094,-5.5914 -6.8097,-10.8266 1.5648,0.5437 3.3283,0.909 5.1015,0.909 1.2444,0 1.684,0.802 1.684,1.6752"
                 inkscape:connector-curvature="0" />
              <path
                 id="path3044"
                 style="fill:#bdbcbc;fill-opacity:1;fill-rule:nonzero;stroke:none"
                 d="m 265.2184,313.3697 c -0.005,-5.3846 -2.4879,-11.2267 -7.8987,-11.2267 -0.789,0 -1.244,0 -1.9184,0 -3.4974,0 -4.0573,2.2441 -4.0531,3.144 l 0.027,33.8852 c 0.004,2.3551 0.3442,2.8005 3.7216,2.8005 0.899,0 0.7852,0 1.5788,0 5.8562,0 8.5555,-5.1503 8.5555,-9.0749 l -0.0127,-19.5281 z m 27.7245,24.5017 c -1.5208,20.8279 -19.7736,25.0523 -36.5941,25.0523 l -8.0865,0 c -4.9921,-9.8119 -13.4649,-17.5778 -23.805,-21.6879 l -0.0358,-22.1684 c 5.5025,-2.9147 8.2032,-8.8551 8.1855,-19.121 -0.01,-8.3487 -2.2052,-14.1553 -7.3207,-17.3277 1.0395,-1.1545 2.743,-1.8295 3.9199,-1.8295 l 38.7014,0 c 3.6037,0 13.9055,1.7201 20.1482,9.6357 -4.0173,5.5473 -5.3698,12.6341 -5.3698,20.1397 0.003,13.2163 3.1119,22.1516 10.2569,27.3068"
                 inkscape:connector-curvature="0" />
              <path
                 id="path3046"
                 style="fill:#a7a5a6;fill-opacity:1;fill-rule:nonzero;stroke:none"
                 d="m 232.607,299.9464 c 0.0177,10.2659 -2.683,16.2063 -8.1855,19.121 l -0.0582,-34.2331 c -0.004,-0.856 0.3673,-1.6022 0.923,-2.2156 5.1155,3.1724 7.3111,8.979 7.3207,17.3277"
                 inkscape:connector-curvature="0" />
              <path
                 id="path3048"
                 style="fill:#a7a5a6;fill-opacity:1;fill-rule:nonzero;stroke:none"
                 d="m 293.0567,335.0269 c 0,0.983 -0.0475,1.9267 -0.1138,2.8445 -7.145,-5.1552 -10.2538,-14.0905 -10.2569,-27.3068 0,-7.5056 1.3525,-14.5924 5.3698,-20.1397 2.9558,3.7433 5.0064,8.8725 5.0064,15.8712"
                 inkscape:connector-curvature="0" />
              <path
                 id="path3050"
                 style="fill:#bdbcbc;fill-opacity:1;fill-rule:nonzero;stroke:none"
                 d="m 308.2714,322.1281 c 0,1.7903 0.6703,6.3895 5.7416,6.3895 5.0721,0 5.1869,-4.8206 5.1905,-6.6197 0,-1.5643 -0.1096,-2.7988 -1.2392,-2.7988 l -8.2282,0 c -1.5741,0 -1.4647,1.4546 -1.4647,3.029 z m 22.1386,-35.8205 -0.0185,11.1112 c -2.8133,-0.1889 -5.9764,-0.33 -9.247,-0.33 -9.3622,0 -14.8878,3.8185 -14.8925,7.5272 0,0 13.9221,0 24.1307,0 l -0.0441,36.2455 c -4.1582,1.5661 -9.2996,2.4608 -15.5491,2.4608 -9.5773,0 -16.7402,-1.7638 -21.8466,-5.4509 0.0663,-0.9178 0.1138,-1.8615 0.1138,-2.8445 l 0.006,-28.7308 c 0,-6.9987 -2.0506,-12.1279 -5.0064,-15.8712 4.9975,-6.9062 14.1218,-11.4338 29.9487,-11.4338 6.6543,0 20.4185,0.899 22.3346,1.2346 0.7162,0.1143 1.3057,0.2996 1.7874,0.5635 l -6.9637,0 c -4.9082,0 -4.7489,1.8921 -4.7528,5.5184"
                 inkscape:connector-curvature="0" />
              <path
                 id="path3052"
                 style="fill:#a7a5a6;fill-opacity:1;fill-rule:nonzero;stroke:none"
                 d="m 383.8846,348.1826 -10.9012,0 c -2.5278,0 -3.1623,0.788 -3.1672,2.9898 l -0.0309,13.8201 c -0.004,1.2556 0.4635,2.8256 2.836,2.8256 l 8.3658,0 c 7.7386,0 11.5403,-4.5549 11.5585,-9.423 0.0156,-6.9101 -4.0802,-10.2125 -8.661,-10.2125 z m 46.8516,-61.875 -16.9182,40.1739 c -0.795,1.8914 -0.9509,1.5729 1.2523,2.8301 5.8402,3.3033 16.5466,12.2685 16.4842,27.831 -0.0883,21.1896 -16.092,38.7596 -47.3274,38.7596 l -48.2792,0 c -4.4176,0 -5.6764,-1.1034 -5.6701,-4.0802 l 0.0608,-50.9605 c 9.9365,-3.7399 14.2089,-11.3512 14.2227,-19.9693 l 0.0171,-10.3276 c 0.004,-4.3745 -0.3312,-5.9486 -7.0909,-5.9486 -1.8701,0 -4.353,0 -7.1048,0 l 0.009,-7.1972 c 5.1418,0.3398 9.0938,0.8332 10.2619,0.9043 2.0277,0.1102 3.3826,-0.8989 3.3872,-2.473 l 0.0175,-10.6772 c 0.004,-2.1829 -0.5027,-3.6121 -1.9316,-4.3837 l 19.1519,0 c 6.9639,0 8.0704,0.9433 8.0618,5.0453 l -0.0696,30.2566 c -0.01,1.4203 0.1479,2.2042 1.2556,2.2042 l 4.2693,0 c 1.2647,0 1.5827,0 2.2184,-1.2608 l 13.8474,-31.5133 c 1.2689,-2.8399 1.2772,-4.5738 6.8153,-4.732 l 30.2304,0 c 4.9076,-0.1585 3.9489,2.9953 2.8292,5.5184"
                 inkscape:connector-curvature="0" />
              <path
                 id="path3054"
                 style="fill:#7b7979;fill-opacity:1;fill-rule:nonzero;stroke:none"
                 d="m 337.4875,304.616 c 6.7597,0 7.0951,1.5741 7.0909,5.9486 l -0.0171,10.3276 c -0.0138,8.6181 -4.2862,16.2294 -14.2227,19.9693 l 0.0441,-36.2455 c 2.7518,0 5.2347,0 7.1048,0"
                 inkscape:connector-curvature="0" />
              <path
                 id="path3056"
                 style="fill:#7b7979;fill-opacity:1;fill-rule:nonzero;stroke:none"
                 d="m 344.0581,285.1729 -0.0175,10.6772 c -0.005,1.5741 -1.3595,2.5832 -3.3872,2.473 -1.1681,-0.0711 -5.1201,-0.5645 -10.2619,-0.9043 l 0.0185,-11.1112 c 0.004,-3.6263 -0.1554,-5.5184 4.7528,-5.5184 l 6.9637,0 c 1.4289,0.7716 1.9357,2.2008 1.9316,4.3837"
                 inkscape:connector-curvature="0" />
              <path
                 id="path3058"
                 style="fill:#a7a5a6;fill-opacity:1;fill-rule:nonzero;stroke:none"
                 d="m 136.8806,252.6812 c 1.8787,0 2.7567,0.6131 2.7567,2.1841 0,1.5737 -0.878,2.186 -2.7567,2.186 l -2.1649,0 0,-4.3701 2.1649,0 z m -4.1461,6.1669 4.3499,0 c 2.9412,0 4.6361,-1.511 4.6361,-3.9828 0,-2.4699 -1.6949,-3.9611 -4.6361,-3.9611 l -2.3687,0 0,-6.004 -1.9812,0"
                 inkscape:connector-curvature="0" />
              <path
                 id="path3060"
                 style="fill:#a7a5a6;fill-opacity:1;fill-rule:nonzero;stroke:none"
                 d="m 143.1184,254.1101 1.8378,0 0,-2.001 c 0.9191,1.4497 1.6544,2.1647 2.7164,2.1647 0.674,0 1.3478,-0.3063 2.1035,-0.8987 l -1.0009,-1.6331 c -0.5717,0.4898 -1.0823,0.735 -1.7152,0.735 -0.9598,0 -1.7769,-0.8376 -2.1038,-2.3686 l 0,-5.2082 -1.8378,0"
                 inkscape:connector-curvature="0" />
              <path
                 id="path3062"
                 style="fill:#a7a5a6;fill-opacity:1;fill-rule:nonzero;stroke:none"
                 d="m 155.0453,246.4528 c 1.6338,0 2.9614,1.3683 2.9614,3.0635 0,1.6942 -1.3276,3.0418 -2.9614,3.0418 -1.634,0 -2.9615,-1.3476 -2.9615,-3.0418 0,-1.7162 1.3275,-3.0635 2.9615,-3.0635 z m 0.02,7.8615 c 1.307,0 2.5124,-0.5108 3.4314,-1.4084 0.9394,-0.9399 1.45,-2.1036 1.45,-3.3896 0,-1.2665 -0.5311,-2.5128 -1.45,-3.4106 -0.9398,-0.9189 -2.1244,-1.3894 -3.4314,-1.3894 -2.7365,0 -4.9009,2.1238 -4.9009,4.8 0,2.6536 2.1443,4.798 4.9009,4.798"
                 inkscape:connector-curvature="0" />
              <path
                 id="path3064"
                 style="fill:#a7a5a6;fill-opacity:1;fill-rule:nonzero;stroke:none"
                 d="m 163.0099,250.8023 c 0,-1.0823 0.7142,-1.7157 1.92,-1.7157 1.2047,0 1.9602,0.6539 1.9602,1.7157 0,1.0003 -0.7966,1.7558 -1.9602,1.7558 -1.1645,0 -1.92,-0.7555 -1.92,-1.7558 z m 1.8992,-8.9859 c 1.7773,0 2.7365,0.5113 2.7365,1.2665 0,0.8781 -1.1026,1.3068 -3.2878,1.3068 -1.3073,0 -2.1241,-0.5516 -2.1241,-1.2047 0,-0.8989 0.8989,-1.3686 2.6754,-1.3686 z m -3.7172,8.9044 c 0,2.2259 1.5317,3.3893 4.5951,3.3893 l 3.6559,0 0,-1.4905 -1.5524,0 c 0.5108,-0.5513 0.7355,-1.1434 0.7355,-1.8791 0,-1.551 -1.021,-2.716 -2.5935,-3.0015 -1.3887,-0.2452 -2.1852,-0.2244 -2.1852,-0.8781 0,-0.6129 0.9597,-0.6942 2.9407,-1.1034 1.797,-0.3665 2.7159,-1.2654 2.7159,-2.6135 0,-1.8581 -1.5723,-2.8794 -4.574,-2.8794 -2.9617,0 -4.4933,1.001 -4.4933,2.7775 0,1.2868 0.8984,2.1447 2.6549,2.4707 -0.6742,0.3063 -1.0212,0.6539 -1.0212,1.1239 0,0.4897 0.4084,0.8571 1.246,1.2047 -1.3892,0.4289 -2.1244,1.4494 -2.1244,2.8794"
                 inkscape:connector-curvature="0" />
              <path
                 id="path3066"
                 style="fill:#a7a5a6;fill-opacity:1;fill-rule:nonzero;stroke:none"
                 d="m 170.8312,254.1101 1.8381,0 0,-2.001 c 0.9192,1.4497 1.6544,2.1647 2.716,2.1647 0.6739,0 1.3481,-0.3063 2.1036,-0.8987 l -1.0008,-1.6331 c -0.5721,0.4898 -1.0823,0.735 -1.7152,0.735 -0.9599,0 -1.777,-0.8376 -2.1036,-2.3686 l 0,-5.2082 -1.8381,0"
                 inkscape:connector-curvature="0" />
              <path
                 id="path3068"
                 style="fill:#a7a5a6;fill-opacity:1;fill-rule:nonzero;stroke:none"
                 d="m 183.0031,249.475 c -2.1852,-0.6736 -3.2677,-1.2252 -3.2677,-2.2059 0,-0.7553 0.5107,-1.1842 1.3888,-1.1842 0.6334,0 1.2666,0.2247 1.8789,0.6947 l 0,2.6954 z m -2.5933,-4.7377 c -1.6949,0 -2.6349,0.8779 -2.6349,2.2254 0,1.3076 1.0213,2.2871 3.043,2.9618 l 2.1852,0.7349 c 0.0208,0.1429 0.0208,0.2648 0.0208,0.3877 0,1.1026 -0.511,1.5528 -1.7362,1.5528 -1.0216,0 -2.1236,-0.43 -3.2268,-1.2871 l 0,1.8179 c 0.96,0.7762 2.1647,1.1636 3.4512,1.1636 2.4305,0 3.3902,-1.0415 3.3902,-3.3083 l 0,-3.9006 c 0,-0.5916 0.0821,-0.8982 0.3678,-0.8982 0.3063,0 0.5716,0.204 0.96,0.5105 l 0,-1.1231 c -0.6745,-0.572 -1.3481,-0.8373 -2.0628,-0.8373 -0.6945,0 -1.0416,0.2653 -1.1029,0.9189 -0.8984,-0.6331 -1.6746,-0.9189 -2.6546,-0.9189"
                 inkscape:connector-curvature="0" />
              <path
                 id="path3070"
                 style="fill:#a7a5a6;fill-opacity:1;fill-rule:nonzero;stroke:none"
                 d="m 187.3122,254.1101 1.8386,0 0,-1.1223 c 0.8981,0.857 1.7765,1.2655 2.8383,1.2655 1.3476,0 2.2257,-0.47 2.8591,-1.5518 1.0618,1.0415 1.9812,1.5518 3.1654,1.5518 2.0015,0 3.2472,-1.2253 3.2472,-3.2468 l 0,-6.1063 -1.8583,0 0,5.6361 c 0,1.4912 -0.5921,2.1852 -1.9197,2.1852 -0.9597,0 -1.6339,-0.3471 -2.3075,-1.1847 l 0,-6.6366 -1.7976,0 0,5.6361 c 0,1.4912 -0.6126,2.1852 -1.9402,2.1852 -0.9597,0 -1.6133,-0.3471 -2.2867,-1.1847 l 0,-6.6366 -1.8386,0"
                 inkscape:connector-curvature="0" />
              <path
                 id="path3072"
                 style="fill:#a7a5a6;fill-opacity:1;fill-rule:nonzero;stroke:none"
                 d="m 208.0616,249.475 c -2.1854,-0.6736 -3.2677,-1.2252 -3.2677,-2.2059 0,-0.7553 0.5107,-1.1842 1.3886,-1.1842 0.6334,0 1.2665,0.2247 1.8791,0.6947 l 0,2.6954 z m -2.5938,-4.7377 c -1.695,0 -2.6344,0.8779 -2.6344,2.2254 0,1.3076 1.0213,2.2871 3.0428,2.9618 l 2.1854,0.7349 c 0.0205,0.1429 0.0205,0.2648 0.0205,0.3877 0,1.1026 -0.511,1.5528 -1.736,1.5528 -1.0215,0 -2.1238,-0.43 -3.2269,-1.2871 l 0,1.8179 c 0.9599,0.7762 2.1649,1.1636 3.4514,1.1636 2.4304,0 3.3902,-1.0415 3.3902,-3.3083 l 0,-3.9006 c 0,-0.5916 0.0815,-0.8982 0.3673,-0.8982 0.3063,0 0.5723,0.204 0.96,0.5105 l 0,-1.1231 c -0.6737,-0.572 -1.3479,-0.8373 -2.0623,-0.8373 -0.6945,0 -1.0418,0.2653 -1.1031,0.9189 -0.8987,-0.6331 -1.6745,-0.9189 -2.6549,-0.9189"
                 inkscape:connector-curvature="0" />
              <path
                 id="path3074"
                 style="fill:#a7a5a6;fill-opacity:1;fill-rule:nonzero;stroke:none"
                 d="m 223.8681,252.1297 c -0.5918,0.4284 -1.2044,0.6328 -1.9194,0.6328 -1.8586,0 -3.0225,-1.2047 -3.0225,-3.2269 0,-2.021 1.1639,-3.226 3.0225,-3.226 0.715,0 1.3276,0.2042 1.9194,0.6331 l 0,5.187 z m -2.3891,-7.4134 c -2.6347,0 -4.5133,1.9407 -4.5133,4.8 0,2.8581 1.8786,4.798 4.5133,4.798 0.9189,0 1.6952,-0.225 2.3891,-0.7139 l 0,5.2477 1.8381,0 0,-13.9479 -1.8381,0 0,0.5113 c -0.6939,-0.4908 -1.4702,-0.6952 -2.3891,-0.6952"
                 inkscape:connector-curvature="0" />
              <path
                 id="path3076"
                 style="fill:#a7a5a6;fill-opacity:1;fill-rule:nonzero;stroke:none"
                 d="m 234.3043,250.496 c -0.1229,1.3474 -1.0621,2.2255 -2.3284,2.2255 -1.4091,0 -2.287,-0.7753 -2.5528,-2.2255 l 4.8812,0 z m -2.0426,-5.8 c -2.9404,0 -4.7788,2.0017 -4.7788,4.9627 0,2.7367 1.8176,4.6356 4.5136,4.6356 2.6141,0 4.3295,-1.8173 4.3295,-4.8401 0,-0.0818 0,-0.1836 0,-0.2647 l -6.9029,0 c 0.1021,-1.7565 1.2053,-2.7775 2.9412,-2.7775 1.1639,0 2.4302,0.4281 3.7983,1.3065 l 0,-1.8376 c -1.2252,-0.7968 -2.5123,-1.1849 -3.9009,-1.1849"
                 inkscape:connector-curvature="0" />
              <path
                 id="path3078"
                 style="fill:#a7a5a6;fill-opacity:1;fill-rule:nonzero;stroke:none"
                 d="m 245.4954,256.9489 0,-10.1493 3.1454,0 c 3.5533,0 5.5343,2.0218 5.5343,5.0645 0,3.0431 -1.981,5.0848 -5.5343,5.0848 l -3.1454,0 z m 7.8426,0.6945 c 1.8783,-1.266 2.961,-3.3491 2.961,-5.7585 0,-2.4099 -1.0827,-4.5132 -2.961,-5.7792 -1.3071,-0.8989 -2.8181,-1.2055 -4.6972,-1.2055 l -5.1261,0 0,13.9479 5.1261,0 c 1.8583,0 3.3488,-0.2861 4.6972,-1.2047"
                 inkscape:connector-curvature="0" />
              <path
                 id="path3080"
                 style="fill:#a7a5a6;fill-opacity:1;fill-rule:nonzero;stroke:none"
                 d="m 264.5499,250.496 c -0.1223,1.3474 -1.062,2.2255 -2.3283,2.2255 -1.4092,0 -2.287,-0.7753 -2.5528,-2.2255 l 4.8811,0 z m -2.042,-5.8 c -2.9409,0 -4.7788,2.0017 -4.7788,4.9627 0,2.7367 1.8176,4.6356 4.5133,4.6356 2.6138,0 4.3293,-1.8173 4.3293,-4.8401 0,-0.0818 0,-0.1836 0,-0.2647 l -6.9029,0 c 0.1023,-1.7565 1.2052,-2.7775 2.9412,-2.7775 1.1636,0 2.4299,0.4281 3.7985,1.3065 l 0,-1.8376 c -1.2255,-0.7968 -2.5123,-1.1849 -3.9006,-1.1849"
                 inkscape:connector-curvature="0" />
              <path
                 id="path3082"
                 style="fill:#a7a5a6;fill-opacity:1;fill-rule:nonzero;stroke:none"
                 d="m 267.6948,247.4938 c 1.1641,-0.7755 2.2054,-1.1237 3.0023,-1.1237 0.9596,0 1.5112,0.3887 1.5112,0.9811 0,0.7141 -0.8579,0.9799 -2.1854,1.6744 -1.4705,0.7555 -2.246,1.4294 -2.246,2.777 0,1.5112 1.1434,2.5117 3.1038,2.5117 1.0418,0 1.9805,-0.2447 2.9002,-0.7555 l 0,-1.7968 c -1.0621,0.5921 -2.0018,0.9192 -2.8797,0.9192 -0.7765,0 -1.2049,-0.2858 -1.2049,-0.776 0,-0.735 0.735,-1.0621 2.1036,-1.7363 1.5518,-0.7757 2.4096,-1.3275 2.4096,-2.777 0,-1.5925 -1.2862,-2.6756 -3.3288,-2.6756 -1.1641,0 -2.1851,0.2652 -3.1859,0.817"
                 inkscape:connector-curvature="0" />
              <path
                 id="path3084"
                 style="fill:#a7a5a6;fill-opacity:1;fill-rule:nonzero;stroke:none"
                 d="m 282.1948,250.496 c -0.1229,1.3474 -1.0621,2.2255 -2.3287,2.2255 -1.4091,0 -2.2869,-0.7753 -2.5527,-2.2255 l 4.8814,0 z m -2.0429,-5.8 c -2.9406,0 -4.7787,2.0017 -4.7787,4.9627 0,2.7367 1.8178,4.6356 4.5135,4.6356 2.6141,0 4.3295,-1.8173 4.3295,-4.8401 0,-0.0818 0,-0.1836 0,-0.2647 l -6.9028,0 c 0.1021,-1.7565 1.2052,-2.7775 2.9409,-2.7775 1.1639,0 2.4299,0.4281 3.7988,1.3065 l 0,-1.8376 c -1.2255,-0.7968 -2.512,-1.1849 -3.9012,-1.1849"
                 inkscape:connector-curvature="0" />
              <path
                 id="path3086"
                 style="fill:#a7a5a6;fill-opacity:1;fill-rule:nonzero;stroke:none"
                 d="m 285.932,254.1101 1.8378,0 0,-1.1223 c 0.8987,0.857 1.7765,1.2655 2.8391,1.2655 2.0012,0 3.2262,-1.2253 3.2262,-3.2468 l 0,-6.1063 -1.8381,0 0,5.6361 c 0,1.4912 -0.6124,2.1852 -1.9404,2.1852 -0.9597,0 -1.6124,-0.3471 -2.2868,-1.1847 l 0,-6.6366 -1.8378,0"
                 inkscape:connector-curvature="0" />
              <path
                 id="path3088"
                 style="fill:#a7a5a6;fill-opacity:1;fill-rule:nonzero;stroke:none"
                 d="m 294.6722,254.1101 2.0428,0 2.838,-6.1056 2.656,6.1056 2.0007,0 -4.2477,-9.3938 -0.8576,0"
                 inkscape:connector-curvature="0" />
              <path
                 id="path3090"
                 style="fill:#a7a5a6;fill-opacity:1;fill-rule:nonzero;stroke:none"
                 d="m 309.4787,246.4528 c 1.6344,0 2.9609,1.3683 2.9609,3.0635 0,1.6942 -1.3265,3.0418 -2.9609,3.0418 -1.6342,0 -2.9609,-1.3476 -2.9609,-3.0418 0,-1.7162 1.3267,-3.0635 2.9609,-3.0635 z m 0.0205,7.8615 c 1.3076,0 2.5123,-0.5108 3.4315,-1.4084 0.9391,-0.9399 1.4494,-2.1036 1.4494,-3.3896 0,-1.2665 -0.5308,-2.5128 -1.4494,-3.4106 -0.9403,-0.9189 -2.1239,-1.3894 -3.4315,-1.3894 -2.7364,0 -4.9011,2.1238 -4.9011,4.8 0,2.6536 2.1441,4.798 4.9011,4.798"
                 inkscape:connector-curvature="0" />
              <path
                 id="path3092"
                 style="fill:#a7a5a6;fill-opacity:1;fill-rule:nonzero;stroke:none"
                 d="m 316.1771,244.9002 1.8381,0 0,13.9479 -1.8381,0 0,-13.9479 z"
                 inkscape:connector-curvature="0" />
              <path
                 id="path3094"
                 style="fill:#a7a5a6;fill-opacity:1;fill-rule:nonzero;stroke:none"
                 d="m 318.9752,254.1101 2.0417,0 2.8386,-6.1056 2.6549,6.1056 2.0017,0 -4.2487,-9.3938 -0.8571,0"
                 inkscape:connector-curvature="0" />
              <path
                 id="path3096"
                 style="fill:#a7a5a6;fill-opacity:1;fill-rule:nonzero;stroke:none"
                 d="m 329.5532,254.1101 1.838,0 0,-9.2099 -1.838,0 0,9.2099 z m 0.9189,3.7575 c 0.5718,0 1.0421,-0.4492 1.0421,-1.041 0,-0.5926 -0.4703,-1.0418 -1.0421,-1.0418 -0.5713,0 -1.0408,0.4492 -1.0408,1.0418 0,0.5918 0.4695,1.041 1.0408,1.041"
                 inkscape:connector-curvature="0" />
              <path
                 id="path3098"
                 style="fill:#a7a5a6;fill-opacity:1;fill-rule:nonzero;stroke:none"
                 d="m 333.8004,254.1101 1.8386,0 0,-1.1223 c 0.8997,0.857 1.7773,1.2655 2.8385,1.2655 1.3487,0 2.2271,-0.47 2.8597,-1.5518 1.0626,1.0415 1.9812,1.5518 3.1662,1.5518 2.0004,0 3.2462,-1.2253 3.2462,-3.2468 l 0,-6.1063 -1.8581,0 0,5.6361 c 0,1.4912 -0.5926,2.1852 -1.9202,2.1852 -0.9587,0 -1.6331,-0.3471 -2.3073,-1.1847 l 0,-6.6366 -1.797,0 0,5.6361 c 0,1.4912 -0.6121,2.1852 -1.9405,2.1852 -0.9602,0 -1.6136,-0.3471 -2.2875,-1.1847 l 0,-6.6366 -1.8386,0"
                 inkscape:connector-curvature="0" />
              <path
                 id="path3100"
                 style="fill:#a7a5a6;fill-opacity:1;fill-rule:nonzero;stroke:none"
                 d="m 356.2453,250.496 c -0.1219,1.3474 -1.0616,2.2255 -2.3278,2.2255 -1.41,0 -2.2878,-0.7753 -2.5531,-2.2255 l 4.8809,0 z m -2.0421,-5.8 c -2.9414,0 -4.7792,2.0017 -4.7792,4.9627 0,2.7367 1.8175,4.6356 4.514,4.6356 2.6133,0 4.3298,-1.8173 4.3298,-4.8401 0,-0.0818 0,-0.1836 0,-0.2647 l -6.9034,0 c 0.1021,-1.7565 1.2052,-2.7775 2.9415,-2.7775 1.1636,0 2.4301,0.4281 3.7975,1.3065 l 0,-1.8376 c -1.225,-0.7968 -2.5123,-1.1849 -3.9002,-1.1849"
                 inkscape:connector-curvature="0" />
              <path
                 id="path3102"
                 style="fill:#a7a5a6;fill-opacity:1;fill-rule:nonzero;stroke:none"
                 d="m 359.9825,254.1101 1.8384,0 0,-1.1223 c 0.8981,0.857 1.7765,1.2655 2.839,1.2655 2.0008,0 3.2257,-1.2253 3.2257,-3.2468 l 0,-6.1063 -1.8378,0 0,5.6361 c 0,1.4912 -0.6126,2.1852 -1.9394,2.1852 -0.9602,0 -1.6136,-0.3471 -2.2875,-1.1847 l 0,-6.6366 -1.8384,0"
                 inkscape:connector-curvature="0" />
              <path
                 id="path3104"
                 style="fill:#a7a5a6;fill-opacity:1;fill-rule:nonzero;stroke:none"
                 d="m 373.2767,244.7163 c -2.2454,0 -2.8172,1.0412 -2.8172,3.4309 l 0,4.3703 -1.5731,0 0,0.184 3.2269,3.5533 0.2035,0 0,-2.1447 2.8796,0 0,-1.5926 -2.8796,0 0,-4.2269 c 0,-1.3076 0.1436,-1.8173 1.3481,-1.8173 0.5515,0 1.0833,0.1426 1.5936,0.4484 l 0,-1.7349 c -0.5926,-0.3269 -1.2463,-0.4705 -1.9818,-0.4705"
                 inkscape:connector-curvature="0" />
              <path
                 id="path3106"
                 style="fill:#a7a5a6;fill-opacity:1;fill-rule:nonzero;stroke:none"
                 d="m 381.0377,246.4528 c 1.6342,0 2.9607,1.3683 2.9607,3.0635 0,1.6942 -1.3265,3.0418 -2.9607,3.0418 -1.6341,0 -2.9606,-1.3476 -2.9606,-3.0418 0,-1.7162 1.3265,-3.0635 2.9606,-3.0635 z m 0.0203,7.8615 c 1.3073,0 2.5125,-0.5108 3.4309,-1.4084 0.9397,-0.9399 1.4502,-2.1036 1.4502,-3.3896 0,-1.2665 -0.5305,-2.5128 -1.4502,-3.4106 -0.9386,-0.9189 -2.1236,-1.3894 -3.4309,-1.3894 -2.7362,0 -4.9009,2.1238 -4.9009,4.8 0,2.6536 2.1439,4.798 4.9009,4.798"
                 inkscape:connector-curvature="0" />
              <path
                 id="path3108"
                 style="fill:#a7a5a6;fill-opacity:1;fill-rule:nonzero;stroke:none"
                 d="m 396.5595,252.8036 c 1.8601,0 2.7772,0.7147 2.7772,2.1846 0,1.5728 -0.8963,2.1652 -2.7772,2.1652 l -1.6549,0 0,-4.3498 1.6549,0 z m -3.6554,6.0445 4.0841,0 c 2.8604,0 4.4114,-1.4089 4.4114,-3.8191 0,-1.8168 -0.795,-2.8993 -2.6137,-3.4712 0.6132,-0.3271 1.0003,-0.8783 1.4498,-1.5525 l 3.3903,-5.1051 -2.4083,0 -2.3902,3.6556 c -1.0833,1.6542 -1.7562,2.5731 -3.328,2.5731 l -0.5949,0 0,-6.2287 -2.0005,0"
                 inkscape:connector-curvature="0" />
              <path
                 id="path3110"
                 style="fill:#a7a5a6;fill-opacity:1;fill-rule:nonzero;stroke:none"
                 d="m 406.9333,244.7576 c -2.0005,0 -3.2449,1.2252 -3.2449,3.2469 l 0,6.1056 1.8576,0 0,-5.6364 c 0,-1.4907 0.6131,-2.1849 1.9381,-2.1849 0.9612,0 1.6159,0.3479 2.2888,1.1845 l 0,6.6368 1.8394,0 0,-9.2099 -1.8394,0 0,1.1234 c -0.8989,-0.8579 -1.777,-1.266 -2.8396,-1.266"
                 inkscape:connector-curvature="0" />
              <path
                 id="path3112"
                 style="fill:#a7a5a6;fill-opacity:1;fill-rule:nonzero;stroke:none"
                 d="m 413.9479,254.1101 1.8394,0 0,-2.001 c 0.9171,1.4497 1.6549,2.1647 2.7149,2.1647 0.6755,0 1.3484,-0.3063 2.1044,-0.8987 l -1.0003,-1.6331 c -0.5715,0.4898 -1.0833,0.735 -1.7172,0.735 -0.9587,0 -1.7745,-0.8376 -2.1018,-2.3686 l 0,-5.2082 -1.8394,0"
                 inkscape:connector-curvature="0" />
              <path
                 id="path3114"
                 style="fill:#a7a5a6;fill-opacity:1;fill-rule:nonzero;stroke:none"
                 d="m 426.1195,249.475 c -2.1849,-0.6736 -3.2683,-1.2252 -3.2683,-2.2059 0,-0.7553 0.5119,-1.1842 1.39,-1.1842 0.6339,0 1.2652,0.2247 1.8783,0.6947 l 0,2.6954 z m -2.5928,-4.7377 c -1.6939,0 -2.6343,0.8779 -2.6343,2.2254 0,1.3076 1.021,2.2871 3.0422,2.9618 l 2.1849,0.7349 c 0.0208,0.1429 0.0208,0.2648 0.0208,0.3877 0,1.1026 -0.5092,1.5528 -1.7354,1.5528 -1.021,0 -2.1252,-0.43 -3.2268,-1.2871 l 0,1.8179 c 0.9587,0.7762 2.1642,1.1636 3.4502,1.1636 2.4317,0 3.3903,-1.0415 3.3903,-3.3083 l 0,-3.9006 c 0,-0.5916 0.0832,-0.8982 0.369,-0.8982 0.3065,0 0.5715,0.204 0.9586,0.5105 l 0,-1.1231 c -0.6728,-0.572 -1.3483,-0.8373 -2.0628,-0.8373 -0.6936,0 -1.0418,0.2653 -1.1015,0.9189 -0.8989,-0.6331 -1.6757,-0.9189 -2.6552,-0.9189"
                 inkscape:connector-curvature="0" />
              <path
                 id="path3116"
                 style="fill:#a7a5a6;fill-opacity:1;fill-rule:nonzero;stroke:none"
                 d="m 430.4712,244.9002 1.8368,0 0,13.9479 -1.8368,0 0,-13.9479 z"
                 inkscape:connector-curvature="0" />
            </g>
          </g>
        </g>
      </g>
    </g>
  </g>
</svg>
