<?xml version="1.0" encoding="UTF-8" standalone="no"?>
<!-- Created with Inkscape (http://www.inkscape.org/) -->

<svg
   xmlns:dc="http://purl.org/dc/elements/1.1/"
   xmlns:cc="http://creativecommons.org/ns#"
   xmlns:rdf="http://www.w3.org/1999/02/22-rdf-syntax-ns#"
   xmlns:svg="http://www.w3.org/2000/svg"
   xmlns="http://www.w3.org/2000/svg"
   xmlns:sodipodi="http://sodipodi.sourceforge.net/DTD/sodipodi-0.dtd"
   xmlns:inkscape="http://www.inkscape.org/namespaces/inkscape"
   width="232.31259"
   height="250"
   viewBox="0 0 232.31259 250"
   id="svg2"
   version="1.1"
   inkscape:version="0.91 r13725"
   sodipodi:docname="snail.svg">
  <defs
     id="defs4" />
  <sodipodi:namedview
     id="base"
     pagecolor="#ffffff"
     bordercolor="#666666"
     borderopacity="1.0"
     inkscape:pageopacity="0.0"
     inkscape:pageshadow="2"
     inkscape:zoom="0.36215278"
     inkscape:cx="14.932141"
     inkscape:cy="402.58255"
     inkscape:document-units="px"
     inkscape:current-layer="layer1"
     showgrid="false"
     fit-margin-top="0"
     fit-margin-left="0"
     fit-margin-right="0"
     fit-margin-bottom="0"
     inkscape:window-width="1680"
     inkscape:window-height="947"
     inkscape:window-x="0"
     inkscape:window-y="-22"
     inkscape:window-maximized="0"
     units="px" />
  <metadata
     id="metadata7">
    <rdf:RDF>
      <cc:Work
         rdf:about="">
        <dc:format>image/svg+xml</dc:format>
        <dc:type
           rdf:resource="http://purl.org/dc/dcmitype/StillImage" />
        <dc:title></dc:title>
      </cc:Work>
    </rdf:RDF>
  </metadata>
  <g
     inkscape:label="Layer 1"
     inkscape:groupmode="layer"
     id="layer1"
     transform="translate(-85.090476,-411.56856)">
    <g
       id="g3500"
       transform="matrix(0.49574378,0,0,0.49574378,14.845352,291.16475)">
      <ellipse
         style="fill:#ffffff"
         id="path3623"
         cx="321.52164"
         cy="328.19174"
         rx="55.646523"
         ry="56.134651" />
      <ellipse
         style="fill:#ffffff"
         id="path3581"
         cx="229.75369"
         cy="-318.42917"
         rx="47.836487"
         ry="50.277122"
         transform="scale(1,-1)" />
      <path
         style="fill:#ffffff;stroke:none;stroke-width:1px;stroke-linecap:butt;stroke-linejoin:miter;stroke-opacity:1"
         d="m 327.37915,726.99183 29.2877,-17.57259 -162.05834,-262.61254 -40.02645,6.83378 -2.92876,26.35888 26.35888,8.7863 16.59633,99.57799 70.29034,100.55424 z"
         id="path3627"
         inkscape:connector-curvature="0" />
      <path
         style="fill:#9b7236"
         d="m 483.50131,391.78308 c 13.83111,-1.39626 22.37093,11.54725 36.81854,18.33335 31.95191,15.00797 50.51555,34.62537 68.42974,70.23594 11.39147,22.64448 21.94956,47.00941 21.38681,65.64823 -0.56275,18.63882 -0.14484,26.80242 -2.27866,40.77708 -3.62839,15.87356 -8.51526,37.23649 -17.46771,50.74541 -4.94551,6.95193 -61.40738,62.42961 -97.38181,82.77922 -66.38905,14.02856 -176.12804,-311.69873 -9.50691,-328.51923 z"
         id="path3506"
         inkscape:connector-curvature="0"
         sodipodi:nodetypes="ssszcccs" />
      <path
         style="fill:#648644"
         d="m 196.41972,593.08687 c -7.07595,-18.39009 -26.94115,-137.1207 -5.73672,-136.28855 18.64571,0.73173 144.06038,1.56319 144.53779,0.19623 24.98306,-19.38933 50.93887,-61.20143 99.66997,-58.04269 19.43624,-5.33719 40.44275,2.01739 37.6225,6.57751 0.1772,3.03402 8.07251,7.73694 14.92766,11.21798 17.9984,9.13954 32.13782,23.39874 38.00551,29.05375 14.10325,20.62567 29.12566,44.13924 35.98281,68.5254 6.03019,22.55145 6.16836,23.84601 5.06338,47.44015 -1.06111,22.65754 -3.1107,34.72081 -8.82391,51.93485 -3.84604,11.58819 -15.90241,34.13659 -23.69459,44.31475 -7.79773,10.18539 -28.32182,29.63064 -33.59892,32.49135 -5.68632,3.08254 -16.72785,11.82526 -17.34221,15.3814 -1.25238,7.24927 21.95811,1.31083 27.22939,0.4531 -17.47867,1.96301 -12.06626,10.364 -63.87691,25.79995 -98.37948,-0.29607 -179.40784,-20.22541 -249.96575,-139.05518 z m 142.99109,122.72701 c -15.49036,-11.00605 -25.90355,-20.05933 -40.15158,-32.52589 -25.92305,-22.54886 -50.6889,-63.96942 -69.38079,-111.11899 -6.63414,-16.73436 -10.77435,-32.08001 -13.75089,-50.96751 -2.94125,-18.66355 -4.91334,-23.60939 -7.98572,-24.77751 -1.53025,-0.5818 -18.3204,-12.71757 -18.3204,-12.71757 l -7.91287,11.05377 c -17.17047,23.98605 16.47489,93.91553 32.19729,122.94199 11.48958,22.76853 97.47825,117.47623 125.30496,98.11171 z"
         id="path3504"
         inkscape:connector-curvature="0"
         sodipodi:nodetypes="cscccsccssssscccccssscscc" />
      <path
         style="fill:#171914"
         d="M 301.69643,746.59924 C 273.5256,745.90165 215.30676,742.0764 200.64978,739.96 c -21.60433,-3.11957 -23.61059,-6.04332 -6.37552,-9.29115 13.57348,-2.55781 52.99127,-5.48099 98.66046,-7.31651 10.15752,-0.40825 9.66505,-2.92829 -1.85291,-9.48151 -14.1602,-8.05655 -28.58752,-19.15334 -42.31028,-32.543 -46.34794,-45.22292 -74.87823,-106.85746 -80.3398,-173.55965 -0.46422,-5.66957 -1.46645,-10.79939 -2.22717,-11.39959 -0.76072,-0.60021 -3.36703,-1.72931 -5.79179,-2.50911 -11.08046,-3.56347 -18.71634,-14.51477 -18.71634,-26.84279 0,-11.67527 5.51876,-20.97824 15.45064,-26.0451 4.88525,-2.49227 6.30682,-2.57773 29.10018,-1.7493 19.10817,0.6945 24.17059,0.54 24.98348,-0.76241 0.56071,-0.89837 2.20604,-13.44589 3.65629,-27.88339 2.52697,-25.15647 2.38198,-30.625 -0.81198,-30.625 -3.6063,0 -15.84916,-7.28049 -22.32524,-13.2762 -17.40052,-16.1098 -24.38813,-37.72509 -19.54948,-60.4738 1.09674,-5.15625 1.99453,-9.7373 1.99509,-10.1801 5.6e-4,-0.44281 -4.25491,-4.06489 -9.4566,-8.04906 -10.33765,-7.918 -11.79238,-9.79865 -11.79238,-15.24493 0,-8.79538 9.0952,-10.28542 18.32525,-3.00217 10.63325,8.39049 12.70047,9.46851 14.80601,7.72107 2.89497,-2.40261 2.277,-5.26894 -3.13126,-14.52386 -2.75,-4.70595 -5,-9.70567 -5,-11.11048 0,-3.64995 3.18278,-7.69709 6.75909,-8.59468 5.33554,-1.33914 8.79738,1.11177 13.90403,9.84373 5.48719,9.38268 5.10836,9.28412 19.33688,5.03084 5.10098,-1.52481 10.1005,-1.91466 19.375,-1.51079 14.15496,0.61639 22.94782,3.36198 33.07359,10.32728 7.23881,4.97943 9.00872,5.20585 13.83425,1.76977 1.94907,-1.38787 7.37966,-4.02946 12.06796,-5.87022 7.6333,-2.99704 10.15724,-3.34645 24.1492,-3.34323 13.34015,0.003 16.72172,0.42709 23.125,2.89959 4.125,1.59279 8.03437,3.38901 8.6875,3.99161 2.47307,2.28175 4.83675,0.82464 13.4305,-8.27937 7.60247,-8.0539 9.44191,-9.375 13.05326,-9.375 5.20633,0 9.20374,3.7198 9.20374,8.56457 0,2.58223 -2.0819,5.9229 -7.55454,12.12222 -11.99577,13.5886 -8.65495,18.10118 7.4111,10.01044 9.97053,-5.02107 13.61374,-5.46164 17.71329,-2.14202 3.25417,2.63507 3.84429,8.8597 1.14794,12.10861 -0.93439,1.12587 -5.55339,3.98812 -10.26444,6.36057 -4.71106,2.37245 -8.88198,5.13811 -9.2687,6.1459 -0.38673,1.0078 0.26435,6.70798 1.44682,12.66708 2.47233,12.4593 1.86245,23.71054 -1.90775,35.19517 -7.89101,24.0372 -28.69497,42.29571 -53.54067,46.98974 -5.05556,0.95513 -9.80819,2.35286 -10.56139,3.10606 -1.47865,1.47865 -6.08714,43.10568 -5.06661,45.76512 0.83186,2.1678 4.6649,3.06901 13.14019,3.08948 l 7.07025,0.0171 4.70725,-6.55215 c 19.40021,-27.00369 52.43515,-47.24678 88.16262,-54.02417 5.85334,-1.11042 16.98333,-1.92374 26.32485,-1.92374 57.1821,0 104.25936,29.87535 133.94209,85 10.09645,18.7504 17.79936,45.87304 19.24269,67.75519 0.901,13.66005 -0.80983,17.24481 -8.23008,17.24481 -6.86951,0 -8.91491,-2.80997 -8.91491,-12.24738 0,-4.22152 -1.68991,-15.40721 -3.75535,-24.85707 -3.04789,-13.94474 -5.15179,-20.07029 -11.16786,-32.51546 -4.07688,-8.43367 -9.51825,-18.50635 -12.09193,-22.38378 -11.59011,-17.46122 -38.49285,-41.05146 -57.98486,-50.84523 -12.13702,-6.09827 -21.93877,-9.71319 -49.47469,-10.05169 -18.25989,-0.22446 -26.17646,1.47623 -34.90031,3.88864 -30.32775,8.3865 -61.08245,31.48003 -72.00605,54.06892 -10.49506,21.70275 -14.22266,42.67855 -11.69006,65.78188 1.61992,14.77757 2.23356,16.56282 10.45312,30.41117 10.86648,18.3079 17.94988,26.19262 31.1281,34.64951 13.71014,8.79824 18.32756,10.16561 37.94282,11.2361 12.16973,0.66415 14.28792,0.4297 24.375,-2.69785 12.72957,-3.94687 30.1027,-14.00463 35.49905,-20.55135 4.86003,-5.89606 11.97756,-20.56228 13.66165,-28.1509 2.04313,-9.20648 1.77778,-25.46604 -0.51959,-31.83847 -7.28794,-20.21525 -26.08843,-37.05508 -42.99586,-38.51193 -5.45023,-0.46963 -9.47424,0.14708 -17.33255,2.65634 -18.70634,5.97316 -28.79055,17.55803 -30.1194,34.60154 -1.1078,14.20841 6.76861,29.25185 16.93638,32.34736 15.73544,4.79058 19.64017,10.12988 13.03365,17.82215 -4.52177,5.26493 -20.92748,0.593 -31.70758,-9.0295 -12.56978,-11.22 -18.48489,-27.84971 -16.14849,-45.39981 4.14387,-31.12714 29.96454,-51.24506 63.23981,-49.27273 15.47931,0.91753 22.38708,3.38827 35.21923,12.59708 10.001,7.17709 11.7055,9.03017 18.25837,19.85009 6.22726,10.28226 7.494,13.46018 9.15231,22.96084 2.70019,15.46968 0.71513,33.06459 -5.41327,47.98153 -9.42613,22.94377 -30.6969,41.9405 -55.0634,49.17657 -19.95159,5.92498 -41.51015,4.91837 -60.89393,-2.84327 -14.67125,-5.87465 -22.62123,-11.22141 -33.89935,-22.79901 -18.64457,-19.13964 -25.28473,-32.34689 -29.74336,-59.15929 -1.71486,-10.3125 -3.28639,-21 -3.49226,-23.75 l -0.37434,-5 -12.39427,-0.88311 c -14.74049,-1.05028 -15.42097,-1.26439 -16.97043,-5.33982 -3.25626,-8.56458 4.86551,-12.72873 22.03644,-11.2984 l 10.23137,0.85227 3.17698,-10.37815 c 1.83317,-5.98843 2.68196,-10.68408 2.00669,-11.10142 -0.64365,-0.3978 -15.94524,-1.40622 -34.00353,-2.24095 -18.05829,-0.83473 -53.85007,-2.6967 -79.53731,-4.1377 -34.62792,-1.94257 -47.48023,-2.26636 -49.70591,-1.25228 -6.20476,2.82708 -7.01945,12.05367 -1.38268,15.65928 3.57565,2.28719 37.48646,5.6793 76.42549,7.64487 15.95164,0.8052 17.62404,1.11865 20.3125,3.80711 3.44505,3.44505 3.7448,7.57325 0.85001,11.70615 l -2.07966,2.96913 -23.85784,-0.79818 c -13.12182,-0.43899 -29.34222,-1.17227 -36.04535,-1.62951 l -12.1875,-0.83135 0,8.32699 c 0,25.48179 11.13845,66.13606 26.40701,96.38301 24.05235,47.6476 58.63474,82.81356 101.50114,103.21397 15.36168,7.31073 26.09475,10.95278 48.34185,16.40384 16.45079,4.03082 17.53488,4.13304 43.125,4.06569 30.25964,-0.0796 37.91174,-1.44295 62.3495,-11.10834 7.86819,-3.11196 14.63571,-5.6581 15.03894,-5.6581 3.36381,0 26.67671,-12.26875 38.51615,-20.26967 26.03339,-17.59302 51.4228,-46.05839 54.63898,-61.25862 0.82687,-3.90788 1.11285,-4.08532 6.2048,-3.84956 12.644,0.58541 11.99424,6.902 -3.06052,29.75285 -16.29115,24.72749 -40.9444,47.06916 -69.62531,63.09701 -12.56628,7.02245 -11.47223,8.1669 8.9099,9.32039 24.59579,1.39195 45.34641,3.34174 55.07474,5.17496 15.88859,2.99409 15.24522,5.91697 -1.92452,8.74308 -14.68452,2.41705 -54.23635,5.17445 -96.74766,6.74487 -29.99511,1.10805 -137.17712,1.37903 -175,0.44244 z m -3.89631,-303.21025 c 1.38203,-3.73095 5.42662,-44.47267 4.55498,-45.88301 -0.3742,-0.60547 -5.3161,-3.35438 -10.98201,-6.10869 -5.66591,-2.75433 -13.30071,-7.5814 -16.96622,-10.72682 -3.66552,-3.14544 -6.8299,-5.71898 -7.03197,-5.71898 -0.20207,0 -3.44793,1.36236 -7.21303,3.02746 -3.76512,1.66511 -10.14705,3.63778 -14.18209,4.38369 -4.03504,0.74591 -8.01103,2.05544 -8.83554,2.91004 -2.35275,2.43862 -7.0615,53.60482 -5.11094,55.53656 0.98292,0.97342 11.01358,2.15669 27.78813,3.27804 38.41707,2.5681 36.75745,2.59861 37.97869,-0.69829 z m 40.46297,-67.17949 c 25.0437,-9.37005 38.80339,-36.87997 31.11192,-62.20246 -4.88812,-16.09306 -16.24202,-28.00686 -32.54698,-34.15199 -5.7634,-2.17215 -9.00272,-2.55058 -18.2566,-2.13285 -17.2048,0.77666 -29.27762,7.03015 -38.98349,20.19269 -30.01903,40.71012 11.40228,95.98166 58.67515,78.29461 z m -19.16281,-42.41186 c -8.05191,-8.0519 -2.54259,-21.34615 8.84615,-21.34615 7.30935,0 12.5,5.19065 12.5,12.5 0,11.38873 -13.29425,16.89806 -21.34615,8.84615 z m -71.4022,29.2368 c 7.9247,-2.35338 9.75366,-5.10552 7.29827,-10.98211 -6.78211,-16.23186 -4.97981,-39.57246 4.42452,-57.29963 2.06396,-3.89059 3.55629,-8.09353 3.31626,-9.33986 -0.59071,-3.06734 -12.4849,-8.92366 -21.41759,-10.54533 -13.50799,-2.45228 -31.35169,3.87966 -40.49889,14.37128 -12.85869,14.7486 -15.23447,37.38009 -5.5861,53.2127 10.82058,17.75614 32.8625,26.40383 52.46353,20.58295 z m -38.26931,-22.45427 c -4.50831,-3.79349 -5.79619,-8.25766 -3.97459,-13.77715 3.83838,-11.63041 22.21901,-10.61726 24.46379,1.34846 0.9602,5.11831 -1.18843,11.10973 -4.92194,13.72479 -4.12766,2.89113 -11.30078,2.29391 -15.56726,-1.2961 z m 383.51799,249.08369 c -6.01037,-6.45136 -4.05322,-14.17863 4.28718,-16.92678 5.93843,-1.95669 9.24199,-1.02829 10.78534,3.031 1.46685,3.85813 0.18462,12.49736 -2.21031,14.8923 -2.7871,2.7871 -9.84682,2.24014 -12.86221,-0.99652 z"
         id="path3502"
         inkscape:connector-curvature="0"
         sodipodi:nodetypes="csssssssssssssssssssssssssssssssssssssssssssssssscssssssssssssssssssssssssssssssssssssssscssscssssssssscsscssssssssssssssssccsssssssssssssssssssssssssssssssssssssss" />
    </g>
  </g>
</svg>
